Montserrat-Light Italic.ufo
<glyph name="exclam" format="1">
  <advance width="242"/>
  <unicode hex="0021"/>
  <outline>
    <contour>
      <point x="114" y="188" type="line"/>
      <point x="220" y="700" type="line"/>
      <point x="198" y="700" type="line"/>
      <point x="100" y="188" type="line"/>
    </contour>
    <contour>
      <point x="88" y="-3"/>
      <point x="100" y="9"/>
      <point x="100" y="23" type="curve" smooth="yes"/>
      <point x="100" y="37"/>
      <point x="88" y="49"/>
      <point x="74" y="49" type="curve" smooth="yes"/>
      <point x="60" y="49"/>
      <point x="48" y="37"/>
      <point x="48" y="23" type="curve" smooth="yes"/>
      <point x="48" y="9"/>
      <point x="60" y="-3"/>
      <point x="74" y="-3" type="curve" smooth="yes"/>
    </contour>
  </outline>
</glyph>
<glyph name="numbersign" format="1">
  <advance width="682"/>
  <unicode hex="0023"/>
  <outline>
    <contour>
      <point x="387" y="0" type="line"/>
      <point x="612" y="700" type="line"/>
      <point x="591" y="700" type="line"/>
      <point x="366" y="0" type="line"/>
    </contour>
    <contour>
      <point x="606" y="210" type="line"/>
      <point x="609" y="229" type="line"/>
      <point x="29" y="229" type="line"/>
      <point x="26" y="210" type="line"/>
    </contour>
    <contour>
      <point x="127" y="0" type="line"/>
      <point x="352" y="700" type="line"/>
      <point x="331" y="700" type="line"/>
      <point x="106" y="0" type="line"/>
    </contour>
    <contour>
      <point x="689" y="471" type="line"/>
      <point x="692" y="490" type="line"/>
      <point x="112" y="490" type="line"/>
      <point x="109" y="471" type="line"/>
    </contour>
  </outline>
</glyph>
<glyph name="quotesingle" format="1">
  <advance width="184"/>
  <unicode hex="0027"/>
  <outline>
    <contour>
      <point x="139" y="450" type="line"/>
      <point x="191" y="700" type="line"/>
      <point x="169" y="700" type="line"/>
      <point x="121" y="450" type="line"/>
    </contour>
  </outline>
</glyph>
<glyph name="parenleft" format="1">
  <advance width="311"/>
  <unicode hex="0028"/>
  <outline>
    <contour>
      <point x="161" y="-194" type="line"/>
      <point x="134" y="-107"/>
      <point x="122" y="-30"/>
      <point x="122" y="55" type="curve" smooth="yes"/>
      <point x="122" y="296"/>
      <point x="216" y="579"/>
      <point x="349" y="742" type="curve"/>
      <point x="329" y="742" type="line"/>
      <point x="194" y="575"/>
      <point x="104" y="302"/>
      <point x="104" y="55" type="curve" smooth="yes"/>
      <point x="104" y="-26"/>
      <point x="118" y="-117"/>
      <point x="144" y="-194" type="curve"/>
    </contour>
  </outline>
</glyph>
<glyph name="parenright" format="1">
  <advance width="311"/>
  <unicode hex="0029"/>
  <outline>
    <contour>
      <point x="221" y="742" type="line"/>
      <point x="248" y="655"/>
      <point x="260" y="578"/>
      <point x="260" y="493" type="curve" smooth="yes"/>
      <point x="260" y="252"/>
      <point x="166" y="-31"/>
      <point x="33" y="-194" type="curve"/>
      <point x="53" y="-194" type="line"/>
      <point x="188" y="-27"/>
      <point x="278" y="246"/>
      <point x="278" y="493" type="curve" smooth="yes"/>
      <point x="278" y="574"/>
      <point x="264" y="665"/>
      <point x="238" y="742" type="curve"/>
    </contour>
  </outline>
</glyph>
<glyph name="plus" format="1">
  <advance width="560"/>
  <unicode hex="002B"/>
  <outline>
    <contour>
      <point x="268" y="150" type="line"/>
      <point x="348" y="550" type="line"/>
      <point x="328" y="550" type="line"/>
      <point x="248" y="150" type="line"/>
    </contour>
    <contour>
      <point x="502" y="340" type="line"/>
      <point x="506" y="359" type="line"/>
      <point x="95" y="359" type="line"/>
      <point x="91" y="340" type="line"/>
    </contour>
  </outline>
</glyph>
<glyph name="comma" format="1">
  <advance width="182"/>
  <unicode hex="002C"/>
  <outline>
    <contour>
      <point x="0" y="-140" type="line"/>
      <point x="61" y="-6" type="line" smooth="yes"/>
      <point x="66" y="5"/>
      <point x="70" y="12"/>
      <point x="70" y="23" type="curve" smooth="yes"/>
      <point x="70" y="37"/>
      <point x="58" y="49"/>
      <point x="44" y="49" type="curve" smooth="yes"/>
      <point x="30" y="49"/>
      <point x="18" y="37"/>
      <point x="18" y="23" type="curve" smooth="yes"/>
      <point x="18" y="9"/>
      <point x="30" y="-3"/>
      <point x="44" y="-3" type="curve"/>
      <point x="43" y="8" type="line"/>
      <point x="-18" y="-140" type="line"/>
    </contour>
  </outline>
</glyph>
<glyph name="hyphen" format="1">
  <advance width="380"/>
  <unicode hex="002D"/>
  <outline>
    <contour>
      <point x="314" y="255" type="line"/>
      <point x="318" y="274" type="line"/>
      <point x="68" y="274" type="line"/>
      <point x="64" y="255" type="line"/>
    </contour>
  </outline>
</glyph>
<glyph name="slash" format="1">
  <advance width="300"/>
  <unicode hex="002F"/>
  <outline>
    <contour>
      <point x="-70" y="-100" type="line"/>
      <point x="446" y="842" type="line"/>
      <point x="424" y="842" type="line"/>
      <point x="-92" y="-100" type="line"/>
    </contour>
  </outline>
</glyph>
<glyph name="one" format="1">
  <advance width="342"/>
  <unicode hex="0031"/>
  <outline>
    <contour>
      <point x="157" y="0" type="line"/>
      <point x="297" y="700" type="line"/>
      <point x="98" y="700" type="line"/>
      <point x="94" y="681" type="line"/>
      <point x="283" y="681" type="line"/>
      <point x="276" y="689" type="line"/>
      <point x="138" y="0" type="line"/>
    </contour>
  </outline>
</glyph>
<glyph name="four" format="1">
  <advance width="644"/>
  <unicode hex="0034"/>
  <outline>
    <contour>
      <point x="617" y="208" type="line"/>
      <point x="621" y="227" type="line"/>
      <point x="50" y="227" type="line"/>
      <point x="66" y="223" type="line"/>
      <point x="552" y="700" type="line"/>
      <point x="525" y="700" type="line"/>
      <point x="39" y="223" type="line"/>
      <point x="36" y="208" type="line"/>
    </contour>
    <contour>
      <point x="419" y="0" type="line"/>
      <point x="501" y="410" type="line"/>
      <point x="481" y="410" type="line"/>
      <point x="444" y="227" type="line"/>
      <point x="441" y="208" type="line"/>
      <point x="399" y="0" type="line"/>
    </contour>
  </outline>
</glyph>
<glyph name="seven" format="1">
  <advance width="570"/>
  <unicode hex="0037"/>
  <outline>
    <contour>
      <point x="159" y="0" type="line"/>
      <point x="607" y="685" type="line"/>
      <point x="610" y="700" type="line"/>
      <point x="124" y="700" type="line"/>
      <point x="92" y="540" type="line"/>
      <point x="112" y="540" type="line"/>
      <point x="142" y="689" type="line"/>
      <point x="131" y="681" type="line"/>
      <point x="597" y="681" type="line"/>
      <point x="584" y="688" type="line"/>
      <point x="134" y="0" type="line"/>
    </contour>
  </outline>
</glyph>
<glyph name="less" format="1">
  <advance width="560"/>
  <unicode hex="003C"/>
  <outline>
    <contour>
      <point x="94" y="361" type="line"/>
      <point x="90" y="339" type="line"/>
      <point x="466" y="168" type="line"/>
      <point x="470" y="188" type="line"/>
      <point x="105" y="353" type="line"/>
      <point x="103" y="345" type="line"/>
      <point x="533" y="509" type="line"/>
      <point x="538" y="532" type="line"/>
    </contour>
  </outline>
</glyph>
<glyph name="equal" format="1">
  <advance width="560"/>
  <unicode hex="003D"/>
  <outline>
    <contour>
      <point x="524" y="450" type="line"/>
      <point x="528" y="469" type="line"/>
      <point x="118" y="469" type="line"/>
      <point x="114" y="450" type="line"/>
    </contour>
    <contour>
      <point x="480" y="231" type="line"/>
      <point x="484" y="250" type="line"/>
      <point x="74" y="250" type="line"/>
      <point x="70" y="231" type="line"/>
    </contour>
  </outline>
</glyph>
<glyph name="A" format="1">
  <advance width="688"/>
  <unicode hex="0041"/>
  <outline>
    <contour>
      <point x="-19" y="0" type="line"/>
      <point x="435" y="684" type="line"/>
      <point x="426" y="684" type="line"/>
      <point x="606" y="0" type="line"/>
      <point x="627" y="0" type="line"/>
      <point x="442" y="700" type="line"/>
      <point x="422" y="700" type="line"/>
      <point x="-43" y="0" type="line"/>
    </contour>
    <contour>
      <point x="561" y="211" type="line"/>
      <point x="555" y="230" type="line"/>
      <point x="120" y="230" type="line"/>
      <point x="106" y="211" type="line"/>
    </contour>
    <contour>
      <point x="627" y="0" type="move" name="ogonek"/>
    </contour>
    <contour>
      <point x="432" y="700" type="move" name="top"/>
    </contour>
    <contour>
      <point x="194" y="700" type="move" name="topleft"/>
    </contour>
    <contour>
      <point x="292" y="0" type="move" name="bottom"/>
    </contour>
  </outline>
</glyph>
<glyph name="B" format="1">
  <advance width="748"/>
  <unicode hex="0042"/>
  <outline>
    <contour>
      <point x="382" y="0" type="line" smooth="yes"/>
      <point x="567" y="0"/>
      <point x="672" y="77"/>
      <point x="672" y="214" type="curve" smooth="yes"/>
      <point x="672" y="314"/>
      <point x="596" y="362"/>
      <point x="471" y="362" type="curve"/>
      <point x="452" y="351" type="line"/>
      <point x="589" y="351"/>
      <point x="701" y="421"/>
      <point x="701" y="559" type="curve" smooth="yes"/>
      <point x="701" y="652"/>
      <point x="623" y="700"/>
      <point x="498" y="700" type="curve" smooth="yes"/>
      <point x="221" y="700" type="line"/>
      <point x="81" y="0" type="line"/>
    </contour>
    <contour>
      <point x="237" y="681" type="line"/>
      <point x="498" y="681" type="line" smooth="yes"/>
      <point x="614" y="681"/>
      <point x="681" y="639"/>
      <point x="681" y="556" type="curve" smooth="yes"/>
      <point x="681" y="430"/>
      <point x="577" y="365"/>
      <point x="435" y="365" type="curve" smooth="yes"/>
      <point x="169" y="365" type="line"/>
      <point x="165" y="346" type="line"/>
      <point x="455" y="346" type="line" smooth="yes"/>
      <point x="585" y="346"/>
      <point x="652" y="308"/>
      <point x="652" y="212" type="curve" smooth="yes"/>
      <point x="652" y="88"/>
      <point x="557" y="19"/>
      <point x="386" y="19" type="curve" smooth="yes"/>
      <point x="105" y="19" type="line"/>
    </contour>
    <contour>
      <point x="465" y="700" type="move" name="top"/>
    </contour>
    <contour>
      <point x="325" y="0" type="move" name="bottom"/>
    </contour>
  </outline>
</glyph>
<glyph name="C" format="1">
  <advance width="711"/>
  <unicode hex="0043"/>
  <outline>
    <contour>
      <point x="491" y="-3"/>
      <point x="586" y="32"/>
      <point x="644" y="86" type="curve"/>
      <point x="632" y="102" type="line"/>
      <point x="573" y="47"/>
      <point x="491" y="16"/>
      <point x="388" y="16" type="curve" smooth="yes"/>
      <point x="192" y="16"/>
      <point x="91" y="123"/>
      <point x="91" y="280" type="curve" smooth="yes"/>
      <point x="91" y="499"/>
      <point x="246" y="684"/>
      <point x="490" y="684" type="curve" smooth="yes"/>
      <point x="591" y="684"/>
      <point x="665" y="656"/>
      <point x="713" y="602" type="curve"/>
      <point x="727" y="615" type="line"/>
      <point x="680" y="671"/>
      <point x="597" y="703"/>
      <point x="492" y="703" type="curve" smooth="yes"/>
      <point x="229" y="703"/>
      <point x="71" y="504"/>
      <point x="71" y="280" type="curve" smooth="yes"/>
      <point x="71" y="111"/>
      <point x="182" y="-3"/>
      <point x="386" y="-3" type="curve" smooth="yes"/>
    </contour>
    <contour>
      <point x="495" y="700" type="move" name="top"/>
    </contour>
    <contour>
      <point x="356" y="0" type="move" name="bottom"/>
    </contour>
  </outline>
</glyph>
<glyph name="D" format="1">
  <advance width="826"/>
  <unicode hex="0044"/>
  <outline>
    <contour>
      <point x="357" y="0" type="line" smooth="yes"/>
      <point x="624" y="0"/>
      <point x="793" y="177"/>
      <point x="793" y="420" type="curve" smooth="yes"/>
      <point x="793" y="587"/>
      <point x="681" y="700"/>
      <point x="472" y="700" type="curve" smooth="yes"/>
      <point x="221" y="700" type="line"/>
      <point x="81" y="0" type="line"/>
    </contour>
    <contour>
      <point x="237" y="681" type="line"/>
      <point x="470" y="681" type="line" smooth="yes"/>
      <point x="673" y="681"/>
      <point x="773" y="576"/>
      <point x="773" y="420" type="curve" smooth="yes"/>
      <point x="773" y="186"/>
      <point x="612" y="19"/>
      <point x="359" y="19" type="curve" smooth="yes"/>
      <point x="105" y="19" type="line"/>
    </contour>
    <contour>
      <point x="219" y="356" type="move" name="center"/>
    </contour>
    <contour>
      <point x="344" y="0" type="move" name="bottom"/>
    </contour>
    <contour>
      <point x="479" y="699" type="move" name="top"/>
    </contour>
  </outline>
</glyph>
<glyph name="E" format="1">
  <advance width="668"/>
  <unicode hex="0045"/>
  <outline>
    <contour>
      <point x="165" y="346" type="line"/>
      <point x="556" y="346" type="line"/>
      <point x="560" y="365" type="line"/>
      <point x="169" y="365" type="line"/>
    </contour>
    <contour>
      <point x="237" y="681" type="line"/>
      <point x="668" y="681" type="line"/>
      <point x="672" y="700" type="line"/>
      <point x="221" y="700" type="line"/>
      <point x="81" y="0" type="line"/>
      <point x="547" y="0" type="line"/>
      <point x="551" y="19" type="line"/>
      <point x="105" y="19" type="line"/>
    </contour>
    <contour>
      <point x="547" y="0" type="move" name="ogonek"/>
    </contour>
    <contour>
      <point x="447" y="700" type="move" name="top"/>
    </contour>
    <contour>
      <point x="129" y="700" type="move" name="topleft"/>
    </contour>
    <contour>
      <point x="324" y="0" type="move" name="bottom"/>
    </contour>
  </outline>
</glyph>
<glyph name="F" format="1">
  <advance width="629"/>
  <unicode hex="0046"/>
  <outline>
    <contour>
      <point x="161" y="326" type="line"/>
      <point x="552" y="326" type="line"/>
      <point x="556" y="345" type="line"/>
      <point x="165" y="345" type="line"/>
    </contour>
    <contour>
      <point x="237" y="681" type="line"/>
      <point x="668" y="681" type="line"/>
      <point x="672" y="700" type="line"/>
      <point x="221" y="700" type="line"/>
      <point x="81" y="0" type="line"/>
      <point x="101" y="0" type="line"/>
    </contour>
  </outline>
</glyph>
<glyph name="H" format="1">
  <advance width="816"/>
  <unicode hex="0048"/>
  <outline>
    <contour>
      <point x="611" y="0" type="line"/>
      <point x="631" y="0" type="line"/>
      <point x="771" y="700" type="line"/>
      <point x="751" y="700" type="line"/>
    </contour>
    <contour>
      <point x="241" y="700" type="line"/>
      <point x="221" y="700" type="line"/>
      <point x="81" y="0" type="line"/>
      <point x="101" y="0" type="line"/>
    </contour>
    <contour>
      <point x="689" y="365" type="line"/>
      <point x="169" y="365" type="line"/>
      <point x="165" y="346" type="line"/>
      <point x="685" y="346" type="line"/>
    </contour>
    <contour>
      <point x="464" y="538" type="move" name="center"/>
    </contour>
    <contour>
      <point x="356" y="0" type="move" name="bottom"/>
    </contour>
    <contour>
      <point x="496" y="700" type="move" name="top"/>
    </contour>
  </outline>
</glyph>
<glyph name="I" format="1">
  <advance width="286"/>
  <unicode hex="0049"/>
  <outline>
    <contour>
      <point x="101" y="0" type="line"/>
      <point x="241" y="700" type="line"/>
      <point x="221" y="700" type="line"/>
      <point x="81" y="0" type="line"/>
    </contour>
    <contour>
      <point x="101" y="0" type="move" name="ogonek"/>
    </contour>
    <contour>
      <point x="231" y="700" type="move" name="top"/>
    </contour>
    <contour>
      <point x="129" y="699" type="move" name="topleft"/>
    </contour>
    <contour>
      <point x="91" y="0" type="move" name="bottom"/>
    </contour>
  </outline>
</glyph>
<glyph name="J" format="1">
  <advance width="477"/>
  <unicode hex="004A"/>
  <outline>
    <contour>
      <point x="243" y="-3"/>
      <point x="308" y="49"/>
      <point x="336" y="190" type="curve" smooth="yes"/>
      <point x="438" y="700" type="line"/>
      <point x="156" y="700" type="line"/>
      <point x="152" y="681" type="line"/>
      <point x="414" y="681" type="line"/>
      <point x="317" y="196" type="line" smooth="yes"/>
      <point x="290" y="63"/>
      <point x="233" y="16"/>
      <point x="140" y="16" type="curve" smooth="yes"/>
      <point x="67" y="16"/>
      <point x="13" y="51"/>
      <point x="-12" y="106" type="curve"/>
      <point x="-30" y="96" type="line"/>
      <point x="-5" y="37"/>
      <point x="58" y="-3"/>
      <point x="137" y="-3" type="curve" smooth="yes"/>
    </contour>
    <contour>
      <point x="297" y="700" type="move" name="top"/>
    </contour>
  </outline>
</glyph>
<glyph name="K" format="1">
  <advance width="693"/>
  <unicode hex="004B"/>
  <outline>
    <contour>
      <point x="353" y="369" type="line"/>
      <point x="361" y="376" type="line"/>
      <point x="742" y="700" type="line"/>
      <point x="712" y="700" type="line"/>
      <point x="140" y="213" type="line"/>
      <point x="133" y="182" type="line"/>
    </contour>
    <contour>
      <point x="101" y="0" type="line"/>
      <point x="241" y="700" type="line"/>
      <point x="221" y="700" type="line"/>
      <point x="81" y="0" type="line"/>
    </contour>
    <contour>
      <point x="625" y="0" type="line"/>
      <point x="357" y="387" type="line"/>
      <point x="340" y="377" type="line"/>
      <point x="601" y="0" type="line"/>
    </contour>
    <contour>
      <point x="458" y="700" type="move" name="top"/>
    </contour>
    <contour>
      <point x="318" y="0" type="move" name="bottom"/>
    </contour>
  </outline>
</glyph>
<glyph name="L" format="1">
  <advance width="580"/>
  <unicode hex="004C"/>
  <outline>
    <contour>
      <point x="518" y="0" type="line"/>
      <point x="522" y="19" type="line"/>
      <point x="105" y="19" type="line"/>
      <point x="241" y="700" type="line"/>
      <point x="221" y="700" type="line"/>
      <point x="81" y="0" type="line"/>
    </contour>
    <contour>
      <point x="310" y="0" type="move" name="bottom"/>
    </contour>
    <contour>
      <point x="453" y="360" type="move" name="dot"/>
    </contour>
    <contour>
      <point x="231" y="700" type="move" name="top"/>
    </contour>
    <contour>
      <point x="534" y="700" type="move" name="topright"/>
    </contour>
    <contour>
      <point x="163" y="360" type="move" name="center"/>
    </contour>
  </outline>
</glyph>
<glyph name="M" format="1">
  <advance width="956"/>
  <unicode hex="004D"/>
  <outline>
    <contour>
      <point x="101" y="0" type="line"/>
      <point x="235" y="671" type="line"/>
      <point x="227" y="672" type="line"/>
      <point x="446" y="99" type="line"/>
      <point x="458" y="99" type="line"/>
      <point x="894" y="669" type="line"/>
      <point x="885" y="671" type="line"/>
      <point x="751" y="0" type="line"/>
      <point x="771" y="0" type="line"/>
      <point x="911" y="700" type="line"/>
      <point x="892" y="700" type="line"/>
      <point x="451" y="121" type="line"/>
      <point x="460" y="118" type="line"/>
      <point x="238" y="700" type="line"/>
      <point x="221" y="700" type="line"/>
      <point x="81" y="0" type="line"/>
    </contour>
    <contour>
      <point x="566" y="700" type="move" name="top"/>
    </contour>
    <contour>
      <point x="426" y="0" type="move" name="bottom"/>
    </contour>
  </outline>
</glyph>
<glyph name="N" format="1">
  <advance width="816"/>
  <unicode hex="004E"/>
  <outline>
    <contour>
      <point x="101" y="0" type="line"/>
      <point x="236" y="675" type="line"/>
      <point x="228" y="677" type="line"/>
      <point x="614" y="0" type="line"/>
      <point x="631" y="0" type="line"/>
      <point x="771" y="700" type="line"/>
      <point x="751" y="700" type="line"/>
      <point x="616" y="25" type="line"/>
      <point x="624" y="23" type="line"/>
      <point x="238" y="700" type="line"/>
      <point x="221" y="700" type="line"/>
      <point x="81" y="0" type="line"/>
    </contour>
    <contour>
      <point x="496" y="700" type="move" name="top"/>
    </contour>
    <contour>
      <point x="356" y="0" type="move" name="bottom"/>
    </contour>
  </outline>
</glyph>
<glyph name="O" format="1">
  <advance width="836"/>
  <unicode hex="004F"/>
  <outline>
    <contour>
      <point x="644" y="-3"/>
      <point x="802" y="196"/>
      <point x="802" y="420" type="curve" smooth="yes"/>
      <point x="802" y="589"/>
      <point x="691" y="703"/>
      <point x="487" y="703" type="curve" smooth="yes"/>
      <point x="229" y="703"/>
      <point x="71" y="504"/>
      <point x="71" y="280" type="curve" smooth="yes"/>
      <point x="71" y="111"/>
      <point x="182" y="-3"/>
      <point x="386" y="-3" type="curve" smooth="yes"/>
    </contour>
    <contour>
      <point x="192" y="16"/>
      <point x="91" y="123"/>
      <point x="91" y="280" type="curve" smooth="yes"/>
      <point x="91" y="499"/>
      <point x="246" y="684"/>
      <point x="485" y="684" type="curve" smooth="yes"/>
      <point x="681" y="684"/>
      <point x="782" y="577"/>
      <point x="782" y="420" type="curve" smooth="yes"/>
      <point x="782" y="201"/>
      <point x="627" y="16"/>
      <point x="388" y="16" type="curve" smooth="yes"/>
    </contour>
    <contour>
      <point x="366" y="0" type="move" name="bottom"/>
    </contour>
    <contour>
      <point x="417" y="0" type="move" name="ogonek"/>
    </contour>
    <contour>
      <point x="506" y="700" type="move" name="top"/>
    </contour>
    <contour>
      <point x="755" y="700" type="move" name="topright"/>
    </contour>
    <contour>
      <point x="147" y="700" type="move" name="topleft"/>
    </contour>
    <contour>
      <point x="436" y="350" type="move" name="center"/>
    </contour>
  </outline>
</glyph>
<glyph name="P" format="1">
  <advance width="710"/>
  <unicode hex="0050"/>
  <outline>
    <contour>
      <point x="101" y="0" type="line"/>
      <point x="151" y="249" type="line"/>
      <point x="140" y="240" type="line"/>
      <point x="373" y="240" type="line" smooth="yes"/>
      <point x="568" y="240"/>
      <point x="690" y="334"/>
      <point x="690" y="514" type="curve" smooth="yes"/>
      <point x="690" y="633"/>
      <point x="604" y="700"/>
      <point x="456" y="700" type="curve" smooth="yes"/>
      <point x="221" y="700" type="line"/>
      <point x="81" y="0" type="line"/>
    </contour>
    <contour>
      <point x="239" y="689" type="line"/>
      <point x="228" y="681" type="line"/>
      <point x="457" y="681" type="line" smooth="yes"/>
      <point x="594" y="681"/>
      <point x="670" y="621"/>
      <point x="670" y="514" type="curve" smooth="yes"/>
      <point x="670" y="345"/>
      <point x="561" y="259"/>
      <point x="372" y="259" type="curve" smooth="yes"/>
      <point x="144" y="259" type="line"/>
      <point x="151" y="251" type="line"/>
    </contour>
  </outline>
</glyph>
<glyph name="Q" format="1">
  <advance width="836"/>
  <unicode hex="0051"/>
  <outline>
    <contour>
      <point x="644" y="-3"/>
      <point x="802" y="196"/>
      <point x="802" y="420" type="curve" smooth="yes"/>
      <point x="802" y="589"/>
      <point x="691" y="703"/>
      <point x="487" y="703" type="curve" smooth="yes"/>
      <point x="229" y="703"/>
      <point x="71" y="504"/>
      <point x="71" y="280" type="curve" smooth="yes"/>
      <point x="71" y="111"/>
      <point x="182" y="-3"/>
      <point x="386" y="-3" type="curve" smooth="yes"/>
    </contour>
    <contour>
      <point x="644" y="-124"/>
      <point x="703" y="-99"/>
      <point x="745" y="-48" type="curve"/>
      <point x="731" y="-35" type="line"/>
      <point x="694" y="-82"/>
      <point x="643" y="-105"/>
      <point x="585" y="-105" type="curve" smooth="yes"/>
      <point x="511" y="-105"/>
      <point x="452" y="-65"/>
      <point x="401" y="8" type="curve"/>
      <point x="376" y="3" type="line"/>
      <point x="436" y="-78"/>
      <point x="501" y="-124"/>
      <point x="584" y="-124" type="curve" smooth="yes"/>
    </contour>
    <contour>
      <point x="192" y="16"/>
      <point x="91" y="123"/>
      <point x="91" y="280" type="curve" smooth="yes"/>
      <point x="91" y="499"/>
      <point x="246" y="684"/>
      <point x="485" y="684" type="curve" smooth="yes"/>
      <point x="681" y="684"/>
      <point x="782" y="577"/>
      <point x="782" y="420" type="curve" smooth="yes"/>
      <point x="782" y="201"/>
      <point x="627" y="16"/>
      <point x="388" y="16" type="curve" smooth="yes"/>
    </contour>
    <contour>
      <point x="506" y="700" type="move" name="top"/>
    </contour>
  </outline>
</glyph>
<glyph name="S" format="1">
  <advance width="601"/>
  <unicode hex="0053"/>
  <outline>
    <contour>
      <point x="410" y="-3"/>
      <point x="527" y="63"/>
      <point x="527" y="195" type="curve" smooth="yes"/>
      <point x="527" y="403"/>
      <point x="150" y="312"/>
      <point x="150" y="505" type="curve" smooth="yes"/>
      <point x="150" y="618"/>
      <point x="250" y="684"/>
      <point x="388" y="684" type="curve" smooth="yes"/>
      <point x="461" y="684"/>
      <point x="528" y="663"/>
      <point x="577" y="624" type="curve"/>
      <point x="590" y="641" type="line"/>
      <point x="541" y="681"/>
      <point x="464" y="703"/>
      <point x="388" y="703" type="curve" smooth="yes"/>
      <point x="242" y="703"/>
      <point x="131" y="633"/>
      <point x="131" y="503" type="curve" smooth="yes"/>
      <point x="131" y="292"/>
      <point x="507" y="384"/>
      <point x="507" y="194" type="curve" smooth="yes"/>
      <point x="507" y="79"/>
      <point x="406" y="16"/>
      <point x="264" y="16" type="curve" smooth="yes"/>
      <point x="173" y="16"/>
      <point x="79" y="55"/>
      <point x="42" y="108" type="curve"/>
      <point x="26" y="95" type="line"/>
      <point x="64" y="39"/>
      <point x="164" y="-3"/>
      <point x="263" y="-3" type="curve" smooth="yes"/>
    </contour>
    <contour>
      <point x="406" y="700" type="move" name="top"/>
    </contour>
    <contour>
      <point x="266" y="0" type="move" name="bottom"/>
    </contour>
  </outline>
</glyph>
<glyph name="T" format="1">
  <advance width="548"/>
  <unicode hex="0054"/>
  <outline>
    <contour>
      <point x="232" y="0" type="line"/>
      <point x="368" y="681" type="line"/>
      <point x="628" y="681" type="line"/>
      <point x="632" y="700" type="line"/>
      <point x="92" y="700" type="line"/>
      <point x="88" y="681" type="line"/>
      <point x="348" y="681" type="line"/>
      <point x="212" y="0" type="line"/>
    </contour>
    <contour>
      <point x="293" y="356" type="move" name="center"/>
    </contour>
    <contour>
      <point x="222" y="0" type="move" name="bottom"/>
    </contour>
    <contour>
      <point x="362" y="700" type="move" name="top"/>
    </contour>
  </outline>
</glyph>
<glyph name="U" format="1">
  <advance width="794"/>
  <unicode hex="0055"/>
  <outline>
    <contour>
      <point x="528" y="-3"/>
      <point x="634" y="93"/>
      <point x="674" y="293" type="curve" smooth="yes"/>
      <point x="755" y="700" type="line"/>
      <point x="735" y="700" type="line"/>
      <point x="654" y="294" type="line" smooth="yes"/>
      <point x="617" y="106"/>
      <point x="520" y="16"/>
      <point x="360" y="16" type="curve" smooth="yes"/>
      <point x="194" y="16"/>
      <point x="118" y="116"/>
      <point x="154" y="295" type="curve" smooth="yes"/>
      <point x="235" y="700" type="line"/>
      <point x="215" y="700" type="line"/>
      <point x="134" y="293" type="line" smooth="yes"/>
      <point x="97" y="107"/>
      <point x="183" y="-3"/>
      <point x="360" y="-3" type="curve" smooth="yes"/>
    </contour>
    <contour>
      <point x="531" y="0" type="move" name="ogonek"/>
    </contour>
    <contour>
      <point x="485" y="700" type="move" name="top"/>
    </contour>
    <contour>
      <point x="760" y="700" type="move" name="topright"/>
    </contour>
    <contour>
      <point x="345" y="0" type="move" name="bottom"/>
    </contour>
  </outline>
</glyph>
<glyph name="V" format="1">
  <advance width="670"/>
  <unicode hex="0056"/>
  <outline>
    <contour>
      <point x="293" y="0" type="line"/>
      <point x="748" y="700" type="line"/>
      <point x="724" y="700" type="line"/>
      <point x="280" y="17" type="line"/>
      <point x="289" y="17" type="line"/>
      <point x="119" y="700" type="line"/>
      <point x="98" y="700" type="line"/>
      <point x="273" y="0" type="line"/>
    </contour>
  </outline>
</glyph>
<glyph name="W" format="1">
  <advance width="1080"/>
  <unicode hex="0057"/>
  <outline>
    <contour>
      <point x="253" y="0" type="line"/>
      <point x="626" y="677" type="line"/>
      <point x="621" y="676" type="line"/>
      <point x="723" y="0" type="line"/>
      <point x="743" y="0" type="line"/>
      <point x="1123" y="700" type="line"/>
      <point x="1101" y="700" type="line"/>
      <point x="730" y="17" type="line"/>
      <point x="740" y="17" type="line"/>
      <point x="637" y="700" type="line"/>
      <point x="617" y="700" type="line"/>
      <point x="241" y="17" type="line"/>
      <point x="250" y="17" type="line"/>
      <point x="153" y="700" type="line"/>
      <point x="133" y="700" type="line"/>
      <point x="233" y="0" type="line"/>
    </contour>
    <contour>
      <point x="628" y="700" type="move" name="top"/>
    </contour>
    <contour>
      <point x="488" y="0" type="move" name="bottom"/>
    </contour>
  </outline>
</glyph>
<glyph name="X" format="1">
  <advance width="621"/>
  <unicode hex="0058"/>
  <outline>
    <contour>
      <point x="-3" y="0" type="line"/>
      <point x="332" y="351" type="line"/>
      <point x="327" y="353" type="line"/>
      <point x="523" y="0" type="line"/>
      <point x="544" y="0" type="line"/>
      <point x="340" y="366" type="line"/>
      <point x="340" y="360" type="line"/>
      <point x="664" y="700" type="line"/>
      <point x="640" y="700" type="line"/>
      <point x="329" y="374" type="line"/>
      <point x="338" y="369" type="line"/>
      <point x="154" y="700" type="line"/>
      <point x="133" y="700" type="line"/>
      <point x="323" y="359" type="line"/>
      <point x="324" y="369" type="line"/>
      <point x="-27" y="0" type="line"/>
    </contour>
  </outline>
</glyph>
<glyph name="Y" format="1">
  <advance width="610"/>
  <unicode hex="0059"/>
  <outline>
    <contour>
      <point x="263" y="0" type="line"/>
      <point x="312" y="245" type="line"/>
      <point x="304" y="228" type="line"/>
      <point x="688" y="700" type="line"/>
      <point x="663" y="700" type="line"/>
      <point x="299" y="252" type="line"/>
      <point x="306" y="253" type="line"/>
      <point x="120" y="700" type="line"/>
      <point x="98" y="700" type="line"/>
      <point x="294" y="230" type="line"/>
      <point x="292" y="245" type="line"/>
      <point x="243" y="0" type="line"/>
    </contour>
    <contour>
      <point x="393" y="700" type="move" name="top"/>
    </contour>
    <contour>
      <point x="253" y="0" type="move" name="bottom"/>
    </contour>
  </outline>
</glyph>
<glyph name="Z" format="1">
  <advance width="639"/>
  <unicode hex="005A"/>
  <outline>
    <contour>
      <point x="548" y="0" type="line"/>
      <point x="552" y="19" type="line"/>
      <point x="27" y="19" type="line"/>
      <point x="26" y="12" type="line"/>
      <point x="675" y="685" type="line"/>
      <point x="678" y="700" type="line"/>
      <point x="143" y="700" type="line"/>
      <point x="139" y="681" type="line"/>
      <point x="649" y="681" type="line"/>
      <point x="649" y="688" type="line"/>
      <point x="1" y="15" type="line"/>
      <point x="-2" y="0" type="line"/>
    </contour>
    <contour>
      <point x="413" y="700" type="move" name="top"/>
    </contour>
    <contour>
      <point x="283" y="0" type="move" name="bottom"/>
    </contour>
  </outline>
</glyph>
<glyph name="bracketleft" format="1">
  <advance width="288"/>
  <unicode hex="005B"/>
  <outline>
    <contour>
      <point x="172" y="-194" type="line"/>
      <point x="176" y="-175" type="line"/>
      <point x="66" y="-175" type="line"/>
      <point x="245" y="723" type="line"/>
      <point x="355" y="723" type="line"/>
      <point x="359" y="742" type="line"/>
      <point x="229" y="742" type="line"/>
      <point x="42" y="-194" type="line"/>
    </contour>
  </outline>
</glyph>
<glyph name="backslash" format="1">
  <advance width="300"/>
  <unicode hex="005C"/>
  <outline>
    <contour>
      <point x="105" y="842" type="line"/>
      <point x="86" y="842" type="line"/>
      <point x="229" y="-100" type="line"/>
      <point x="248" y="-100" type="line"/>
    </contour>
  </outline>
</glyph>
<glyph name="bracketright" format="1">
  <advance width="288"/>
  <unicode hex="005D"/>
  <outline>
    <contour>
      <point x="253" y="742" type="line"/>
      <point x="123" y="742" type="line"/>
      <point x="119" y="723" type="line"/>
      <point x="229" y="723" type="line"/>
      <point x="50" y="-175" type="line"/>
      <point x="-60" y="-175" type="line"/>
      <point x="-64" y="-194" type="line"/>
      <point x="66" y="-194" type="line"/>
    </contour>
  </outline>
</glyph>
<glyph name="a" format="1">
  <advance width="671"/>
  <unicode hex="0061"/>
  <outline>
    <contour>
      <point x="440" y="-3"/>
      <point x="558" y="133"/>
      <point x="557" y="312" type="curve" smooth="yes"/>
      <point x="556" y="442"/>
      <point x="479" y="520"/>
      <point x="341" y="520" type="curve" smooth="yes"/>
      <point x="171" y="520"/>
      <point x="49" y="386"/>
      <point x="49" y="207" type="curve" smooth="yes"/>
      <point x="49" y="78"/>
      <point x="134" y="-3"/>
      <point x="269" y="-3" type="curve" smooth="yes"/>
    </contour>
    <contour>
      <point x="144" y="16"/>
      <point x="69" y="86"/>
      <point x="69" y="208" type="curve" smooth="yes"/>
      <point x="69" y="376"/>
      <point x="183" y="501"/>
      <point x="338" y="501" type="curve" smooth="yes"/>
      <point x="466" y="501"/>
      <point x="541" y="431"/>
      <point x="541" y="309" type="curve" smooth="yes"/>
      <point x="541" y="140"/>
      <point x="427" y="16"/>
      <point x="272" y="16" type="curve" smooth="yes"/>
    </contour>
    <contour>
      <point x="505" y="0" type="line"/>
      <point x="608" y="517" type="line"/>
      <point x="588" y="517" type="line"/>
      <point x="550" y="327" type="line"/>
      <point x="547" y="250" type="line"/>
      <point x="521" y="180" type="line"/>
      <point x="485" y="0" type="line"/>
    </contour>
    <contour>
      <point x="504" y="0" type="move" name="ogonek"/>
    </contour>
    <contour>
      <point x="265" y="0" type="move" name="bottom"/>
    </contour>
    <contour>
      <point x="368" y="517" type="move" name="top"/>
    </contour>
  </outline>
</glyph>
<glyph name="b" format="1">
  <advance width="671"/>
  <unicode hex="0062"/>
  <outline>
    <contour>
      <point x="83" y="0" type="line"/>
      <point x="121" y="190" type="line"/>
      <point x="124" y="267" type="line"/>
      <point x="150" y="337" type="line"/>
      <point x="231" y="742" type="line"/>
      <point x="211" y="742" type="line"/>
      <point x="63" y="0" type="line"/>
    </contour>
    <contour>
      <point x="500" y="-3"/>
      <point x="622" y="131"/>
      <point x="622" y="310" type="curve" smooth="yes"/>
      <point x="622" y="439"/>
      <point x="537" y="520"/>
      <point x="402" y="520" type="curve" smooth="yes"/>
      <point x="231" y="520"/>
      <point x="113" y="384"/>
      <point x="114" y="205" type="curve" smooth="yes"/>
      <point x="115" y="75"/>
      <point x="192" y="-3"/>
      <point x="330" y="-3" type="curve" smooth="yes"/>
    </contour>
    <contour>
      <point x="205" y="16"/>
      <point x="130" y="86"/>
      <point x="130" y="208" type="curve" smooth="yes"/>
      <point x="130" y="377"/>
      <point x="244" y="501"/>
      <point x="399" y="501" type="curve" smooth="yes"/>
      <point x="527" y="501"/>
      <point x="602" y="431"/>
      <point x="602" y="309" type="curve" smooth="yes"/>
      <point x="602" y="141"/>
      <point x="488" y="16"/>
      <point x="333" y="16" type="curve" smooth="yes"/>
    </contour>
  </outline>
</glyph>
<glyph name="d" format="1">
  <advance width="671"/>
  <unicode hex="0064"/>
  <outline>
    <contour>
      <point x="440" y="-3"/>
      <point x="558" y="133"/>
      <point x="557" y="312" type="curve" smooth="yes"/>
      <point x="556" y="442"/>
      <point x="479" y="520"/>
      <point x="341" y="520" type="curve" smooth="yes"/>
      <point x="171" y="520"/>
      <point x="49" y="386"/>
      <point x="49" y="207" type="curve" smooth="yes"/>
      <point x="49" y="78"/>
      <point x="134" y="-3"/>
      <point x="269" y="-3" type="curve" smooth="yes"/>
    </contour>
    <contour>
      <point x="144" y="16"/>
      <point x="69" y="86"/>
      <point x="69" y="208" type="curve" smooth="yes"/>
      <point x="69" y="376"/>
      <point x="183" y="501"/>
      <point x="338" y="501" type="curve" smooth="yes"/>
      <point x="466" y="501"/>
      <point x="541" y="431"/>
      <point x="541" y="309" type="curve" smooth="yes"/>
      <point x="541" y="140"/>
      <point x="427" y="16"/>
      <point x="272" y="16" type="curve" smooth="yes"/>
    </contour>
    <contour>
      <point x="505" y="0" type="line"/>
      <point x="653" y="742" type="line"/>
      <point x="633" y="742" type="line"/>
      <point x="550" y="327" type="line"/>
      <point x="547" y="250" type="line"/>
      <point x="521" y="180" type="line"/>
      <point x="485" y="0" type="line"/>
    </contour>
    <contour>
      <point x="556" y="630" type="move" name="center"/>
    </contour>
    <contour>
      <point x="276" y="0" type="move" name="bottom"/>
    </contour>
    <contour>
      <point x="752" y="742" type="move" name="topright"/>
    </contour>
  </outline>
</glyph>
<glyph name="g" format="1">
  <advance width="677"/>
  <unicode hex="0067"/>
  <outline>
    <contour>
      <point x="400" y="-197"/>
      <point x="487" y="-125"/>
      <point x="521" y="46" type="curve" smooth="yes"/>
      <point x="615" y="517" type="line"/>
      <point x="595" y="517" type="line"/>
      <point x="558" y="329" type="line"/>
      <point x="556" y="269" type="line"/>
      <point x="534" y="209" type="line"/>
      <point x="501" y="43" type="line" smooth="yes"/>
      <point x="471" y="-110"/>
      <point x="387" y="-178"/>
      <point x="238" y="-178" type="curve" smooth="yes"/>
      <point x="152" y="-178"/>
      <point x="81" y="-150"/>
      <point x="39" y="-97" type="curve"/>
      <point x="21" y="-111" type="line"/>
      <point x="66" y="-165"/>
      <point x="143" y="-197"/>
      <point x="237" y="-197" type="curve" smooth="yes"/>
    </contour>
    <contour>
      <point x="446" y="17"/>
      <point x="565" y="148"/>
      <point x="564" y="318" type="curve" smooth="yes"/>
      <point x="563" y="445"/>
      <point x="483" y="520"/>
      <point x="345" y="520" type="curve" smooth="yes"/>
      <point x="174" y="520"/>
      <point x="51" y="391"/>
      <point x="51" y="219" type="curve" smooth="yes"/>
      <point x="51" y="94"/>
      <point x="136" y="17"/>
      <point x="274" y="17" type="curve" smooth="yes"/>
    </contour>
    <contour>
      <point x="147" y="36"/>
      <point x="71" y="103"/>
      <point x="71" y="220" type="curve" smooth="yes"/>
      <point x="71" y="381"/>
      <point x="186" y="501"/>
      <point x="343" y="501" type="curve" smooth="yes"/>
      <point x="472" y="501"/>
      <point x="548" y="434"/>
      <point x="548" y="317" type="curve" smooth="yes"/>
      <point x="548" y="155"/>
      <point x="433" y="36"/>
      <point x="276" y="36" type="curve" smooth="yes"/>
    </contour>
    <contour>
      <point x="366" y="517" type="move" name="top"/>
    </contour>
  </outline>
</glyph>
<glyph name="i" format="1">
  <advance width="250"/>
  <unicode hex="0069"/>
  <outline>
    <component base="idotless"/>
    <component base="dotaccentcomb.i" xOffset="-175"/>
    <contour>
      <point x="83" y="0" type="move" name="ogonek"/>
    </contour>
    <contour>
      <point x="73" y="0" type="move" name="bottom"/>
    </contour>
  </outline>
</glyph>
<glyph name="k" format="1">
  <advance width="557"/>
  <unicode hex="006B"/>
  <outline>
    <contour>
      <point x="297" y="299" type="line"/>
      <point x="311" y="310" type="line"/>
      <point x="580" y="517" type="line"/>
      <point x="548" y="517" type="line"/>
      <point x="109" y="178" type="line"/>
      <point x="107" y="153" type="line"/>
    </contour>
    <contour>
      <point x="83" y="0" type="line"/>
      <point x="231" y="742" type="line"/>
      <point x="211" y="742" type="line"/>
      <point x="63" y="0" type="line"/>
    </contour>
    <contour>
      <point x="500" y="0" type="line"/>
      <point x="309" y="316" type="line"/>
      <point x="293" y="304" type="line"/>
      <point x="476" y="0" type="line"/>
    </contour>
    <contour>
      <point x="221" y="742" type="move" name="top"/>
    </contour>
    <contour>
      <point x="255" y="0" type="move" name="bottom"/>
    </contour>
    <contour>
      <point x="274" y="517" type="move" name="topright"/>
    </contour>
  </outline>
</glyph>
<glyph name="l" format="1">
  <advance width="250"/>
  <unicode hex="006C"/>
  <outline>
    <contour>
      <point x="83" y="0" type="line"/>
      <point x="231" y="742" type="line"/>
      <point x="211" y="742" type="line"/>
      <point x="63" y="0" type="line"/>
    </contour>
    <contour>
      <point x="73" y="0" type="move" name="bottom"/>
    </contour>
    <contour>
      <point x="269" y="350" type="move" name="dot"/>
    </contour>
    <contour>
      <point x="221" y="742" type="move" name="top"/>
    </contour>
    <contour>
      <point x="331" y="742" type="move" name="topright"/>
    </contour>
    <contour>
      <point x="143" y="350" type="move" name="center"/>
    </contour>
  </outline>
</glyph>
<glyph name="n" format="1">
  <advance width="668"/>
  <unicode hex="006E"/>
  <outline>
    <contour>
      <point x="284" y="520"/>
      <point x="195" y="472"/>
      <point x="146" y="362" type="curve"/>
      <point x="156" y="367" type="line"/>
      <point x="186" y="517" type="line"/>
      <point x="166" y="517" type="line"/>
      <point x="63" y="0" type="line"/>
      <point x="83" y="0" type="line"/>
      <point x="140" y="287" type="line" smooth="yes"/>
      <point x="168" y="427"/>
      <point x="260" y="501"/>
      <point x="391" y="501" type="curve" smooth="yes"/>
      <point x="519" y="501"/>
      <point x="572" y="426"/>
      <point x="548" y="305" type="curve" smooth="yes"/>
      <point x="487" y="0" type="line"/>
      <point x="507" y="0" type="line"/>
      <point x="568" y="305" type="line" smooth="yes"/>
      <point x="593" y="431"/>
      <point x="536" y="520"/>
      <point x="393" y="520" type="curve" smooth="yes"/>
    </contour>
    <contour>
      <point x="386" y="517" type="move" name="top"/>
    </contour>
    <contour>
      <point x="283" y="0" type="move" name="bottom"/>
    </contour>
  </outline>
</glyph>
<glyph name="o" format="1">
  <advance width="610"/>
  <unicode hex="006F"/>
  <outline>
    <contour>
      <point x="439" y="-3"/>
      <point x="561" y="130"/>
      <point x="561" y="310" type="curve" smooth="yes"/>
      <point x="561" y="439"/>
      <point x="476" y="520"/>
      <point x="341" y="520" type="curve" smooth="yes"/>
      <point x="171" y="520"/>
      <point x="49" y="386"/>
      <point x="49" y="207" type="curve" smooth="yes"/>
      <point x="49" y="78"/>
      <point x="134" y="-3"/>
      <point x="269" y="-3" type="curve" smooth="yes"/>
    </contour>
    <contour>
      <point x="144" y="16"/>
      <point x="69" y="86"/>
      <point x="69" y="208" type="curve" smooth="yes"/>
      <point x="69" y="376"/>
      <point x="183" y="501"/>
      <point x="338" y="501" type="curve" smooth="yes"/>
      <point x="466" y="501"/>
      <point x="541" y="431"/>
      <point x="541" y="309" type="curve" smooth="yes"/>
      <point x="541" y="140"/>
      <point x="427" y="16"/>
      <point x="272" y="16" type="curve" smooth="yes"/>
    </contour>
    <contour>
      <point x="253" y="0" type="move" name="bottom"/>
    </contour>
    <contour>
      <point x="338" y="0" type="move" name="ogonek"/>
    </contour>
    <contour>
      <point x="356" y="517" type="move" name="top"/>
    </contour>
    <contour>
      <point x="518" y="518" type="move" name="topright"/>
    </contour>
    <contour>
      <point x="305" y="259" type="move" name="center"/>
    </contour>
  </outline>
</glyph>
<glyph name="q" format="1">
  <advance width="671"/>
  <unicode hex="0071"/>
  <outline>
    <contour>
      <point x="440" y="-3"/>
      <point x="558" y="133"/>
      <point x="557" y="312" type="curve" smooth="yes"/>
      <point x="556" y="442"/>
      <point x="479" y="520"/>
      <point x="341" y="520" type="curve" smooth="yes"/>
      <point x="171" y="520"/>
      <point x="49" y="386"/>
      <point x="49" y="207" type="curve" smooth="yes"/>
      <point x="49" y="78"/>
      <point x="134" y="-3"/>
      <point x="269" y="-3" type="curve" smooth="yes"/>
    </contour>
    <contour>
      <point x="144" y="16"/>
      <point x="69" y="86"/>
      <point x="69" y="208" type="curve" smooth="yes"/>
      <point x="69" y="376"/>
      <point x="183" y="501"/>
      <point x="338" y="501" type="curve" smooth="yes"/>
      <point x="466" y="501"/>
      <point x="541" y="431"/>
      <point x="541" y="309" type="curve" smooth="yes"/>
      <point x="541" y="140"/>
      <point x="427" y="16"/>
      <point x="272" y="16" type="curve" smooth="yes"/>
    </contour>
    <contour>
      <point x="466" y="-194" type="line"/>
      <point x="608" y="517" type="line"/>
      <point x="588" y="517" type="line"/>
      <point x="550" y="327" type="line"/>
      <point x="547" y="250" type="line"/>
      <point x="521" y="180" type="line"/>
      <point x="446" y="-194" type="line"/>
    </contour>
    <contour>
      <point x="356" y="517" type="move" name="top"/>
    </contour>
    <contour>
      <point x="253" y="0" type="move" name="bottom"/>
    </contour>
  </outline>
</glyph>
<glyph name="r" format="1">
  <advance width="383"/>
  <unicode hex="0072"/>
  <outline>
    <contour>
      <point x="83" y="0" type="line"/>
      <point x="137" y="270" type="line" smooth="yes"/>
      <point x="167" y="420"/>
      <point x="250" y="500"/>
      <point x="377" y="500" type="curve" smooth="yes"/>
      <point x="380" y="500"/>
      <point x="383" y="500"/>
      <point x="386" y="500" type="curve"/>
      <point x="390" y="520" type="line"/>
      <point x="268" y="520"/>
      <point x="192" y="461"/>
      <point x="149" y="362" type="curve"/>
      <point x="154" y="357" type="line"/>
      <point x="186" y="517" type="line"/>
      <point x="166" y="517" type="line"/>
      <point x="63" y="0" type="line"/>
    </contour>
    <contour>
      <point x="278" y="517" type="move" name="top"/>
    </contour>
    <contour>
      <point x="73" y="0" type="move" name="bottom"/>
    </contour>
  </outline>
</glyph>
<glyph name="s" format="1">
  <advance width="463"/>
  <unicode hex="0073"/>
  <outline>
    <contour>
      <point x="319" y="-3"/>
      <point x="401" y="53"/>
      <point x="401" y="145" type="curve" smooth="yes"/>
      <point x="401" y="316"/>
      <point x="94" y="219"/>
      <point x="94" y="372" type="curve" smooth="yes"/>
      <point x="94" y="450"/>
      <point x="166" y="501"/>
      <point x="277" y="501" type="curve" smooth="yes"/>
      <point x="334" y="501"/>
      <point x="391" y="484"/>
      <point x="428" y="452" type="curve"/>
      <point x="442" y="467" type="line"/>
      <point x="407" y="500"/>
      <point x="341" y="520"/>
      <point x="278" y="520" type="curve" smooth="yes"/>
      <point x="156" y="520"/>
      <point x="74" y="461"/>
      <point x="74" y="371" type="curve" smooth="yes"/>
      <point x="74" y="198"/>
      <point x="381" y="295"/>
      <point x="381" y="144" type="curve" smooth="yes"/>
      <point x="381" y="64"/>
      <point x="309" y="16"/>
      <point x="189" y="16" type="curve" smooth="yes"/>
      <point x="117" y="16"/>
      <point x="49" y="41"/>
      <point x="10" y="82" type="curve"/>
      <point x="-5" y="66" type="line"/>
      <point x="32" y="26"/>
      <point x="109" y="-3"/>
      <point x="188" y="-3" type="curve" smooth="yes"/>
    </contour>
    <contour>
      <point x="283" y="517" type="move" name="top"/>
    </contour>
    <contour>
      <point x="180" y="0" type="move" name="bottom"/>
    </contour>
  </outline>
</glyph>
<glyph name="t" format="1">
  <advance width="388"/>
  <unicode hex="0074"/>
  <outline>
    <contour>
      <point x="236" y="-3"/>
      <point x="276" y="9"/>
      <point x="304" y="34" type="curve"/>
      <point x="293" y="48" type="line"/>
      <point x="267" y="27"/>
      <point x="236" y="16"/>
      <point x="202" y="16" type="curve" smooth="yes"/>
      <point x="130" y="16"/>
      <point x="102" y="56"/>
      <point x="119" y="139" type="curve" smooth="yes"/>
      <point x="217" y="630" type="line"/>
      <point x="197" y="630" type="line"/>
      <point x="98" y="134" type="line" smooth="yes"/>
      <point x="81" y="48"/>
      <point x="117" y="-3"/>
      <point x="200" y="-3" type="curve" smooth="yes"/>
    </contour>
    <contour>
      <point x="366" y="498" type="line"/>
      <point x="369" y="517" type="line"/>
      <point x="74" y="517" type="line"/>
      <point x="71" y="498" type="line"/>
    </contour>
    <contour>
      <point x="189" y="0" type="move" name="bottom"/>
    </contour>
    <contour>
      <point x="207" y="630" type="move" name="top"/>
    </contour>
    <contour>
      <point x="344" y="742" type="move" name="topright"/>
    </contour>
    <contour>
      <point x="180" y="307" type="move" name="center"/>
    </contour>
  </outline>
</glyph>
<glyph name="u" format="1">
  <advance width="664"/>
  <unicode hex="0075"/>
  <outline>
    <contour>
      <point x="381" y="-3"/>
      <point x="469" y="45"/>
      <point x="518" y="155" type="curve"/>
      <point x="508" y="150" type="line"/>
      <point x="478" y="0" type="line"/>
      <point x="498" y="0" type="line"/>
      <point x="601" y="517" type="line"/>
      <point x="581" y="517" type="line"/>
      <point x="524" y="230" type="line" smooth="yes"/>
      <point x="496" y="90"/>
      <point x="405" y="16"/>
      <point x="275" y="16" type="curve" smooth="yes"/>
      <point x="148" y="16"/>
      <point x="96" y="91"/>
      <point x="120" y="212" type="curve" smooth="yes"/>
      <point x="181" y="517" type="line"/>
      <point x="161" y="517" type="line"/>
      <point x="100" y="212" type="line" smooth="yes"/>
      <point x="75" y="86"/>
      <point x="131" y="-3"/>
      <point x="273" y="-3" type="curve" smooth="yes"/>
    </contour>
    <contour>
      <point x="498" y="0" type="move" name="ogonek"/>
    </contour>
    <contour>
      <point x="381" y="517" type="move" name="top"/>
    </contour>
    <contour>
      <point x="591" y="517" type="move" name="topright"/>
    </contour>
    <contour>
      <point x="278" y="0" type="move" name="bottom"/>
    </contour>
  </outline>
</glyph>
<glyph name="v" format="1">
  <advance width="508"/>
  <unicode hex="0076"/>
  <outline>
    <contour>
      <point x="213" y="0" type="line"/>
      <point x="554" y="517" type="line"/>
      <point x="530" y="517" type="line"/>
      <point x="201" y="14" type="line"/>
      <point x="209" y="14" type="line"/>
      <point x="79" y="517" type="line"/>
      <point x="58" y="517" type="line"/>
      <point x="193" y="0" type="line"/>
    </contour>
    <contour>
      <point x="306" y="517" type="move" name="top"/>
    </contour>
    <contour>
      <point x="203" y="0" type="move" name="bottom"/>
    </contour>
  </outline>
</glyph>
<glyph name="w" format="1">
  <advance width="928"/>
  <unicode hex="0077"/>
  <outline>
    <contour>
      <point x="202" y="0" type="line"/>
      <point x="516" y="498" type="line"/>
      <point x="508" y="498" type="line"/>
      <point x="624" y="0" type="line"/>
      <point x="644" y="0" type="line"/>
      <point x="967" y="517" type="line"/>
      <point x="943" y="517" type="line"/>
      <point x="632" y="14" type="line"/>
      <point x="641" y="14" type="line"/>
      <point x="524" y="517" type="line"/>
      <point x="505" y="517" type="line"/>
      <point x="190" y="14" type="line"/>
      <point x="198" y="14" type="line"/>
      <point x="86" y="517" type="line"/>
      <point x="65" y="517" type="line"/>
      <point x="182" y="0" type="line"/>
    </contour>
    <contour>
      <point x="516" y="517" type="move" name="top"/>
    </contour>
    <contour>
      <point x="413" y="0" type="move" name="bottom"/>
    </contour>
  </outline>
</glyph>
<glyph name="x" format="1">
  <advance width="498"/>
  <unicode hex="0078"/>
  <outline>
    <contour>
      <point x="3" y="0" type="line"/>
      <point x="252" y="256" type="line"/>
      <point x="245" y="256" type="line"/>
      <point x="394" y="0" type="line"/>
      <point x="418" y="0" type="line"/>
      <point x="258" y="271" type="line"/>
      <point x="256" y="260" type="line"/>
      <point x="506" y="517" type="line"/>
      <point x="480" y="517" type="line"/>
      <point x="248" y="278" type="line"/>
      <point x="255" y="276" type="line"/>
      <point x="114" y="517" type="line"/>
      <point x="91" y="517" type="line"/>
      <point x="239" y="265" type="line"/>
      <point x="241" y="271" type="line"/>
      <point x="-24" y="0" type="line"/>
    </contour>
  </outline>
</glyph>
<glyph name="y" format="1">
  <advance width="508"/>
  <unicode hex="0079"/>
  <outline>
    <contour>
      <point x="57" y="-197"/>
      <point x="100" y="-173"/>
      <point x="155" y="-90" type="curve" smooth="yes"/>
      <point x="554" y="517" type="line"/>
      <point x="530" y="517" type="line"/>
      <point x="201" y="14" type="line"/>
      <point x="195" y="7" type="line"/>
      <point x="137" y="-81" type="line" smooth="yes"/>
      <point x="88" y="-156"/>
      <point x="48" y="-178"/>
      <point x="0" y="-178" type="curve" smooth="yes"/>
      <point x="-42" y="-178"/>
      <point x="-73" y="-165"/>
      <point x="-96" y="-136" type="curve"/>
      <point x="-112" y="-151" type="line"/>
      <point x="-89" y="-181"/>
      <point x="-47" y="-197"/>
      <point x="-3" y="-197" type="curve" smooth="yes"/>
    </contour>
    <contour>
      <point x="209" y="14" type="line"/>
      <point x="79" y="517" type="line"/>
      <point x="58" y="517" type="line"/>
      <point x="196" y="-11" type="line"/>
    </contour>
    <contour>
      <point x="290" y="517" type="move" name="top"/>
    </contour>
    <contour>
      <point x="290" y="0" type="move" name="bottom"/>
    </contour>
  </outline>
</glyph>
<glyph name="z" format="1">
  <advance width="491"/>
  <unicode hex="007A"/>
  <outline>
    <contour>
      <point x="391" y="0" type="line"/>
      <point x="395" y="19" type="line"/>
      <point x="9" y="19" type="line"/>
      <point x="23" y="13" type="line"/>
      <point x="486" y="502" type="line"/>
      <point x="489" y="517" type="line"/>
      <point x="102" y="517" type="line"/>
      <point x="99" y="498" type="line"/>
      <point x="471" y="498" type="line"/>
      <point x="460" y="504" type="line"/>
      <point x="-3" y="15" type="line"/>
      <point x="-6" y="0" type="line"/>
    </contour>
    <contour>
      <point x="296" y="517" type="move" name="top"/>
    </contour>
    <contour>
      <point x="203" y="0" type="move" name="bottom"/>
    </contour>
  </outline>
</glyph>
<glyph name="braceleft" format="1">
  <advance width="300"/>
  <unicode hex="007B"/>
  <outline>
    <contour>
      <point x="184" y="-194" type="line"/>
      <point x="188" y="-175" type="line"/>
      <point x="156" y="-175" type="line" smooth="yes"/>
      <point x="112" y="-175"/>
      <point x="82" y="-150"/>
      <point x="96" y="-82" type="curve" smooth="yes"/>
      <point x="155" y="212" type="line" smooth="yes"/>
      <point x="163" y="252"/>
      <point x="150" y="268"/>
      <point x="131" y="275" type="curve"/>
      <point x="130" y="271" type="line"/>
      <point x="158" y="278"/>
      <point x="172" y="296"/>
      <point x="180" y="336" type="curve" smooth="yes"/>
      <point x="243" y="650" type="line" smooth="yes"/>
      <point x="252" y="693"/>
      <point x="281" y="723"/>
      <point x="335" y="723" type="curve" smooth="yes"/>
      <point x="367" y="723" type="line"/>
      <point x="371" y="742" type="line"/>
      <point x="346" y="742" type="line" smooth="yes"/>
      <point x="272" y="742"/>
      <point x="235" y="710"/>
      <point x="223" y="650" type="curve" smooth="yes"/>
      <point x="160" y="336" type="line" smooth="yes"/>
      <point x="153" y="299"/>
      <point x="138" y="284"/>
      <point x="105" y="284" type="curve" smooth="yes"/>
      <point x="70" y="284" type="line"/>
      <point x="66" y="265" type="line"/>
      <point x="101" y="265" type="line" smooth="yes"/>
      <point x="130" y="265"/>
      <point x="142" y="249"/>
      <point x="135" y="212" type="curve" smooth="yes"/>
      <point x="76" y="-82" type="line" smooth="yes"/>
      <point x="60" y="-162"/>
      <point x="100" y="-194"/>
      <point x="159" y="-194" type="curve" smooth="yes"/>
    </contour>
  </outline>
</glyph>
<glyph name="bar" format="1">
  <advance width="286"/>
  <unicode hex="007C"/>
  <outline>
    <contour>
      <point x="63" y="-194" type="line"/>
      <point x="250" y="742" type="line"/>
      <point x="230" y="742" type="line"/>
      <point x="43" y="-194" type="line"/>
    </contour>
  </outline>
</glyph>
<glyph name="asciitilde" format="1">
  <advance width="560"/>
  <unicode hex="007E"/>
  <outline>
    <contour>
      <point x="455" y="286"/>
      <point x="502" y="333"/>
      <point x="521" y="411" type="curve"/>
      <point x="502" y="411" type="line"/>
      <point x="487" y="346"/>
      <point x="446" y="304"/>
      <point x="391" y="304" type="curve" smooth="yes"/>
      <point x="311" y="304"/>
      <point x="301" y="414"/>
      <point x="206" y="414" type="curve" smooth="yes"/>
      <point x="141" y="414"/>
      <point x="94" y="367"/>
      <point x="75" y="289" type="curve"/>
      <point x="94" y="289" type="line"/>
      <point x="109" y="354"/>
      <point x="150" y="396"/>
      <point x="205" y="396" type="curve" smooth="yes"/>
      <point x="285" y="396"/>
      <point x="295" y="286"/>
      <point x="390" y="286" type="curve" smooth="yes"/>
    </contour>
  </outline>
</glyph>
<glyph name="exclamdown" format="1">
  <advance width="242"/>
  <unicode hex="00A1"/>
  <outline>
    <contour>
      <point x="128" y="329" type="line"/>
      <point x="27" y="-154" type="line"/>
      <point x="49" y="-154" type="line"/>
      <point x="142" y="329" type="line"/>
    </contour>
    <contour>
      <point x="182" y="468"/>
      <point x="194" y="480"/>
      <point x="194" y="494" type="curve" smooth="yes"/>
      <point x="194" y="508"/>
      <point x="182" y="520"/>
      <point x="168" y="520" type="curve" smooth="yes"/>
      <point x="154" y="520"/>
      <point x="142" y="508"/>
      <point x="142" y="494" type="curve" smooth="yes"/>
      <point x="142" y="480"/>
      <point x="154" y="468"/>
      <point x="168" y="468" type="curve" smooth="yes"/>
    </contour>
  </outline>
</glyph>
<glyph name="cent" format="1">
  <advance width="545"/>
  <unicode hex="00A2"/>
  <outline>
    <contour>
      <point x="236" y="-120" type="line"/>
      <point x="387" y="637" type="line"/>
      <point x="368" y="637" type="line"/>
      <point x="217" y="-120" type="line"/>
    </contour>
    <contour>
      <point x="354" y="-3"/>
      <point x="429" y="27"/>
      <point x="472" y="80" type="curve"/>
      <point x="460" y="94" type="line"/>
      <point x="419" y="45"/>
      <point x="351" y="16"/>
      <point x="277" y="16" type="curve" smooth="yes"/>
      <point x="144" y="16"/>
      <point x="69" y="86"/>
      <point x="69" y="208" type="curve" smooth="yes"/>
      <point x="69" y="376"/>
      <point x="183" y="501"/>
      <point x="341" y="501" type="curve" smooth="yes"/>
      <point x="420" y="501"/>
      <point x="477" y="475"/>
      <point x="512" y="421" type="curve"/>
      <point x="527" y="433" type="line"/>
      <point x="493" y="490"/>
      <point x="428" y="520"/>
      <point x="342" y="520" type="curve" smooth="yes"/>
      <point x="172" y="520"/>
      <point x="49" y="388"/>
      <point x="49" y="207" type="curve" smooth="yes"/>
      <point x="49" y="78"/>
      <point x="134" y="-3"/>
      <point x="274" y="-3" type="curve" smooth="yes"/>
    </contour>
  </outline>
</glyph>
<glyph name="sterling" format="1">
  <advance width="618"/>
  <unicode hex="00A3"/>
  <outline>
    <contour>
      <point x="120" y="10" type="line"/>
      <point x="214" y="479" type="line" smooth="yes"/>
      <point x="242" y="619"/>
      <point x="332" y="684"/>
      <point x="478" y="684" type="curve" smooth="yes"/>
      <point x="554" y="684"/>
      <point x="616" y="667"/>
      <point x="659" y="626" type="curve"/>
      <point x="674" y="642" type="line"/>
      <point x="630" y="684"/>
      <point x="558" y="703"/>
      <point x="478" y="703" type="curve" smooth="yes"/>
      <point x="325" y="703"/>
      <point x="224" y="631"/>
      <point x="194" y="482" type="curve" smooth="yes"/>
      <point x="100" y="10" type="line"/>
    </contour>
    <contour>
      <point x="538" y="0" type="line"/>
      <point x="542" y="19" type="line"/>
      <point x="-18" y="19" type="line"/>
      <point x="-22" y="0" type="line"/>
    </contour>
    <contour>
      <point x="485" y="341" type="line"/>
      <point x="489" y="359" type="line"/>
      <point x="50" y="359" type="line"/>
      <point x="46" y="341" type="line"/>
    </contour>
  </outline>
</glyph>
<glyph name="currency" format="1">
  <advance width="700"/>
  <unicode hex="00A4"/>
  <outline>
    <contour>
      <point x="517" y="46"/>
      <point x="644" y="168"/>
      <point x="644" y="316" type="curve" smooth="yes"/>
      <point x="644" y="466"/>
      <point x="517" y="589"/>
      <point x="361" y="589" type="curve" smooth="yes"/>
      <point x="207" y="589"/>
      <point x="81" y="466"/>
      <point x="81" y="316" type="curve" smooth="yes"/>
      <point x="81" y="168"/>
      <point x="207" y="46"/>
      <point x="361" y="46" type="curve" smooth="yes"/>
    </contour>
    <contour>
      <point x="185" y="127" type="line"/>
      <point x="170" y="141" type="line"/>
      <point x="50" y="20" type="line"/>
      <point x="64" y="6" type="line"/>
    </contour>
    <contour>
      <point x="672" y="20" type="line"/>
      <point x="552" y="141" type="line"/>
      <point x="537" y="127" type="line"/>
      <point x="658" y="6" type="line"/>
    </contour>
    <contour>
      <point x="185" y="508" type="line"/>
      <point x="64" y="629" type="line"/>
      <point x="50" y="615" type="line"/>
      <point x="170" y="494" type="line"/>
    </contour>
    <contour>
      <point x="218" y="66"/>
      <point x="101" y="179"/>
      <point x="101" y="316" type="curve" smooth="yes"/>
      <point x="101" y="455"/>
      <point x="218" y="569"/>
      <point x="361" y="569" type="curve" smooth="yes"/>
      <point x="506" y="569"/>
      <point x="624" y="455"/>
      <point x="624" y="316" type="curve" smooth="yes"/>
      <point x="624" y="179"/>
      <point x="506" y="66"/>
      <point x="361" y="66" type="curve" smooth="yes"/>
    </contour>
    <contour>
      <point x="672" y="615" type="line"/>
      <point x="658" y="629" type="line"/>
      <point x="537" y="508" type="line"/>
      <point x="552" y="494" type="line"/>
    </contour>
  </outline>
</glyph>
<glyph name="brokenbar" format="1">
  <advance width="286"/>
  <unicode hex="00A6"/>
  <outline>
    <contour>
      <point x="180" y="392" type="line"/>
      <point x="250" y="742" type="line"/>
      <point x="230" y="742" type="line"/>
      <point x="160" y="392" type="line"/>
    </contour>
    <contour>
      <point x="63" y="-194" type="line"/>
      <point x="133" y="156" type="line"/>
      <point x="113" y="156" type="line"/>
      <point x="43" y="-194" type="line"/>
    </contour>
  </outline>
</glyph>
<glyph name="copyright" format="1">
  <advance width="824"/>
  <unicode hex="00A9"/>
  <outline>
    <contour>
      <point x="628" y="-3"/>
      <point x="783" y="153"/>
      <point x="783" y="352" type="curve" smooth="yes"/>
      <point x="783" y="551"/>
      <point x="632" y="703"/>
      <point x="431" y="703" type="curve" smooth="yes"/>
      <point x="230" y="703"/>
      <point x="77" y="547"/>
      <point x="77" y="350" type="curve" smooth="yes"/>
      <point x="77" y="153"/>
      <point x="230" y="-3"/>
      <point x="429" y="-3" type="curve" smooth="yes"/>
    </contour>
    <contour>
      <point x="241" y="16"/>
      <point x="96" y="164"/>
      <point x="96" y="350" type="curve" smooth="yes"/>
      <point x="96" y="536"/>
      <point x="241" y="684"/>
      <point x="431" y="684" type="curve" smooth="yes"/>
      <point x="621" y="684"/>
      <point x="764" y="540"/>
      <point x="764" y="352" type="curve" smooth="yes"/>
      <point x="764" y="164"/>
      <point x="617" y="16"/>
      <point x="429" y="16" type="curve" smooth="yes"/>
    </contour>
    <contour>
      <point x="497" y="139"/>
      <point x="552" y="162"/>
      <point x="588" y="207" type="curve"/>
      <point x="573" y="222" type="line"/>
      <point x="541" y="179"/>
      <point x="491" y="158"/>
      <point x="436" y="158" type="curve" smooth="yes"/>
      <point x="330" y="158"/>
      <point x="252" y="236"/>
      <point x="252" y="350" type="curve" smooth="yes"/>
      <point x="252" y="464"/>
      <point x="330" y="542"/>
      <point x="436" y="542" type="curve" smooth="yes"/>
      <point x="491" y="542"/>
      <point x="541" y="521"/>
      <point x="573" y="478" type="curve"/>
      <point x="588" y="493" type="line"/>
      <point x="552" y="538"/>
      <point x="497" y="561"/>
      <point x="437" y="561" type="curve" smooth="yes"/>
      <point x="319" y="561"/>
      <point x="232" y="474"/>
      <point x="232" y="350" type="curve" smooth="yes"/>
      <point x="232" y="226"/>
      <point x="319" y="139"/>
      <point x="437" y="139" type="curve" smooth="yes"/>
    </contour>
  </outline>
</glyph>
<glyph name="logicalnot" format="1">
  <advance width="560"/>
  <unicode hex="00AC"/>
  <outline>
    <contour>
      <point x="95" y="359" type="line"/>
      <point x="91" y="340" type="line"/>
      <point x="482" y="340" type="line"/>
      <point x="446" y="159" type="line"/>
      <point x="466" y="159" type="line"/>
      <point x="506" y="359" type="line"/>
    </contour>
  </outline>
</glyph>
<glyph name="registered" format="1">
  <advance width="824"/>
  <unicode hex="00AE"/>
  <outline>
    <contour>
      <point x="628" y="-3"/>
      <point x="783" y="153"/>
      <point x="783" y="352" type="curve" smooth="yes"/>
      <point x="783" y="551"/>
      <point x="632" y="703"/>
      <point x="431" y="703" type="curve" smooth="yes"/>
      <point x="230" y="703"/>
      <point x="77" y="547"/>
      <point x="77" y="350" type="curve" smooth="yes"/>
      <point x="77" y="153"/>
      <point x="230" y="-3"/>
      <point x="429" y="-3" type="curve" smooth="yes"/>
    </contour>
    <contour>
      <point x="604" y="142" type="line"/>
      <point x="499" y="304" type="line"/>
      <point x="475" y="304" type="line"/>
      <point x="580" y="142" type="line"/>
    </contour>
    <contour>
      <point x="241" y="16"/>
      <point x="96" y="164"/>
      <point x="96" y="350" type="curve" smooth="yes"/>
      <point x="96" y="536"/>
      <point x="241" y="684"/>
      <point x="431" y="684" type="curve" smooth="yes"/>
      <point x="621" y="684"/>
      <point x="764" y="540"/>
      <point x="764" y="352" type="curve" smooth="yes"/>
      <point x="764" y="164"/>
      <point x="617" y="16"/>
      <point x="429" y="16" type="curve" smooth="yes"/>
    </contour>
    <contour>
      <point x="321" y="142" type="line"/>
      <point x="321" y="292" type="line"/>
      <point x="451" y="292" type="line" smooth="yes"/>
      <point x="545" y="292"/>
      <point x="604" y="344"/>
      <point x="604" y="425" type="curve" smooth="yes"/>
      <point x="604" y="506"/>
      <point x="545" y="558"/>
      <point x="451" y="558" type="curve" smooth="yes"/>
      <point x="301" y="558" type="line"/>
      <point x="301" y="142" type="line"/>
    </contour>
    <contour>
      <point x="320" y="539" type="line"/>
      <point x="449" y="539" type="line" smooth="yes"/>
      <point x="534" y="539"/>
      <point x="584" y="497"/>
      <point x="584" y="425" type="curve" smooth="yes"/>
      <point x="584" y="353"/>
      <point x="534" y="311"/>
      <point x="449" y="311" type="curve" smooth="yes"/>
      <point x="320" y="311" type="line"/>
    </contour>
  </outline>
</glyph>
<glyph name="degree" format="1">
  <advance width="420"/>
  <unicode hex="00B0"/>
  <outline>
    <contour>
      <point x="352" y="403"/>
      <point x="419" y="469"/>
      <point x="419" y="553" type="curve" smooth="yes"/>
      <point x="419" y="637"/>
      <point x="352" y="703"/>
      <point x="269" y="703" type="curve" smooth="yes"/>
      <point x="186" y="703"/>
      <point x="119" y="637"/>
      <point x="119" y="553" type="curve" smooth="yes"/>
      <point x="119" y="469"/>
      <point x="186" y="403"/>
      <point x="269" y="403" type="curve" smooth="yes"/>
    </contour>
    <contour>
      <point x="195" y="421"/>
      <point x="138" y="480"/>
      <point x="138" y="553" type="curve" smooth="yes"/>
      <point x="138" y="626"/>
      <point x="195" y="685"/>
      <point x="269" y="685" type="curve" smooth="yes"/>
      <point x="343" y="685"/>
      <point x="400" y="626"/>
      <point x="400" y="553" type="curve" smooth="yes"/>
      <point x="400" y="480"/>
      <point x="343" y="421"/>
      <point x="269" y="421" type="curve" smooth="yes"/>
    </contour>
  </outline>
</glyph>
<glyph name="plusminus" format="1">
  <advance width="560"/>
  <unicode hex="00B1"/>
  <outline>
    <contour>
      <point x="433" y="0" type="line"/>
      <point x="437" y="19" type="line"/>
      <point x="27" y="19" type="line"/>
      <point x="23" y="0" type="line"/>
    </contour>
    <contour>
      <point x="268" y="150" type="line"/>
      <point x="348" y="550" type="line"/>
      <point x="328" y="550" type="line"/>
      <point x="248" y="150" type="line"/>
    </contour>
    <contour>
      <point x="502" y="340" type="line"/>
      <point x="506" y="359" type="line"/>
      <point x="95" y="359" type="line"/>
      <point x="91" y="340" type="line"/>
    </contour>
  </outline>
</glyph>
<glyph name="paragraph" format="1">
  <advance width="600"/>
  <unicode hex="00B6"/>
  <outline>
    <contour>
      <point x="173" y="-100" type="line"/>
      <point x="337" y="723" type="line"/>
      <point x="539" y="723" type="line"/>
      <point x="375" y="-100" type="line"/>
      <point x="395" y="-100" type="line"/>
      <point x="563" y="742" type="line"/>
      <point x="321" y="742" type="line" smooth="yes"/>
      <point x="188" y="742"/>
      <point x="110" y="688"/>
      <point x="91" y="595" type="curve" smooth="yes"/>
      <point x="69" y="482"/>
      <point x="146" y="419"/>
      <point x="257" y="419" type="curve"/>
      <point x="153" y="-100" type="line"/>
    </contour>
  </outline>
</glyph>
<glyph name="periodcentered" format="1">
  <advance width="222"/>
  <unicode hex="00B7"/>
  <outline>
    <contour>
      <point x="126" y="238"/>
      <point x="138" y="250"/>
      <point x="138" y="264" type="curve" smooth="yes"/>
      <point x="138" y="278"/>
      <point x="126" y="290"/>
      <point x="112" y="290" type="curve" smooth="yes"/>
      <point x="98" y="290"/>
      <point x="86" y="278"/>
      <point x="86" y="264" type="curve" smooth="yes"/>
      <point x="86" y="250"/>
      <point x="98" y="238"/>
      <point x="112" y="238" type="curve" smooth="yes"/>
    </contour>
  </outline>
</glyph>
<glyph name="ordmasculine" format="1">
  <advance width="407"/>
  <unicode hex="00BA"/>
  <outline>
    <contour>
      <point x="356" y="432"/>
      <point x="434" y="511"/>
      <point x="434" y="612" type="curve" smooth="yes"/>
      <point x="434" y="692"/>
      <point x="377" y="744"/>
      <point x="292" y="744" type="curve" smooth="yes"/>
      <point x="182" y="744"/>
      <point x="104" y="665"/>
      <point x="104" y="564" type="curve" smooth="yes"/>
      <point x="104" y="484"/>
      <point x="161" y="432"/>
      <point x="247" y="432" type="curve" smooth="yes"/>
    </contour>
    <contour>
      <point x="174" y="450"/>
      <point x="123" y="495"/>
      <point x="123" y="564" type="curve" smooth="yes"/>
      <point x="123" y="653"/>
      <point x="192" y="726"/>
      <point x="290" y="726" type="curve" smooth="yes"/>
      <point x="364" y="726"/>
      <point x="415" y="681"/>
      <point x="415" y="612" type="curve" smooth="yes"/>
      <point x="415" y="523"/>
      <point x="346" y="450"/>
      <point x="249" y="450" type="curve" smooth="yes"/>
    </contour>
  </outline>
</glyph>
<glyph name="AE" format="1">
  <advance width="1005"/>
  <unicode hex="00C6"/>
  <outline>
    <contour>
      <point x="-18" y="0" type="line"/>
      <point x="553" y="685" type="line"/>
      <point x="537" y="681" type="line"/>
      <point x="559" y="681" type="line"/>
      <point x="563" y="700" type="line"/>
      <point x="540" y="700" type="line"/>
      <point x="-43" y="0" type="line"/>
    </contour>
    <contour>
      <point x="465" y="211" type="line"/>
      <point x="469" y="230" type="line"/>
      <point x="157" y="230" type="line"/>
      <point x="143" y="211" type="line"/>
    </contour>
    <contour>
      <point x="884" y="0" type="line"/>
      <point x="888" y="19" type="line"/>
      <point x="442" y="19" type="line"/>
      <point x="574" y="681" type="line"/>
      <point x="1005" y="681" type="line"/>
      <point x="1009" y="700" type="line"/>
      <point x="558" y="700" type="line"/>
      <point x="418" y="0" type="line"/>
    </contour>
    <contour>
      <point x="893" y="346" type="line"/>
      <point x="897" y="365" type="line"/>
      <point x="506" y="365" type="line"/>
      <point x="502" y="346" type="line"/>
    </contour>
    <contour>
      <point x="568" y="700" type="move" name="top"/>
    </contour>
    <contour>
      <point x="428" y="0" type="move" name="bottom"/>
    </contour>
  </outline>
</glyph>
<glyph name="multiply" format="1">
  <advance width="560"/>
  <unicode hex="00D7"/>
  <outline>
    <contour>
      <point x="146" y="198" type="line"/>
      <point x="462" y="488" type="line"/>
      <point x="450" y="502" type="line"/>
      <point x="134" y="212" type="line"/>
    </contour>
    <contour>
      <point x="417" y="198" type="line"/>
      <point x="431" y="211" type="line"/>
      <point x="179" y="502" type="line"/>
      <point x="165" y="489" type="line"/>
    </contour>
  </outline>
</glyph>
<glyph name="Oslash" format="1">
  <advance width="836"/>
  <unicode hex="00D8"/>
  <outline>
    <component base="O"/>
    <component base="slashlongcomb.case" xOffset="9"/>
    <contour>
      <point x="506" y="700" type="move" name="top"/>
    </contour>
    <contour>
      <point x="366" y="0" type="move" name="bottom"/>
    </contour>
  </outline>
</glyph>
<glyph name="Thorn" format="1">
  <advance width="710"/>
  <unicode hex="00DE"/>
  <outline>
    <contour>
      <point x="353" y="139" type="line" smooth="yes"/>
      <point x="548" y="139"/>
      <point x="670" y="233"/>
      <point x="670" y="413" type="curve" smooth="yes"/>
      <point x="670" y="532"/>
      <point x="584" y="599"/>
      <point x="436" y="599" type="curve" smooth="yes"/>
      <point x="212" y="599" type="line"/>
      <point x="208" y="580" type="line"/>
      <point x="437" y="580" type="line" smooth="yes"/>
      <point x="574" y="580"/>
      <point x="650" y="520"/>
      <point x="650" y="413" type="curve" smooth="yes"/>
      <point x="650" y="244"/>
      <point x="541" y="158"/>
      <point x="352" y="158" type="curve" smooth="yes"/>
      <point x="124" y="158" type="line"/>
      <point x="120" y="139" type="line"/>
    </contour>
    <contour>
      <point x="101" y="0" type="line"/>
      <point x="241" y="699" type="line"/>
      <point x="221" y="699" type="line"/>
      <point x="81" y="0" type="line"/>
    </contour>
  </outline>
</glyph>
<glyph name="divide" format="1">
  <advance width="560"/>
  <unicode hex="00F7"/>
  <outline>
    <contour>
      <point x="502" y="340" type="line"/>
      <point x="506" y="359" type="line"/>
      <point x="95" y="359" type="line"/>
      <point x="91" y="340" type="line"/>
    </contour>
    <contour>
      <point x="276" y="144"/>
      <point x="288" y="156"/>
      <point x="288" y="170" type="curve" smooth="yes"/>
      <point x="288" y="184"/>
      <point x="276" y="196"/>
      <point x="262" y="196" type="curve" smooth="yes"/>
      <point x="248" y="196"/>
      <point x="236" y="184"/>
      <point x="236" y="170" type="curve" smooth="yes"/>
      <point x="236" y="156"/>
      <point x="248" y="144"/>
      <point x="262" y="144" type="curve" smooth="yes"/>
    </contour>
    <contour>
      <point x="348" y="504"/>
      <point x="360" y="516"/>
      <point x="360" y="530" type="curve" smooth="yes"/>
      <point x="360" y="544"/>
      <point x="348" y="556"/>
      <point x="334" y="556" type="curve" smooth="yes"/>
      <point x="320" y="556"/>
      <point x="308" y="544"/>
      <point x="308" y="530" type="curve" smooth="yes"/>
      <point x="308" y="516"/>
      <point x="320" y="504"/>
      <point x="334" y="504" type="curve" smooth="yes"/>
    </contour>
  </outline>
</glyph>
<glyph name="oslash" format="1">
  <advance width="610"/>
  <unicode hex="00F8"/>
  <outline>
    <component base="o"/>
    <component base="slashlongcomb" xOffset="2" yOffset="1"/>
    <contour>
      <point x="356" y="517" type="move" name="top"/>
    </contour>
  </outline>
</glyph>
<glyph name="Dcroat" format="1">
  <advance width="826"/>
  <unicode hex="0110"/>
  <outline>
    <component base="Eth"/>
    <contour>
      <point x="224" y="350" type="move" name="center"/>
    </contour>
    <contour>
      <point x="369" y="0" type="move" name="bottom"/>
    </contour>
    <contour>
      <point x="474" y="699" type="move" name="top"/>
    </contour>
  </outline>
</glyph>
<glyph name="idotless" format="1">
  <advance width="250"/>
  <unicode hex="0131"/>
  <outline>
    <contour>
      <point x="83" y="0" type="line"/>
      <point x="186" y="517" type="line"/>
      <point x="166" y="517" type="line"/>
      <point x="63" y="0" type="line"/>
    </contour>
    <contour>
      <point x="83" y="0" type="move" name="ogonek"/>
    </contour>
    <contour>
      <point x="73" y="0" type="move" name="bottom"/>
    </contour>
    <contour>
      <point x="176" y="517" type="move" name="top"/>
    </contour>
  </outline>
</glyph>
<glyph name="IJ" format="1">
  <advance width="714"/>
  <unicode hex="0132"/>
  <outline>
    <contour>
      <point x="456" y="-3"/>
      <point x="553" y="91"/>
      <point x="593" y="290" type="curve" smooth="yes"/>
      <point x="675" y="700" type="line"/>
      <point x="655" y="700" type="line"/>
      <point x="574" y="294" type="line" smooth="yes"/>
      <point x="536" y="103"/>
      <point x="445" y="16"/>
      <point x="289" y="16" type="curve" smooth="yes"/>
      <point x="210" y="16"/>
      <point x="143" y="40"/>
      <point x="94" y="78" type="curve"/>
      <point x="81" y="61" type="line"/>
      <point x="130" y="24"/>
      <point x="201" y="-3"/>
      <point x="289" y="-3" type="curve" smooth="yes"/>
    </contour>
    <contour>
      <point x="153" y="290" type="line"/>
      <point x="235" y="700" type="line"/>
      <point x="215" y="700" type="line"/>
      <point x="133" y="290" type="line"/>
    </contour>
    <contour>
      <point x="255" y="700" type="move" name="top"/>
    </contour>
  </outline>
</glyph>
<glyph name="Eng" format="1">
  <advance width="816"/>
  <unicode hex="014A"/>
  <outline>
    <contour>
      <point x="101" y="0" type="line"/>
      <point x="236" y="677" type="line"/>
      <point x="228" y="677" type="line"/>
      <point x="614" y="0" type="line"/>
      <point x="624" y="23" type="line"/>
      <point x="238" y="700" type="line"/>
      <point x="221" y="700" type="line"/>
      <point x="81" y="0" type="line"/>
    </contour>
    <contour>
      <point x="537" y="-197"/>
      <point x="602" y="-145"/>
      <point x="630" y="-4" type="curve" smooth="yes"/>
      <point x="771" y="700" type="line"/>
      <point x="751" y="700" type="line"/>
      <point x="611" y="2" type="line" smooth="yes"/>
      <point x="584" y="-131"/>
      <point x="527" y="-178"/>
      <point x="434" y="-178" type="curve" smooth="yes"/>
      <point x="361" y="-178"/>
      <point x="307" y="-143"/>
      <point x="282" y="-88" type="curve"/>
      <point x="264" y="-98" type="line"/>
      <point x="289" y="-157"/>
      <point x="352" y="-197"/>
      <point x="431" y="-197" type="curve" smooth="yes"/>
    </contour>
  </outline>
</glyph>
<glyph name="OE" format="1">
  <advance width="1112"/>
  <unicode hex="0152"/>
  <outline>
    <contour>
      <point x="531" y="0" type="line"/>
      <point x="535" y="19" type="line"/>
      <point x="394" y="19" type="line" smooth="yes"/>
      <point x="191" y="19"/>
      <point x="91" y="124"/>
      <point x="91" y="280" type="curve" smooth="yes"/>
      <point x="91" y="513"/>
      <point x="252" y="681"/>
      <point x="505" y="681" type="curve" smooth="yes"/>
      <point x="667" y="681" type="line"/>
      <point x="671" y="700" type="line"/>
      <point x="507" y="700" type="line" smooth="yes"/>
      <point x="240" y="700"/>
      <point x="71" y="523"/>
      <point x="71" y="280" type="curve" smooth="yes"/>
      <point x="71" y="113"/>
      <point x="183" y="0"/>
      <point x="392" y="0" type="curve" smooth="yes"/>
    </contour>
    <contour>
      <point x="991" y="0" type="line"/>
      <point x="995" y="19" type="line"/>
      <point x="549" y="19" type="line"/>
      <point x="681" y="681" type="line"/>
      <point x="1112" y="681" type="line"/>
      <point x="1116" y="700" type="line"/>
      <point x="665" y="700" type="line"/>
      <point x="525" y="0" type="line"/>
    </contour>
    <contour>
      <point x="1000" y="346" type="line"/>
      <point x="1004" y="365" type="line"/>
      <point x="613" y="365" type="line"/>
      <point x="609" y="346" type="line"/>
    </contour>
    <contour>
      <point x="675" y="700" type="move" name="top"/>
    </contour>
    <contour>
      <point x="535" y="0" type="move" name="bottom"/>
    </contour>
  </outline>
</glyph>
<glyph name="Ohorn" format="1">
  <advance width="836"/>
  <unicode hex="01A0"/>
  <outline>
    <contour>
      <point x="644" y="-3"/>
      <point x="802" y="196"/>
      <point x="802" y="420" type="curve" smooth="yes"/>
      <point x="802" y="540"/>
      <point x="746" y="632"/>
      <point x="640" y="675" type="curve"/>
      <point x="637" y="674" type="line"/>
      <point x="661" y="671"/>
      <point x="685" y="669"/>
      <point x="721" y="669" type="curve" smooth="yes"/>
      <point x="807" y="669"/>
      <point x="855" y="706"/>
      <point x="855" y="771" type="curve" smooth="yes"/>
      <point x="855" y="797"/>
      <point x="846" y="825"/>
      <point x="833" y="845" type="curve"/>
      <point x="815" y="837" type="line"/>
      <point x="826" y="818"/>
      <point x="835" y="796"/>
      <point x="835" y="770" type="curve" smooth="yes"/>
      <point x="835" y="719"/>
      <point x="795" y="688"/>
      <point x="722" y="688" type="curve" smooth="yes"/>
      <point x="646" y="688"/>
      <point x="592" y="703"/>
      <point x="487" y="703" type="curve" smooth="yes"/>
      <point x="229" y="703"/>
      <point x="71" y="504"/>
      <point x="71" y="280" type="curve" smooth="yes"/>
      <point x="71" y="111"/>
      <point x="182" y="-3"/>
      <point x="386" y="-3" type="curve" smooth="yes"/>
    </contour>
    <contour>
      <point x="192" y="16"/>
      <point x="91" y="123"/>
      <point x="91" y="280" type="curve" smooth="yes"/>
      <point x="91" y="499"/>
      <point x="246" y="684"/>
      <point x="485" y="684" type="curve" smooth="yes"/>
      <point x="681" y="684"/>
      <point x="782" y="577"/>
      <point x="782" y="420" type="curve" smooth="yes"/>
      <point x="782" y="201"/>
      <point x="627" y="16"/>
      <point x="388" y="16" type="curve" smooth="yes"/>
    </contour>
    <contour>
      <point x="506" y="700" type="move" name="top"/>
    </contour>
    <contour>
      <point x="366" y="0" type="move" name="bottom"/>
    </contour>
  </outline>
</glyph>
<glyph name="oogonek" format="1">
  <advance width="610"/>
  <unicode hex="01EB"/>
  <outline>
    <contour>
      <point x="268" y="-213"/>
      <point x="296" y="-204"/>
      <point x="319" y="-186" type="curve"/>
      <point x="311" y="-169" type="line"/>
      <point x="291" y="-185"/>
      <point x="265" y="-194"/>
      <point x="240" y="-194" type="curve" smooth="yes"/>
      <point x="204" y="-194"/>
      <point x="183" y="-176"/>
      <point x="183" y="-142" type="curve" smooth="yes"/>
      <point x="183" y="-86"/>
      <point x="240" y="-33"/>
      <point x="370" y="14" type="curve" smooth="yes"/>
      <point x="486" y="56"/>
      <point x="561" y="169"/>
      <point x="561" y="310" type="curve" smooth="yes"/>
      <point x="561" y="439"/>
      <point x="476" y="520"/>
      <point x="341" y="520" type="curve" smooth="yes"/>
      <point x="171" y="520"/>
      <point x="49" y="386"/>
      <point x="49" y="207" type="curve" smooth="yes"/>
      <point x="49" y="78"/>
      <point x="134" y="-3"/>
      <point x="269" y="-3" type="curve" smooth="yes"/>
      <point x="278" y="-3"/>
      <point x="287" y="-3"/>
      <point x="302" y="-1" type="curve"/>
      <point x="305" y="5" type="line"/>
      <point x="204" y="-38"/>
      <point x="163" y="-91"/>
      <point x="163" y="-144" type="curve" smooth="yes"/>
      <point x="163" y="-187"/>
      <point x="193" y="-213"/>
      <point x="238" y="-213" type="curve" smooth="yes"/>
    </contour>
    <contour>
      <point x="144" y="16"/>
      <point x="69" y="86"/>
      <point x="69" y="208" type="curve" smooth="yes"/>
      <point x="69" y="376"/>
      <point x="183" y="501"/>
      <point x="338" y="501" type="curve" smooth="yes"/>
      <point x="466" y="501"/>
      <point x="541" y="431"/>
      <point x="541" y="309" type="curve" smooth="yes"/>
      <point x="541" y="140"/>
      <point x="427" y="16"/>
      <point x="272" y="16" type="curve" smooth="yes"/>
    </contour>
    <contour>
      <point x="356" y="517" type="move" name="top"/>
    </contour>
  </outline>
</glyph>
<glyph name="jdotless" format="1">
  <advance width="255"/>
  <unicode hex="0237"/>
  <outline>
    <contour>
      <point x="10" y="-197"/>
      <point x="57" y="-155"/>
      <point x="74" y="-69" type="curve" smooth="yes"/>
      <point x="191" y="517" type="line"/>
      <point x="171" y="517" type="line"/>
      <point x="55" y="-63" type="line" smooth="yes"/>
      <point x="39" y="-144"/>
      <point x="-2" y="-178"/>
      <point x="-68" y="-178" type="curve" smooth="yes"/>
      <point x="-104" y="-178"/>
      <point x="-132" y="-167"/>
      <point x="-154" y="-146" type="curve"/>
      <point x="-169" y="-161" type="line"/>
      <point x="-147" y="-184"/>
      <point x="-110" y="-197"/>
      <point x="-70" y="-197" type="curve" smooth="yes"/>
    </contour>
    <contour>
      <point x="181" y="517" type="move" name="top"/>
    </contour>
  </outline>
</glyph>
<glyph name="primemod" format="1">
  <advance width="184"/>
  <unicode hex="02B9"/>
  <outline>
    <contour>
      <point x="139" y="450" type="line"/>
      <point x="191" y="700" type="line"/>
      <point x="169" y="700" type="line"/>
      <point x="121" y="450" type="line"/>
    </contour>
  </outline>
</glyph>
<glyph name="apostrophemod" format="1">
  <advance width="159"/>
  <unicode hex="02BC"/>
  <outline>
    <contour>
      <point x="121" y="441" type="line"/>
      <point x="180" y="700" type="line"/>
      <point x="160" y="700" type="line"/>
      <point x="103" y="441" type="line"/>
    </contour>
  </outline>
</glyph>
<glyph name="ringhalfright" format="1">
  <advance width="600"/>
  <unicode hex="02BE"/>
  <outline>
    <contour>
      <point x="368" y="600" type="line"/>
      <point x="375" y="599"/>
      <point x="380" y="599"/>
      <point x="386" y="599" type="curve" smooth="yes"/>
      <point x="439" y="599"/>
      <point x="478" y="642"/>
      <point x="478" y="692" type="curve" smooth="yes"/>
      <point x="478" y="735"/>
      <point x="449" y="772"/>
      <point x="404" y="780" type="curve"/>
      <point x="401" y="762" type="line"/>
      <point x="436" y="755"/>
      <point x="458" y="727"/>
      <point x="458" y="692" type="curve" smooth="yes"/>
      <point x="458" y="651"/>
      <point x="428" y="618"/>
      <point x="386" y="618" type="curve" smooth="yes"/>
      <point x="381" y="618"/>
      <point x="377" y="618"/>
      <point x="372" y="619" type="curve"/>
    </contour>
  </outline>
</glyph>
<glyph name="ringhalfleft" format="1">
  <advance width="600"/>
  <unicode hex="02BF"/>
  <outline>
    <contour>
      <point x="404" y="779" type="line"/>
      <point x="397" y="780"/>
      <point x="392" y="780"/>
      <point x="386" y="780" type="curve" smooth="yes"/>
      <point x="333" y="780"/>
      <point x="294" y="737"/>
      <point x="294" y="687" type="curve" smooth="yes"/>
      <point x="294" y="644"/>
      <point x="323" y="607"/>
      <point x="368" y="599" type="curve"/>
      <point x="371" y="617" type="line"/>
      <point x="336" y="624"/>
      <point x="314" y="652"/>
      <point x="314" y="687" type="curve" smooth="yes"/>
      <point x="314" y="728"/>
      <point x="344" y="761"/>
      <point x="386" y="761" type="curve" smooth="yes"/>
      <point x="391" y="761"/>
      <point x="395" y="761"/>
      <point x="400" y="760" type="curve"/>
    </contour>
  </outline>
</glyph>
<glyph name="verticallinemod" format="1">
  <advance width="154"/>
  <unicode hex="02C8"/>
  <outline>
    <contour>
      <point x="139" y="519" type="line"/>
      <point x="175" y="699" type="line"/>
      <point x="155" y="699" type="line"/>
      <point x="119" y="519" type="line"/>
    </contour>
  </outline>
</glyph>
<glyph name="firsttonechinese" format="1">
  <advance width="600"/>
  <unicode hex="02C9"/>
  <outline>
    <contour>
      <point x="515" y="652" type="line"/>
      <point x="519" y="672" type="line"/>
      <point x="247" y="672" type="line"/>
      <point x="243" y="652" type="line"/>
    </contour>
    <contour>
      <point x="374" y="630" type="move" name="top"/>
    </contour>
    <contour>
      <point x="351" y="517" type="move" name="_top"/>
    </contour>
  </outline>
</glyph>
<glyph name="fourthtonechinese" format="1">
  <advance width="600"/>
  <unicode hex="02CB"/>
  <outline>
    <contour>
      <point x="414" y="607" type="line"/>
      <point x="296" y="717" type="line"/>
      <point x="256" y="717" type="line"/>
      <point x="384" y="607" type="line"/>
    </contour>
    <contour>
      <point x="380" y="660" type="move" name="top"/>
    </contour>
    <contour>
      <point x="351" y="517" type="move" name="_top"/>
    </contour>
  </outline>
</glyph>
<glyph name="acutecomb" format="1">
  <advance width="600"/>
  <unicode hex="0301"/>
  <outline>
    <contour>
      <point x="355" y="607" type="line"/>
      <point x="517" y="717" type="line"/>
      <point x="475" y="717" type="line"/>
      <point x="323" y="607" type="line"/>
    </contour>
    <contour>
      <point x="380" y="660" type="move" name="top"/>
    </contour>
    <contour>
      <point x="351" y="517" type="move" name="_top"/>
    </contour>
  </outline>
</glyph>
<glyph name="circumflexcomb" format="1">
  <advance width="600"/>
  <unicode hex="0302"/>
  <outline>
    <contour>
      <point x="260" y="607" type="line"/>
      <point x="383" y="703" type="line"/>
      <point x="377" y="703" type="line"/>
      <point x="482" y="607" type="line"/>
      <point x="507" y="607" type="line"/>
      <point x="397" y="717" type="line"/>
      <point x="365" y="717" type="line"/>
      <point x="231" y="607" type="line"/>
    </contour>
    <contour>
      <point x="378" y="650" type="move" name="top"/>
    </contour>
    <contour>
      <point x="351" y="517" type="move" name="_top"/>
    </contour>
  </outline>
</glyph>
<glyph name="tildecomb" format="1">
  <advance width="600"/>
  <unicode hex="0303"/>
  <outline>
    <contour>
      <point x="485" y="619"/>
      <point x="515" y="653"/>
      <point x="523" y="703" type="curve"/>
      <point x="504" y="703" type="line"/>
      <point x="498" y="664"/>
      <point x="474" y="638"/>
      <point x="443" y="638" type="curve" smooth="yes"/>
      <point x="396" y="638"/>
      <point x="376" y="707"/>
      <point x="318" y="707" type="curve" smooth="yes"/>
      <point x="276" y="707"/>
      <point x="245" y="673"/>
      <point x="238" y="621" type="curve"/>
      <point x="257" y="621" type="line"/>
      <point x="263" y="662"/>
      <point x="286" y="688"/>
      <point x="317" y="688" type="curve" smooth="yes"/>
      <point x="364" y="688"/>
      <point x="385" y="619"/>
      <point x="443" y="619" type="curve" smooth="yes"/>
    </contour>
    <contour>
      <point x="378" y="650" type="move" name="top"/>
    </contour>
    <contour>
      <point x="351" y="517" type="move" name="_top"/>
    </contour>
  </outline>
</glyph>
<glyph name="macroncomb" format="1">
  <advance width="600"/>
  <unicode hex="0304"/>
  <outline>
    <contour>
      <point x="514" y="652" type="line"/>
      <point x="518" y="672" type="line"/>
      <point x="246" y="672" type="line"/>
      <point x="242" y="652" type="line"/>
    </contour>
    <contour>
      <point x="374" y="630" type="move" name="top"/>
    </contour>
    <contour>
      <point x="351" y="517" type="move" name="_top"/>
    </contour>
  </outline>
</glyph>
<glyph name="brevecomb" format="1">
  <advance width="600"/>
  <unicode hex="0306"/>
  <outline>
    <contour>
      <point x="452" y="604"/>
      <point x="512" y="647"/>
      <point x="522" y="717" type="curve"/>
      <point x="503" y="717" type="line"/>
      <point x="495" y="658"/>
      <point x="441" y="623"/>
      <point x="381" y="623" type="curve" smooth="yes"/>
      <point x="317" y="623"/>
      <point x="273" y="659"/>
      <point x="277" y="717" type="curve"/>
      <point x="258" y="717" type="line"/>
      <point x="253" y="648"/>
      <point x="308" y="604"/>
      <point x="380" y="604" type="curve" smooth="yes"/>
    </contour>
    <contour>
      <point x="378" y="650" type="move" name="top"/>
    </contour>
    <contour>
      <point x="351" y="517" type="move" name="_top"/>
    </contour>
  </outline>
</glyph>
<glyph name="dotaccentcomb" format="1">
  <advance width="600"/>
  <unicode hex="0307"/>
  <outline>
    <contour>
      <point x="395" y="641"/>
      <point x="407" y="654"/>
      <point x="407" y="669" type="curve" smooth="yes"/>
      <point x="407" y="682"/>
      <point x="395" y="693"/>
      <point x="382" y="693" type="curve" smooth="yes"/>
      <point x="367" y="693"/>
      <point x="355" y="680"/>
      <point x="355" y="665" type="curve" smooth="yes"/>
      <point x="355" y="652"/>
      <point x="367" y="641"/>
      <point x="380" y="641" type="curve" smooth="yes"/>
    </contour>
    <contour>
      <point x="381" y="667" type="move" name="_center"/>
    </contour>
    <contour>
      <point x="374" y="630" type="move" name="top"/>
    </contour>
    <contour>
      <point x="351" y="517" type="move" name="_top"/>
    </contour>
  </outline>
</glyph>
<glyph name="dieresiscomb" format="1">
  <advance width="600"/>
  <unicode hex="0308"/>
  <outline>
    <contour>
      <point x="477" y="641"/>
      <point x="489" y="654"/>
      <point x="489" y="669" type="curve" smooth="yes"/>
      <point x="489" y="682"/>
      <point x="477" y="693"/>
      <point x="464" y="693" type="curve" smooth="yes"/>
      <point x="449" y="693"/>
      <point x="437" y="680"/>
      <point x="437" y="665" type="curve" smooth="yes"/>
      <point x="437" y="652"/>
      <point x="449" y="641"/>
      <point x="462" y="641" type="curve" smooth="yes"/>
    </contour>
    <contour>
      <point x="313" y="641"/>
      <point x="325" y="654"/>
      <point x="325" y="669" type="curve" smooth="yes"/>
      <point x="325" y="682"/>
      <point x="313" y="693"/>
      <point x="300" y="693" type="curve" smooth="yes"/>
      <point x="285" y="693"/>
      <point x="273" y="680"/>
      <point x="273" y="665" type="curve" smooth="yes"/>
      <point x="273" y="652"/>
      <point x="285" y="641"/>
      <point x="298" y="641" type="curve" smooth="yes"/>
    </contour>
    <contour>
      <point x="374" y="630" type="move" name="top"/>
    </contour>
    <contour>
      <point x="351" y="517" type="move" name="_top"/>
    </contour>
  </outline>
</glyph>
<glyph name="hookabovecomb" format="1">
  <advance width="600"/>
  <unicode hex="0309"/>
  <outline>
    <contour>
      <point x="438" y="629"/>
      <point x="462" y="661"/>
      <point x="462" y="705" type="curve" smooth="yes"/>
      <point x="462" y="744"/>
      <point x="433" y="769"/>
      <point x="388" y="769" type="curve" smooth="yes"/>
      <point x="365" y="769"/>
      <point x="338" y="761"/>
      <point x="317" y="747" type="curve"/>
      <point x="325" y="731" type="line"/>
      <point x="347" y="744"/>
      <point x="366" y="750"/>
      <point x="387" y="750" type="curve" smooth="yes"/>
      <point x="419" y="750"/>
      <point x="441" y="731"/>
      <point x="441" y="702" type="curve" smooth="yes"/>
      <point x="441" y="665"/>
      <point x="414" y="638"/>
      <point x="370" y="619" type="curve"/>
      <point x="378" y="603" type="line"/>
    </contour>
    <contour>
      <point x="394" y="730" type="move" name="top"/>
    </contour>
    <contour>
      <point x="351" y="517" type="move" name="_top"/>
    </contour>
  </outline>
</glyph>
<glyph name="caroncomb" format="1">
  <advance width="600"/>
  <unicode hex="030C"/>
  <outline>
    <contour>
      <point x="500" y="717" type="line"/>
      <point x="377" y="621" type="line"/>
      <point x="383" y="621" type="line"/>
      <point x="278" y="717" type="line"/>
      <point x="253" y="717" type="line"/>
      <point x="363" y="607" type="line"/>
      <point x="395" y="607" type="line"/>
      <point x="529" y="717" type="line"/>
    </contour>
    <contour>
      <point x="378" y="650" type="move" name="top"/>
    </contour>
    <contour>
      <point x="351" y="517" type="move" name="_top"/>
    </contour>
  </outline>
</glyph>
<glyph name="dblgravecomb" format="1">
  <advance width="600"/>
  <unicode hex="030F"/>
  <outline>
    <contour>
      <point x="452" y="607" type="line"/>
      <point x="363" y="717" type="line"/>
      <point x="329" y="717" type="line"/>
      <point x="425" y="607" type="line"/>
    </contour>
    <contour>
      <point x="313" y="607" type="line"/>
      <point x="224" y="717" type="line"/>
      <point x="190" y="717" type="line"/>
      <point x="286" y="607" type="line"/>
    </contour>
    <contour>
      <point x="380" y="660" type="move" name="top"/>
    </contour>
    <contour>
      <point x="351" y="517" type="move" name="_top"/>
    </contour>
  </outline>
</glyph>
<glyph name="breveinvertedcomb" format="1">
  <advance width="600"/>
  <unicode hex="0311"/>
  <outline>
    <contour>
      <point x="256" y="607" type="line"/>
      <point x="264" y="666"/>
      <point x="318" y="701"/>
      <point x="378" y="701" type="curve" smooth="yes"/>
      <point x="442" y="701"/>
      <point x="486" y="665"/>
      <point x="482" y="607" type="curve"/>
      <point x="501" y="607" type="line"/>
      <point x="506" y="676"/>
      <point x="451" y="720"/>
      <point x="379" y="720" type="curve" smooth="yes"/>
      <point x="307" y="720"/>
      <point x="247" y="677"/>
      <point x="237" y="607" type="curve"/>
    </contour>
    <contour>
      <point x="378" y="650" type="move" name="top"/>
    </contour>
    <contour>
      <point x="351" y="517" type="move" name="_top"/>
    </contour>
  </outline>
</glyph>
<glyph name="commaturnedabovecomb" format="1">
  <advance width="600"/>
  <unicode hex="0312"/>
  <outline>
    <contour>
      <point x="390" y="604"/>
      <point x="401" y="616"/>
      <point x="401" y="630" type="curve" smooth="yes"/>
      <point x="401" y="644"/>
      <point x="389" y="656"/>
      <point x="375" y="656" type="curve"/>
      <point x="376" y="645" type="line"/>
      <point x="425" y="759" type="line"/>
      <point x="407" y="759" type="line"/>
      <point x="358" y="659" type="line" smooth="yes"/>
      <point x="352" y="648"/>
      <point x="349" y="641"/>
      <point x="349" y="630" type="curve" smooth="yes"/>
      <point x="349" y="616"/>
      <point x="360" y="604"/>
      <point x="376" y="604" type="curve" smooth="yes"/>
    </contour>
    <contour>
      <point x="386" y="690" type="move" name="top"/>
    </contour>
    <contour>
      <point x="351" y="517" type="move" name="_top"/>
    </contour>
  </outline>
</glyph>
<glyph name="horncomb" format="1">
  <advance width="600"/>
  <unicode hex="031B"/>
  <outline>
    <contour>
      <point x="351" y="498" type="line" smooth="yes"/>
      <point x="416" y="498"/>
      <point x="441" y="539"/>
      <point x="441" y="588" type="curve" smooth="yes"/>
      <point x="441" y="614"/>
      <point x="432" y="642"/>
      <point x="419" y="662" type="curve"/>
      <point x="401" y="654" type="line"/>
      <point x="412" y="635"/>
      <point x="421" y="613"/>
      <point x="421" y="587" type="curve" smooth="yes"/>
      <point x="421" y="550"/>
      <point x="403" y="517"/>
      <point x="351" y="517" type="curve" smooth="yes"/>
      <point x="341" y="517" type="line"/>
      <point x="341" y="498" type="line"/>
    </contour>
    <contour>
      <point x="351" y="517" type="move" name="_topright"/>
    </contour>
  </outline>
</glyph>
<glyph name="dotbelowcomb" format="1">
  <advance width="600"/>
  <unicode hex="0323"/>
  <outline>
    <contour>
      <point x="227" y="-176"/>
      <point x="241" y="-164"/>
      <point x="244" y="-150" type="curve" smooth="yes"/>
      <point x="247" y="-136"/>
      <point x="237" y="-124"/>
      <point x="223" y="-124" type="curve" smooth="yes"/>
      <point x="209" y="-124"/>
      <point x="195" y="-136"/>
      <point x="192" y="-150" type="curve" smooth="yes"/>
      <point x="189" y="-164"/>
      <point x="199" y="-176"/>
      <point x="213" y="-176" type="curve" smooth="yes"/>
    </contour>
    <contour>
      <point x="248" y="0" type="move" name="_bottom"/>
    </contour>
    <contour>
      <point x="225" y="-113" type="move" name="bottom"/>
    </contour>
  </outline>
</glyph>
<glyph name="dieresisbelowcomb" format="1">
  <advance width="600"/>
  <unicode hex="0324"/>
  <outline>
    <contour>
      <point x="307" y="-176"/>
      <point x="319" y="-163"/>
      <point x="319" y="-148" type="curve" smooth="yes"/>
      <point x="319" y="-135"/>
      <point x="307" y="-124"/>
      <point x="294" y="-124" type="curve" smooth="yes"/>
      <point x="279" y="-124"/>
      <point x="267" y="-137"/>
      <point x="267" y="-152" type="curve" smooth="yes"/>
      <point x="267" y="-165"/>
      <point x="279" y="-176"/>
      <point x="292" y="-176" type="curve" smooth="yes"/>
    </contour>
    <contour>
      <point x="157" y="-176"/>
      <point x="169" y="-163"/>
      <point x="169" y="-148" type="curve" smooth="yes"/>
      <point x="169" y="-135"/>
      <point x="157" y="-124"/>
      <point x="144" y="-124" type="curve" smooth="yes"/>
      <point x="129" y="-124"/>
      <point x="117" y="-137"/>
      <point x="117" y="-152" type="curve" smooth="yes"/>
      <point x="117" y="-165"/>
      <point x="129" y="-176"/>
      <point x="142" y="-176" type="curve" smooth="yes"/>
    </contour>
    <contour>
      <point x="248" y="0" type="move" name="_bottom"/>
    </contour>
    <contour>
      <point x="222" y="-129" type="move" name="bottom"/>
    </contour>
  </outline>
</glyph>
<glyph name="commaaccentcomb" format="1">
  <advance width="600"/>
  <unicode hex="0326"/>
  <outline>
    <contour>
      <point x="195" y="-259" type="line"/>
      <point x="235" y="-179" type="line" smooth="yes"/>
      <point x="241" y="-168"/>
      <point x="244" y="-161"/>
      <point x="244" y="-150" type="curve" smooth="yes"/>
      <point x="244" y="-136"/>
      <point x="233" y="-124"/>
      <point x="217" y="-124" type="curve" smooth="yes"/>
      <point x="203" y="-124"/>
      <point x="192" y="-136"/>
      <point x="192" y="-150" type="curve" smooth="yes"/>
      <point x="192" y="-164"/>
      <point x="204" y="-176"/>
      <point x="218" y="-176" type="curve"/>
      <point x="217" y="-165" type="line"/>
      <point x="177" y="-259" type="line"/>
    </contour>
    <contour>
      <point x="248" y="0" type="move" name="_bottom"/>
    </contour>
    <contour>
      <point x="225" y="-113" type="move" name="bottom"/>
    </contour>
  </outline>
</glyph>
<glyph name="cedillacomb" format="1">
  <advance width="600"/>
  <unicode hex="0327"/>
  <outline>
    <contour>
      <point x="257" y="-213"/>
      <point x="298" y="-174"/>
      <point x="298" y="-124" type="curve" smooth="yes"/>
      <point x="298" y="-85"/>
      <point x="272" y="-60"/>
      <point x="229" y="-56" type="curve"/>
      <point x="258" y="5" type="line"/>
      <point x="239" y="5" type="line"/>
      <point x="201" y="-74" type="line"/>
      <point x="215" y="-74" type="line" smooth="yes"/>
      <point x="253" y="-74"/>
      <point x="277" y="-93"/>
      <point x="277" y="-124" type="curve" smooth="yes"/>
      <point x="277" y="-166"/>
      <point x="246" y="-194"/>
      <point x="200" y="-194" type="curve" smooth="yes"/>
      <point x="172" y="-194"/>
      <point x="151" y="-186"/>
      <point x="135" y="-171" type="curve"/>
      <point x="121" y="-186" type="line"/>
      <point x="141" y="-205"/>
      <point x="169" y="-213"/>
      <point x="199" y="-213" type="curve" smooth="yes"/>
    </contour>
    <contour>
      <point x="248" y="0" type="move" name="_bottom"/>
    </contour>
  </outline>
</glyph>
<glyph name="ogonekcomb" format="1">
  <advance width="600"/>
  <unicode hex="0328"/>
  <outline>
    <contour>
      <point x="179" y="-213"/>
      <point x="207" y="-204"/>
      <point x="230" y="-186" type="curve"/>
      <point x="222" y="-169" type="line"/>
      <point x="202" y="-185"/>
      <point x="176" y="-194"/>
      <point x="151" y="-194" type="curve" smooth="yes"/>
      <point x="115" y="-194"/>
      <point x="94" y="-176"/>
      <point x="94" y="-142" type="curve" smooth="yes"/>
      <point x="94" y="-88"/>
      <point x="145" y="-41"/>
      <point x="249" y="0" type="curve"/>
      <point x="242" y="16" type="line"/>
      <point x="123" y="-31"/>
      <point x="74" y="-85"/>
      <point x="74" y="-144" type="curve" smooth="yes"/>
      <point x="74" y="-187"/>
      <point x="104" y="-213"/>
      <point x="150" y="-213" type="curve" smooth="yes"/>
    </contour>
    <contour>
      <point x="249" y="0" type="move" name="_ogonek"/>
    </contour>
  </outline>
</glyph>
<glyph name="brevebelowcomb" format="1">
  <advance width="600"/>
  <unicode hex="032E"/>
  <outline>
    <contour>
      <point x="289" y="-198"/>
      <point x="352" y="-160"/>
      <point x="361" y="-90" type="curve"/>
      <point x="342" y="-90" type="line"/>
      <point x="334" y="-148"/>
      <point x="281" y="-179"/>
      <point x="219" y="-179" type="curve" smooth="yes"/>
      <point x="154" y="-179"/>
      <point x="113" y="-146"/>
      <point x="116" y="-90" type="curve"/>
      <point x="97" y="-90" type="line"/>
      <point x="93" y="-156"/>
      <point x="145" y="-198"/>
      <point x="218" y="-198" type="curve" smooth="yes"/>
    </contour>
    <contour>
      <point x="248" y="0" type="move" name="_bottom"/>
    </contour>
    <contour>
      <point x="222" y="-128" type="move" name="bottom"/>
    </contour>
  </outline>
</glyph>
<glyph name="macronbelowcomb" format="1">
  <advance width="600"/>
  <unicode hex="0331"/>
  <outline>
    <contour>
      <point x="352" y="-160" type="line"/>
      <point x="356" y="-140" type="line"/>
      <point x="84" y="-140" type="line"/>
      <point x="80" y="-160" type="line"/>
    </contour>
    <contour>
      <point x="248" y="0" type="move" name="_bottom"/>
    </contour>
    <contour>
      <point x="224" y="-118" type="move" name="bottom"/>
    </contour>
  </outline>
</glyph>
<glyph name="strokelongcomb" format="1">
  <advance width="800"/>
  <unicode hex="0336"/>
  <outline>
    <contour>
      <point x="822" y="432" type="line"/>
      <point x="826" y="451" type="line"/>
      <point x="50" y="451" type="line"/>
      <point x="46" y="432" type="line"/>
    </contour>
    <contour>
      <point x="436" y="441" type="move" name="_center"/>
    </contour>
  </outline>
</glyph>
<glyph name="slashshortcomb" format="1">
  <advance width="322"/>
  <unicode hex="0337"/>
  <outline>
    <contour>
      <point x="291" y="441" type="line"/>
      <point x="283" y="455" type="line"/>
      <point x="62" y="313" type="line"/>
      <point x="70" y="299" type="line"/>
    </contour>
    <contour>
      <point x="176" y="377" type="move" name="_center"/>
    </contour>
  </outline>
</glyph>
<glyph name="Delta" format="1">
  <advance width="688"/>
  <unicode hex="0394"/>
  <outline>
    <contour>
      <point x="422" y="700" type="line"/>
      <point x="-43" y="0" type="line"/>
      <point x="627" y="0" type="line"/>
      <point x="442" y="700" type="line"/>
    </contour>
    <contour>
      <point x="435" y="684" type="line"/>
      <point x="426" y="684" type="line"/>
      <point x="603" y="11" type="line"/>
      <point x="608" y="19" type="line"/>
      <point x="-17" y="19" type="line"/>
      <point x="-12" y="11" type="line"/>
    </contour>
  </outline>
</glyph>
<glyph name="mu" format="1">
  <advance width="670"/>
  <unicode hex="03BC"/>
  <outline>
    <contour>
      <point x="45" y="-194" type="line"/>
      <point x="111" y="135" type="line"/>
      <point x="103" y="121" type="line"/>
      <point x="119" y="37"/>
      <point x="184" y="-3"/>
      <point x="279" y="-3" type="curve" smooth="yes"/>
      <point x="387" y="-3"/>
      <point x="475" y="45"/>
      <point x="524" y="155" type="curve"/>
      <point x="514" y="150" type="line"/>
      <point x="484" y="0" type="line"/>
      <point x="504" y="0" type="line"/>
      <point x="607" y="517" type="line"/>
      <point x="587" y="517" type="line"/>
      <point x="530" y="230" type="line" smooth="yes"/>
      <point x="502" y="90"/>
      <point x="411" y="16"/>
      <point x="281" y="16" type="curve" smooth="yes"/>
      <point x="154" y="16"/>
      <point x="102" y="91"/>
      <point x="126" y="212" type="curve" smooth="yes"/>
      <point x="187" y="517" type="line"/>
      <point x="167" y="517" type="line"/>
      <point x="25" y="-194" type="line"/>
    </contour>
  </outline>
</glyph>
<glyph name="pi" format="1">
  <advance width="718"/>
  <unicode hex="03C0"/>
  <outline>
    <contour>
      <point x="57" y="280" type="line"/>
      <point x="46" y="300"/>
      <point x="40" y="323"/>
      <point x="40" y="347" type="curve" smooth="yes"/>
      <point x="40" y="430"/>
      <point x="99" y="498"/>
      <point x="224" y="498" type="curve" smooth="yes"/>
      <point x="758" y="498" type="line"/>
      <point x="762" y="517" type="line"/>
      <point x="224" y="517" type="line" smooth="yes"/>
      <point x="81" y="517"/>
      <point x="20" y="437"/>
      <point x="20" y="346" type="curve" smooth="yes"/>
      <point x="20" y="317"/>
      <point x="28" y="291"/>
      <point x="40" y="270" type="curve"/>
    </contour>
    <contour>
      <point x="157" y="0" type="line"/>
      <point x="320" y="517" type="line"/>
      <point x="300" y="517" type="line"/>
      <point x="137" y="0" type="line"/>
    </contour>
    <contour>
      <point x="477" y="0" type="line"/>
      <point x="580" y="517" type="line"/>
      <point x="560" y="517" type="line"/>
      <point x="457" y="0" type="line"/>
    </contour>
  </outline>
</glyph>
<glyph name="Germandbls" format="1">
  <advance width="742"/>
  <unicode hex="1E9E"/>
  <outline>
    <contour>
      <point x="566" y="-3"/>
      <point x="664" y="83"/>
      <point x="664" y="224" type="curve" smooth="yes"/>
      <point x="664" y="328"/>
      <point x="592" y="387"/>
      <point x="476" y="387" type="curve" smooth="yes"/>
      <point x="451" y="387"/>
      <point x="423" y="385"/>
      <point x="397" y="377" type="curve"/>
      <point x="399" y="366" type="line"/>
      <point x="681" y="606" type="line"/>
      <point x="684" y="622" type="line"/>
      <point x="641" y="672"/>
      <point x="572" y="699"/>
      <point x="476" y="699" type="curve" smooth="yes"/>
      <point x="300" y="699"/>
      <point x="196" y="602"/>
      <point x="162" y="433" type="curve" smooth="yes"/>
      <point x="75" y="0" type="line"/>
      <point x="95" y="0" type="line"/>
      <point x="180" y="426" type="line" smooth="yes"/>
      <point x="213" y="591"/>
      <point x="311" y="680"/>
      <point x="475" y="680" type="curve" smooth="yes"/>
      <point x="563" y="680"/>
      <point x="630" y="657"/>
      <point x="668" y="611" type="curve"/>
      <point x="671" y="621" type="line"/>
      <point x="379" y="373" type="line"/>
      <point x="382" y="357" type="line"/>
      <point x="409" y="365"/>
      <point x="444" y="369"/>
      <point x="474" y="369" type="curve" smooth="yes"/>
      <point x="581" y="369"/>
      <point x="645" y="319"/>
      <point x="645" y="224" type="curve" smooth="yes"/>
      <point x="645" y="94"/>
      <point x="555" y="16"/>
      <point x="423" y="16" type="curve" smooth="yes"/>
      <point x="370" y="16"/>
      <point x="324" y="26"/>
      <point x="284" y="47" type="curve"/>
      <point x="274" y="27" type="line"/>
      <point x="314" y="7"/>
      <point x="367" y="-3"/>
      <point x="420" y="-3" type="curve" smooth="yes"/>
    </contour>
  </outline>
</glyph>
<glyph name="figuredash" format="1">
  <advance width="700"/>
  <unicode hex="2012"/>
  <outline>
    <contour>
      <point x="667" y="346" type="line"/>
      <point x="671" y="365" type="line"/>
      <point x="71" y="365" type="line"/>
      <point x="67" y="346" type="line"/>
    </contour>
  </outline>
</glyph>
<glyph name="endash" format="1">
  <advance width="500"/>
  <unicode hex="2013"/>
  <outline>
    <contour>
      <point x="499" y="255" type="line"/>
      <point x="503" y="274" type="line"/>
      <point x="3" y="274" type="line"/>
      <point x="-1" y="255" type="line"/>
    </contour>
  </outline>
</glyph>
<glyph name="emdash" format="1">
  <advance width="1000"/>
  <unicode hex="2014"/>
  <outline>
    <contour>
      <point x="999" y="255" type="line"/>
      <point x="1003" y="274" type="line"/>
      <point x="3" y="274" type="line"/>
      <point x="-1" y="255" type="line"/>
    </contour>
  </outline>
</glyph>
<glyph name="quoteright" format="1">
  <advance width="182"/>
  <unicode hex="2019"/>
  <outline>
    <contour>
      <point x="139" y="556" type="line"/>
      <point x="200" y="690" type="line" smooth="yes"/>
      <point x="205" y="701"/>
      <point x="209" y="708"/>
      <point x="209" y="719" type="curve" smooth="yes"/>
      <point x="209" y="733"/>
      <point x="197" y="745"/>
      <point x="183" y="745" type="curve" smooth="yes"/>
      <point x="169" y="745"/>
      <point x="157" y="733"/>
      <point x="157" y="719" type="curve" smooth="yes"/>
      <point x="157" y="705"/>
      <point x="169" y="693"/>
      <point x="183" y="693" type="curve"/>
      <point x="182" y="704" type="line"/>
      <point x="121" y="556" type="line"/>
    </contour>
  </outline>
</glyph>
<glyph name="dagger" format="1">
  <advance width="520"/>
  <unicode hex="2020"/>
  <outline>
    <contour>
      <point x="179" y="-194" type="line"/>
      <point x="300" y="410" type="line"/>
      <point x="520" y="410" type="line"/>
      <point x="524" y="429" type="line"/>
      <point x="304" y="429" type="line"/>
      <point x="358" y="700" type="line"/>
      <point x="338" y="700" type="line"/>
      <point x="284" y="429" type="line"/>
      <point x="64" y="429" type="line"/>
      <point x="60" y="410" type="line"/>
      <point x="280" y="410" type="line"/>
      <point x="159" y="-194" type="line"/>
    </contour>
  </outline>
</glyph>
<glyph name="daggerdbl" format="1">
  <advance width="520"/>
  <unicode hex="2021"/>
  <outline>
    <contour>
      <point x="524" y="429" type="line"/>
      <point x="304" y="429" type="line"/>
      <point x="358" y="700" type="line"/>
      <point x="338" y="700" type="line"/>
      <point x="284" y="429" type="line"/>
      <point x="64" y="429" type="line"/>
      <point x="60" y="410" type="line"/>
      <point x="280" y="410" type="line"/>
      <point x="217" y="96" type="line"/>
      <point x="-3" y="96" type="line"/>
      <point x="-7" y="77" type="line"/>
      <point x="213" y="77" type="line"/>
      <point x="159" y="-194" type="line"/>
      <point x="179" y="-194" type="line"/>
      <point x="233" y="77" type="line"/>
      <point x="453" y="77" type="line"/>
      <point x="457" y="96" type="line"/>
      <point x="237" y="96" type="line"/>
      <point x="300" y="410" type="line"/>
      <point x="520" y="410" type="line"/>
    </contour>
  </outline>
</glyph>
<glyph name="bullet" format="1">
  <advance width="258"/>
  <unicode hex="2022"/>
  <outline>
    <contour>
      <point x="154" y="225"/>
      <point x="175" y="246"/>
      <point x="175" y="271" type="curve" smooth="yes"/>
      <point x="175" y="294"/>
      <point x="156" y="313"/>
      <point x="133" y="313" type="curve" smooth="yes"/>
      <point x="108" y="313"/>
      <point x="87" y="292"/>
      <point x="87" y="267" type="curve" smooth="yes"/>
      <point x="87" y="244"/>
      <point x="106" y="225"/>
      <point x="129" y="225" type="curve" smooth="yes"/>
    </contour>
  </outline>
</glyph>
<glyph name="second" format="1">
  <advance width="334"/>
  <unicode hex="2033"/>
  <outline>
    <contour>
      <point x="139" y="450" type="line"/>
      <point x="191" y="700" type="line"/>
      <point x="169" y="700" type="line"/>
      <point x="121" y="450" type="line"/>
    </contour>
    <contour>
      <point x="289" y="450" type="line"/>
      <point x="341" y="700" type="line"/>
      <point x="319" y="700" type="line"/>
      <point x="271" y="450" type="line"/>
    </contour>
  </outline>
</glyph>
<glyph name="guilsinglleft" format="1">
  <advance width="273"/>
  <unicode hex="2039"/>
  <outline>
    <contour>
      <point x="190" y="74" type="line"/>
      <point x="76" y="266" type="line"/>
      <point x="77" y="254" type="line"/>
      <point x="266" y="444" type="line"/>
      <point x="242" y="444" type="line"/>
      <point x="58" y="259" type="line"/>
      <point x="168" y="74" type="line"/>
    </contour>
  </outline>
</glyph>
<glyph name="fraction" format="1">
  <advance width="160"/>
  <unicode hex="2044"/>
  <outline>
    <contour>
      <point x="-197" y="0" type="line"/>
      <point x="418" y="700" type="line"/>
      <point x="393" y="700" type="line"/>
      <point x="-222" y="0" type="line"/>
    </contour>
  </outline>
</glyph>
<glyph name="colonsign" format="1">
  <advance width="711"/>
  <unicode hex="20A1"/>
  <outline>
    <contour>
      <point x="285" y="-120" type="line"/>
      <point x="712" y="820" type="line"/>
      <point x="693" y="820" type="line"/>
      <point x="266" y="-120" type="line"/>
    </contour>
    <contour>
      <point x="140" y="-120" type="line"/>
      <point x="567" y="820" type="line"/>
      <point x="548" y="820" type="line"/>
      <point x="121" y="-120" type="line"/>
    </contour>
    <contour>
      <point x="491" y="-3"/>
      <point x="586" y="32"/>
      <point x="644" y="86" type="curve"/>
      <point x="632" y="102" type="line"/>
      <point x="573" y="47"/>
      <point x="491" y="16"/>
      <point x="388" y="16" type="curve" smooth="yes"/>
      <point x="192" y="16"/>
      <point x="91" y="123"/>
      <point x="91" y="280" type="curve" smooth="yes"/>
      <point x="91" y="499"/>
      <point x="246" y="684"/>
      <point x="490" y="684" type="curve" smooth="yes"/>
      <point x="591" y="684"/>
      <point x="665" y="656"/>
      <point x="713" y="602" type="curve"/>
      <point x="727" y="615" type="line"/>
      <point x="680" y="671"/>
      <point x="597" y="703"/>
      <point x="492" y="703" type="curve" smooth="yes"/>
      <point x="229" y="703"/>
      <point x="71" y="504"/>
      <point x="71" y="280" type="curve" smooth="yes"/>
      <point x="71" y="111"/>
      <point x="182" y="-3"/>
      <point x="386" y="-3" type="curve" smooth="yes"/>
    </contour>
  </outline>
</glyph>
<glyph name="franc" format="1">
  <advance width="636"/>
  <unicode hex="20A3"/>
  <outline>
    <contour>
      <point x="369" y="157" type="line"/>
      <point x="373" y="175" type="line"/>
      <point x="13" y="175" type="line"/>
      <point x="9" y="157" type="line"/>
    </contour>
    <contour>
      <point x="168" y="326" type="line"/>
      <point x="559" y="326" type="line"/>
      <point x="563" y="345" type="line"/>
      <point x="172" y="345" type="line"/>
    </contour>
    <contour>
      <point x="244" y="681" type="line"/>
      <point x="675" y="681" type="line"/>
      <point x="679" y="700" type="line"/>
      <point x="228" y="700" type="line"/>
      <point x="88" y="0" type="line"/>
      <point x="108" y="0" type="line"/>
    </contour>
  </outline>
</glyph>
<glyph name="lira" format="1">
  <advance width="618"/>
  <unicode hex="20A4"/>
  <outline>
    <contour>
      <point x="538" y="0" type="line"/>
      <point x="542" y="19" type="line"/>
      <point x="-18" y="19" type="line"/>
      <point x="-22" y="0" type="line"/>
    </contour>
    <contour>
      <point x="120" y="10" type="line"/>
      <point x="214" y="479" type="line" smooth="yes"/>
      <point x="242" y="619"/>
      <point x="332" y="684"/>
      <point x="478" y="684" type="curve" smooth="yes"/>
      <point x="554" y="684"/>
      <point x="616" y="667"/>
      <point x="659" y="626" type="curve"/>
      <point x="674" y="642" type="line"/>
      <point x="630" y="684"/>
      <point x="558" y="703"/>
      <point x="478" y="703" type="curve" smooth="yes"/>
      <point x="325" y="703"/>
      <point x="224" y="631"/>
      <point x="194" y="482" type="curve" smooth="yes"/>
      <point x="100" y="10" type="line"/>
    </contour>
    <contour>
      <point x="471" y="272" type="line"/>
      <point x="475" y="290" type="line"/>
      <point x="36" y="290" type="line"/>
      <point x="32" y="272" type="line"/>
    </contour>
    <contour>
      <point x="499" y="410" type="line"/>
      <point x="503" y="428" type="line"/>
      <point x="64" y="428" type="line"/>
      <point x="60" y="410" type="line"/>
    </contour>
  </outline>
</glyph>
<glyph name="naira" format="1">
  <advance width="850"/>
  <unicode hex="20A6"/>
  <outline>
    <contour>
      <point x="118" y="0" type="line"/>
      <point x="253" y="675" type="line"/>
      <point x="245" y="677" type="line"/>
      <point x="631" y="0" type="line"/>
      <point x="648" y="0" type="line"/>
      <point x="788" y="700" type="line"/>
      <point x="768" y="700" type="line"/>
      <point x="633" y="25" type="line"/>
      <point x="641" y="23" type="line"/>
      <point x="255" y="700" type="line"/>
      <point x="238" y="700" type="line"/>
      <point x="98" y="0" type="line"/>
    </contour>
    <contour>
      <point x="822" y="272" type="line"/>
      <point x="826" y="290" type="line"/>
      <point x="36" y="290" type="line"/>
      <point x="32" y="272" type="line"/>
    </contour>
    <contour>
      <point x="850" y="410" type="line"/>
      <point x="854" y="428" type="line"/>
      <point x="64" y="428" type="line"/>
      <point x="60" y="410" type="line"/>
    </contour>
  </outline>
</glyph>
<glyph name="won" format="1">
  <advance width="1126"/>
  <unicode hex="20A9"/>
  <outline>
    <contour>
      <point x="266" y="0" type="line"/>
      <point x="649" y="677" type="line"/>
      <point x="644" y="676" type="line"/>
      <point x="756" y="0" type="line"/>
      <point x="776" y="0" type="line"/>
      <point x="1166" y="700" type="line"/>
      <point x="1144" y="700" type="line"/>
      <point x="763" y="17" type="line"/>
      <point x="773" y="17" type="line"/>
      <point x="660" y="700" type="line"/>
      <point x="640" y="700" type="line"/>
      <point x="254" y="17" type="line"/>
      <point x="263" y="17" type="line"/>
      <point x="156" y="700" type="line"/>
      <point x="136" y="700" type="line"/>
      <point x="246" y="0" type="line"/>
    </contour>
    <contour>
      <point x="1098" y="272" type="line"/>
      <point x="1102" y="290" type="line"/>
      <point x="36" y="290" type="line"/>
      <point x="32" y="272" type="line"/>
    </contour>
    <contour>
      <point x="1126" y="410" type="line"/>
      <point x="1130" y="428" type="line"/>
      <point x="64" y="428" type="line"/>
      <point x="60" y="410" type="line"/>
    </contour>
  </outline>
</glyph>
<glyph name="euro" format="1">
  <advance width="792"/>
  <unicode hex="20AC"/>
  <outline>
    <contour>
      <point x="566" y="272" type="line"/>
      <point x="570" y="290" type="line"/>
      <point x="36" y="290" type="line"/>
      <point x="32" y="272" type="line"/>
    </contour>
    <contour>
      <point x="594" y="410" type="line"/>
      <point x="598" y="428" type="line"/>
      <point x="64" y="428" type="line"/>
      <point x="60" y="410" type="line"/>
    </contour>
    <contour>
      <point x="572" y="-3"/>
      <point x="667" y="32"/>
      <point x="725" y="86" type="curve"/>
      <point x="713" y="102" type="line"/>
      <point x="654" y="47"/>
      <point x="572" y="16"/>
      <point x="469" y="16" type="curve" smooth="yes"/>
      <point x="273" y="16"/>
      <point x="172" y="123"/>
      <point x="172" y="280" type="curve" smooth="yes"/>
      <point x="172" y="499"/>
      <point x="327" y="684"/>
      <point x="571" y="684" type="curve" smooth="yes"/>
      <point x="672" y="684"/>
      <point x="746" y="656"/>
      <point x="794" y="602" type="curve"/>
      <point x="808" y="615" type="line"/>
      <point x="761" y="671"/>
      <point x="678" y="703"/>
      <point x="573" y="703" type="curve" smooth="yes"/>
      <point x="310" y="703"/>
      <point x="152" y="504"/>
      <point x="152" y="280" type="curve" smooth="yes"/>
      <point x="152" y="111"/>
      <point x="263" y="-3"/>
      <point x="467" y="-3" type="curve" smooth="yes"/>
    </contour>
  </outline>
</glyph>
<glyph name="kip" format="1">
  <advance width="562"/>
  <unicode hex="20AD"/>
  <outline>
    <contour>
      <point x="489" y="341" type="line"/>
      <point x="493" y="360" type="line"/>
      <point x="50" y="360" type="line"/>
      <point x="46" y="341" type="line"/>
    </contour>
    <contour>
      <point x="108" y="0" type="line"/>
      <point x="248" y="700" type="line"/>
      <point x="228" y="700" type="line"/>
      <point x="88" y="0" type="line"/>
    </contour>
    <contour>
      <point x="494" y="0" type="line"/>
      <point x="215" y="350" type="line"/>
      <point x="189" y="350" type="line"/>
      <point x="468" y="0" type="line"/>
    </contour>
    <contour>
      <point x="189" y="350" type="line"/>
      <point x="219" y="350" type="line"/>
      <point x="634" y="700" type="line"/>
      <point x="604" y="700" type="line"/>
    </contour>
  </outline>
</glyph>
<glyph name="peso" format="1">
  <advance width="813"/>
  <unicode hex="20B1"/>
  <outline>
    <contour>
      <point x="119" y="0" type="line"/>
      <point x="169" y="249" type="line"/>
      <point x="158" y="240" type="line"/>
      <point x="391" y="240" type="line" smooth="yes"/>
      <point x="586" y="240"/>
      <point x="708" y="334"/>
      <point x="708" y="514" type="curve" smooth="yes"/>
      <point x="708" y="633"/>
      <point x="622" y="700"/>
      <point x="474" y="700" type="curve" smooth="yes"/>
      <point x="239" y="700" type="line"/>
      <point x="99" y="0" type="line"/>
    </contour>
    <contour>
      <point x="809" y="392" type="line"/>
      <point x="813" y="410" type="line"/>
      <point x="61" y="410" type="line"/>
      <point x="57" y="392" type="line"/>
    </contour>
    <contour>
      <point x="257" y="689" type="line"/>
      <point x="246" y="681" type="line"/>
      <point x="475" y="681" type="line" smooth="yes"/>
      <point x="612" y="681"/>
      <point x="688" y="621"/>
      <point x="688" y="514" type="curve" smooth="yes"/>
      <point x="688" y="345"/>
      <point x="579" y="259"/>
      <point x="390" y="259" type="curve" smooth="yes"/>
      <point x="162" y="259" type="line"/>
      <point x="169" y="251" type="line"/>
    </contour>
    <contour>
      <point x="837" y="530" type="line"/>
      <point x="841" y="548" type="line"/>
      <point x="89" y="548" type="line"/>
      <point x="85" y="530" type="line"/>
    </contour>
  </outline>
</glyph>
<glyph name="cedi" format="1">
  <advance width="711"/>
  <unicode hex="20B5"/>
  <outline>
    <contour>
      <point x="326" y="-120" type="line"/>
      <point x="514" y="820" type="line"/>
      <point x="495" y="820" type="line"/>
      <point x="307" y="-120" type="line"/>
    </contour>
    <contour>
      <point x="491" y="-3"/>
      <point x="586" y="32"/>
      <point x="644" y="86" type="curve"/>
      <point x="632" y="102" type="line"/>
      <point x="573" y="47"/>
      <point x="491" y="16"/>
      <point x="388" y="16" type="curve" smooth="yes"/>
      <point x="192" y="16"/>
      <point x="91" y="123"/>
      <point x="91" y="280" type="curve" smooth="yes"/>
      <point x="91" y="499"/>
      <point x="246" y="684"/>
      <point x="490" y="684" type="curve" smooth="yes"/>
      <point x="591" y="684"/>
      <point x="665" y="656"/>
      <point x="713" y="602" type="curve"/>
      <point x="727" y="615" type="line"/>
      <point x="680" y="671"/>
      <point x="597" y="703"/>
      <point x="492" y="703" type="curve" smooth="yes"/>
      <point x="229" y="703"/>
      <point x="71" y="504"/>
      <point x="71" y="280" type="curve" smooth="yes"/>
      <point x="71" y="111"/>
      <point x="182" y="-3"/>
      <point x="386" y="-3" type="curve" smooth="yes"/>
    </contour>
  </outline>
</glyph>
<glyph name="rupeeIndian" format="1">
  <advance width="715"/>
  <unicode hex="20B9"/>
  <outline>
    <contour>
      <point x="290" y="260" type="line" smooth="yes"/>
      <point x="476" y="260"/>
      <point x="593" y="350"/>
      <point x="593" y="522" type="curve" smooth="yes"/>
      <point x="593" y="586"/>
      <point x="566" y="661"/>
      <point x="460" y="688" type="curve"/>
      <point x="459" y="681" type="line"/>
      <point x="749" y="681" type="line"/>
      <point x="753" y="700" type="line"/>
      <point x="101" y="700" type="line"/>
      <point x="97" y="680" type="line"/>
      <point x="370" y="681" type="line" smooth="yes"/>
      <point x="500" y="681"/>
      <point x="573" y="624"/>
      <point x="573" y="522" type="curve" smooth="yes"/>
      <point x="573" y="361"/>
      <point x="469" y="279"/>
      <point x="289" y="279" type="curve" smooth="yes"/>
      <point x="137" y="279" type="line"/>
      <point x="133" y="260" type="line"/>
    </contour>
    <contour>
      <point x="503" y="0" type="line"/>
      <point x="373" y="274" type="line"/>
      <point x="350" y="274" type="line"/>
      <point x="480" y="0" type="line"/>
    </contour>
    <contour>
      <point x="721" y="541" type="line"/>
      <point x="725" y="560" type="line"/>
      <point x="73" y="560" type="line"/>
      <point x="69" y="541" type="line"/>
    </contour>
  </outline>
</glyph>
<glyph name="liraTurkish" format="1">
  <advance width="662"/>
  <unicode hex="20BA"/>
  <outline>
    <contour>
      <point x="183" y="0" type="line" smooth="yes"/>
      <point x="443" y="0"/>
      <point x="585" y="125"/>
      <point x="630" y="349" type="curve"/>
      <point x="611" y="349" type="line"/>
      <point x="569" y="138"/>
      <point x="431" y="20"/>
      <point x="187" y="20" type="curve" smooth="yes"/>
      <point x="122" y="20" type="line"/>
      <point x="258" y="699" type="line"/>
      <point x="238" y="699" type="line"/>
      <point x="98" y="0" type="line"/>
    </contour>
    <contour>
      <point x="510" y="464" type="line"/>
      <point x="514" y="485" type="line"/>
      <point x="29" y="256" type="line"/>
      <point x="25" y="235" type="line"/>
    </contour>
    <contour>
      <point x="538" y="604" type="line"/>
      <point x="542" y="625" type="line"/>
      <point x="57" y="396" type="line"/>
      <point x="53" y="375" type="line"/>
    </contour>
  </outline>
</glyph>
<glyph name="ruble" format="1">
  <advance width="717"/>
  <unicode hex="20BD"/>
  <outline>
    <contour>
      <point x="108" y="0" type="line"/>
      <point x="158" y="249" type="line"/>
      <point x="147" y="240" type="line"/>
      <point x="380" y="240" type="line" smooth="yes"/>
      <point x="575" y="240"/>
      <point x="697" y="334"/>
      <point x="697" y="514" type="curve" smooth="yes"/>
      <point x="697" y="633"/>
      <point x="611" y="700"/>
      <point x="463" y="700" type="curve" smooth="yes"/>
      <point x="228" y="700" type="line"/>
      <point x="88" y="0" type="line"/>
    </contour>
    <contour>
      <point x="369" y="157" type="line"/>
      <point x="373" y="175" type="line"/>
      <point x="13" y="175" type="line"/>
      <point x="9" y="157" type="line"/>
    </contour>
    <contour>
      <point x="246" y="689" type="line"/>
      <point x="235" y="681" type="line"/>
      <point x="464" y="681" type="line" smooth="yes"/>
      <point x="601" y="681"/>
      <point x="677" y="621"/>
      <point x="677" y="514" type="curve" smooth="yes"/>
      <point x="677" y="345"/>
      <point x="568" y="259"/>
      <point x="379" y="259" type="curve" smooth="yes"/>
      <point x="151" y="259" type="line"/>
      <point x="158" y="251" type="line"/>
    </contour>
  </outline>
</glyph>
<glyph name="numero" format="1">
  <advance width="1190"/>
  <unicode hex="2116"/>
  <outline>
    <contour>
      <point x="101" y="0" type="line"/>
      <point x="236" y="675" type="line"/>
      <point x="228" y="677" type="line"/>
      <point x="614" y="0" type="line"/>
      <point x="631" y="0" type="line"/>
      <point x="771" y="700" type="line"/>
      <point x="751" y="700" type="line"/>
      <point x="616" y="25" type="line"/>
      <point x="624" y="23" type="line"/>
      <point x="238" y="700" type="line"/>
      <point x="221" y="700" type="line"/>
      <point x="81" y="0" type="line"/>
    </contour>
    <contour>
      <point x="1106" y="272" type="line"/>
      <point x="1110" y="291" type="line"/>
      <point x="824" y="291" type="line"/>
      <point x="820" y="272" type="line"/>
    </contour>
    <contour>
      <point x="1106" y="391"/>
      <point x="1184" y="470"/>
      <point x="1184" y="571" type="curve" smooth="yes"/>
      <point x="1184" y="651"/>
      <point x="1127" y="703"/>
      <point x="1042" y="703" type="curve" smooth="yes"/>
      <point x="932" y="703"/>
      <point x="854" y="624"/>
      <point x="854" y="523" type="curve" smooth="yes"/>
      <point x="854" y="443"/>
      <point x="911" y="391"/>
      <point x="997" y="391" type="curve" smooth="yes"/>
    </contour>
    <contour>
      <point x="924" y="409"/>
      <point x="873" y="454"/>
      <point x="873" y="523" type="curve" smooth="yes"/>
      <point x="873" y="612"/>
      <point x="942" y="685"/>
      <point x="1040" y="685" type="curve" smooth="yes"/>
      <point x="1114" y="685"/>
      <point x="1165" y="640"/>
      <point x="1165" y="571" type="curve" smooth="yes"/>
      <point x="1165" y="482"/>
      <point x="1096" y="409"/>
      <point x="999" y="409" type="curve" smooth="yes"/>
    </contour>
  </outline>
</glyph>
<glyph name="leftArrow" format="1">
  <advance width="600"/>
  <unicode hex="2190"/>
  <outline>
    <contour>
      <point x="278" y="93" type="line"/>
      <point x="153" y="269" type="line"/>
      <point x="278" y="448" type="line"/>
      <point x="251" y="448" type="line"/>
      <point x="125" y="269" type="line"/>
      <point x="251" y="93" type="line"/>
    </contour>
    <contour>
      <point x="512" y="260" type="line"/>
      <point x="512" y="280" type="line"/>
      <point x="145" y="280" type="line"/>
      <point x="145" y="260" type="line"/>
    </contour>
  </outline>
</glyph>
<glyph name="upArrow" format="1">
  <advance width="600"/>
  <unicode hex="2191"/>
  <outline>
    <contour>
      <point x="298" y="439" type="line"/>
      <point x="478" y="314" type="line"/>
      <point x="478" y="341" type="line"/>
      <point x="298" y="467" type="line"/>
      <point x="122" y="341" type="line"/>
      <point x="122" y="314" type="line"/>
    </contour>
    <contour>
      <point x="310" y="79" type="line"/>
      <point x="310" y="447" type="line"/>
      <point x="288" y="447" type="line"/>
      <point x="288" y="79" type="line"/>
    </contour>
  </outline>
</glyph>
<glyph name="downArrow" format="1">
  <advance width="600"/>
  <unicode hex="2193"/>
  <outline>
    <contour>
      <point x="318" y="102" type="line"/>
      <point x="138" y="227" type="line"/>
      <point x="138" y="200" type="line"/>
      <point x="318" y="74" type="line"/>
      <point x="494" y="200" type="line"/>
      <point x="494" y="227" type="line"/>
    </contour>
    <contour>
      <point x="306" y="462" type="line"/>
      <point x="306" y="94" type="line"/>
      <point x="328" y="94" type="line"/>
      <point x="328" y="462" type="line"/>
    </contour>
  </outline>
</glyph>
<glyph name="leftRightArrow" format="1">
  <advance width="600"/>
  <unicode hex="2194"/>
  <outline>
    <contour>
      <point x="424" y="93" type="line"/>
      <point x="550" y="269" type="line"/>
      <point x="424" y="448" type="line"/>
      <point x="397" y="448" type="line"/>
      <point x="522" y="269" type="line"/>
      <point x="397" y="93" type="line"/>
    </contour>
    <contour>
      <point x="203" y="93" type="line"/>
      <point x="78" y="269" type="line"/>
      <point x="203" y="448" type="line"/>
      <point x="176" y="448" type="line"/>
      <point x="50" y="269" type="line"/>
      <point x="176" y="93" type="line"/>
    </contour>
    <contour>
      <point x="530" y="260" type="line"/>
      <point x="530" y="280" type="line"/>
      <point x="67" y="280" type="line"/>
      <point x="67" y="260" type="line"/>
    </contour>
  </outline>
</glyph>
<glyph name="upDownArrow" format="1">
  <advance width="600"/>
  <unicode hex="2195"/>
  <outline>
    <contour>
      <point x="298" y="572" type="line"/>
      <point x="478" y="447" type="line"/>
      <point x="478" y="474" type="line"/>
      <point x="298" y="600" type="line"/>
      <point x="122" y="474" type="line"/>
      <point x="122" y="447" type="line"/>
    </contour>
    <contour>
      <point x="476" y="200" type="line"/>
      <point x="476" y="227" type="line"/>
      <point x="300" y="102" type="line"/>
      <point x="120" y="227" type="line"/>
      <point x="120" y="200" type="line"/>
      <point x="300" y="74" type="line"/>
    </contour>
    <contour>
      <point x="310" y="92" type="line"/>
      <point x="310" y="580" type="line"/>
      <point x="288" y="580" type="line"/>
      <point x="288" y="92" type="line"/>
    </contour>
  </outline>
</glyph>
<glyph name="northWestArrow" format="1">
  <advance width="600"/>
  <unicode hex="2196"/>
  <outline>
    <contour>
      <point x="195" y="395" type="line"/>
      <point x="411" y="434" type="line"/>
      <point x="392" y="453" type="line"/>
      <point x="176" y="415" type="line"/>
      <point x="140" y="201" type="line"/>
      <point x="159" y="182" type="line"/>
    </contour>
    <contour>
      <point x="458" y="149" type="line"/>
      <point x="198" y="409" type="line"/>
      <point x="183" y="394" type="line"/>
      <point x="443" y="134" type="line"/>
    </contour>
  </outline>
</glyph>
<glyph name="southWestArrow" format="1">
  <advance width="600"/>
  <unicode hex="2199"/>
  <outline>
    <contour>
      <point x="198" y="172" type="line"/>
      <point x="159" y="388" type="line"/>
      <point x="140" y="369" type="line"/>
      <point x="178" y="153" type="line"/>
      <point x="392" y="117" type="line"/>
      <point x="411" y="136" type="line"/>
    </contour>
    <contour>
      <point x="444" y="435" type="line"/>
      <point x="184" y="175" type="line"/>
      <point x="199" y="160" type="line"/>
      <point x="459" y="420" type="line"/>
    </contour>
  </outline>
</glyph>
<glyph name="emptyset" format="1">
  <advance width="560"/>
  <unicode hex="2205"/>
  <outline>
    <contour>
      <point x="522" y="519" type="line"/>
      <point x="508" y="533" type="line"/>
      <point x="62" y="117" type="line"/>
      <point x="76" y="103" type="line"/>
    </contour>
    <contour>
      <point x="398" y="127"/>
      <point x="485" y="214"/>
      <point x="485" y="320" type="curve" smooth="yes"/>
      <point x="485" y="427"/>
      <point x="398" y="513"/>
      <point x="292" y="513" type="curve" smooth="yes"/>
      <point x="185" y="513"/>
      <point x="99" y="427"/>
      <point x="99" y="320" type="curve" smooth="yes"/>
      <point x="99" y="214"/>
      <point x="185" y="127"/>
      <point x="292" y="127" type="curve" smooth="yes"/>
    </contour>
    <contour>
      <point x="196" y="147"/>
      <point x="119" y="225"/>
      <point x="119" y="320" type="curve" smooth="yes"/>
      <point x="119" y="415"/>
      <point x="196" y="493"/>
      <point x="292" y="493" type="curve" smooth="yes"/>
      <point x="388" y="493"/>
      <point x="465" y="415"/>
      <point x="465" y="320" type="curve" smooth="yes"/>
      <point x="465" y="225"/>
      <point x="388" y="147"/>
      <point x="292" y="147" type="curve" smooth="yes"/>
    </contour>
  </outline>
</glyph>
<glyph name="product" format="1">
  <advance width="816"/>
  <unicode hex="220F"/>
  <outline>
    <contour>
      <point x="63" y="-194" type="line"/>
      <point x="238" y="681" type="line"/>
      <point x="747" y="681" type="line"/>
      <point x="572" y="-194" type="line"/>
      <point x="592" y="-194" type="line"/>
      <point x="771" y="700" type="line"/>
      <point x="222" y="700" type="line"/>
      <point x="43" y="-194" type="line"/>
    </contour>
  </outline>
</glyph>
<glyph name="summation" format="1">
  <advance width="639"/>
  <unicode hex="2211"/>
  <outline>
    <contour>
      <point x="509" y="-194" type="line"/>
      <point x="513" y="-175" type="line"/>
      <point x="-18" y="-175" type="line"/>
      <point x="-15" y="-184" type="line"/>
      <point x="424" y="246" type="line"/>
      <point x="427" y="261" type="line"/>
      <point x="168" y="686" type="line"/>
      <point x="163" y="681" type="line"/>
      <point x="679" y="681" type="line"/>
      <point x="683" y="700" type="line"/>
      <point x="148" y="700" type="line"/>
      <point x="145" y="685" type="line"/>
      <point x="410" y="249" type="line"/>
      <point x="413" y="263" type="line"/>
      <point x="-38" y="-179" type="line"/>
      <point x="-41" y="-194" type="line"/>
    </contour>
  </outline>
</glyph>
<glyph name="minus" format="1">
  <advance width="560"/>
  <unicode hex="2212"/>
  <outline>
    <contour>
      <point x="502" y="340" type="line"/>
      <point x="506" y="359" type="line"/>
      <point x="95" y="359" type="line"/>
      <point x="91" y="340" type="line"/>
    </contour>
  </outline>
</glyph>
<glyph name="radical" format="1">
  <advance width="782"/>
  <unicode hex="221A"/>
  <outline>
    <contour>
      <point x="330" y="-179" type="line"/>
      <point x="339" y="-179" type="line"/>
      <point x="238" y="359" type="line"/>
      <point x="95" y="359" type="line"/>
      <point x="91" y="340" type="line"/>
      <point x="220" y="340" type="line"/>
      <point x="323" y="-194" type="line"/>
      <point x="343" y="-194" type="line"/>
      <point x="868" y="742" type="line"/>
      <point x="844" y="742" type="line"/>
    </contour>
  </outline>
</glyph>
<glyph name="infinity" format="1">
  <advance width="914"/>
  <unicode hex="221E"/>
  <outline>
    <contour>
      <point x="796" y="174"/>
      <point x="881" y="260"/>
      <point x="881" y="377" type="curve" smooth="yes"/>
      <point x="881" y="466"/>
      <point x="813" y="526"/>
      <point x="718" y="526" type="curve" smooth="yes"/>
      <point x="461" y="526"/>
      <point x="478" y="193"/>
      <point x="234" y="193" type="curve" smooth="yes"/>
      <point x="148" y="193"/>
      <point x="91" y="246"/>
      <point x="91" y="326" type="curve" smooth="yes"/>
      <point x="91" y="434"/>
      <point x="170" y="507"/>
      <point x="276" y="507" type="curve" smooth="yes"/>
      <point x="524" y="507"/>
      <point x="411" y="174"/>
      <point x="676" y="174" type="curve" smooth="yes"/>
    </contour>
    <contour>
      <point x="491" y="174"/>
      <point x="474" y="507"/>
      <point x="718" y="507" type="curve" smooth="yes"/>
      <point x="804" y="507"/>
      <point x="861" y="454"/>
      <point x="861" y="375" type="curve" smooth="yes"/>
      <point x="861" y="267"/>
      <point x="781" y="193"/>
      <point x="676" y="193" type="curve" smooth="yes"/>
      <point x="428" y="193"/>
      <point x="541" y="526"/>
      <point x="276" y="526" type="curve" smooth="yes"/>
      <point x="156" y="526"/>
      <point x="70" y="440"/>
      <point x="70" y="324" type="curve" smooth="yes"/>
      <point x="70" y="235"/>
      <point x="139" y="174"/>
      <point x="234" y="174" type="curve" smooth="yes"/>
    </contour>
  </outline>
</glyph>
<glyph name="notequal" format="1">
  <advance width="560"/>
  <unicode hex="2260"/>
  <outline>
    <contour>
      <point x="118" y="100" type="line"/>
      <point x="504" y="600" type="line"/>
      <point x="480" y="600" type="line"/>
      <point x="94" y="100" type="line"/>
    </contour>
    <contour>
      <point x="480" y="231" type="line"/>
      <point x="484" y="250" type="line"/>
      <point x="74" y="250" type="line"/>
      <point x="70" y="231" type="line"/>
    </contour>
    <contour>
      <point x="524" y="450" type="line"/>
      <point x="528" y="469" type="line"/>
      <point x="118" y="469" type="line"/>
      <point x="114" y="450" type="line"/>
    </contour>
  </outline>
</glyph>
<glyph name="lessequal" format="1">
  <advance width="560"/>
  <unicode hex="2264"/>
  <outline>
    <contour>
      <point x="470" y="188" type="line"/>
      <point x="105" y="353" type="line"/>
      <point x="103" y="345" type="line"/>
      <point x="533" y="509" type="line"/>
      <point x="538" y="532" type="line"/>
      <point x="94" y="361" type="line"/>
      <point x="90" y="339" type="line"/>
      <point x="466" y="168" type="line"/>
    </contour>
    <contour>
      <point x="433" y="0" type="line"/>
      <point x="437" y="19" type="line"/>
      <point x="27" y="19" type="line"/>
      <point x="23" y="0" type="line"/>
    </contour>
  </outline>
</glyph>
<glyph name="greaterequal" format="1">
  <advance width="560"/>
  <unicode hex="2265"/>
  <outline>
    <contour>
      <point x="502" y="339" type="line"/>
      <point x="506" y="361" type="line"/>
      <point x="130" y="532" type="line"/>
      <point x="126" y="512" type="line"/>
      <point x="491" y="347" type="line"/>
      <point x="493" y="355" type="line"/>
      <point x="63" y="191" type="line"/>
      <point x="58" y="168" type="line"/>
    </contour>
    <contour>
      <point x="433" y="0" type="line"/>
      <point x="437" y="19" type="line"/>
      <point x="27" y="19" type="line"/>
      <point x="23" y="0" type="line"/>
    </contour>
  </outline>
</glyph>
<glyph name="lozenge" format="1">
  <advance width="503"/>
  <unicode hex="25CA"/>
  <outline>
    <contour>
      <point x="449" y="330" type="line"/>
      <point x="252" y="623" type="line"/>
      <point x="54" y="330" type="line"/>
      <point x="251" y="34" type="line"/>
    </contour>
    <contour>
      <point x="78" y="330" type="line"/>
      <point x="252" y="589" type="line"/>
      <point x="425" y="330" type="line"/>
      <point x="251" y="70" type="line"/>
    </contour>
  </outline>
</glyph>
<glyph name="Saltillo" format="1">
  <advance width="208"/>
  <unicode hex="A78B"/>
  <outline>
    <contour>
      <point x="122" y="298" type="line"/>
      <point x="202" y="699" type="line"/>
      <point x="182" y="699" type="line"/>
      <point x="102" y="298" type="line"/>
    </contour>
  </outline>
</glyph>
<glyph name="saltillo" format="1">
  <advance width="209"/>
  <unicode hex="A78C"/>
  <outline>
    <contour>
      <point x="122" y="298" type="line"/>
      <point x="189" y="633" type="line"/>
      <point x="169" y="633" type="line"/>
      <point x="102" y="298" type="line"/>
    </contour>
  </outline>
</glyph>
<glyph name="A.ss01" format="1">
  <advance width="804"/>
  <outline>
    <contour>
      <point x="96" y="0" type="line"/>
      <point x="177" y="406" type="line" smooth="yes"/>
      <point x="214" y="594"/>
      <point x="311" y="684"/>
      <point x="477" y="684" type="curve" smooth="yes"/>
      <point x="644" y="684"/>
      <point x="722" y="585"/>
      <point x="686" y="405" type="curve" smooth="yes"/>
      <point x="605" y="0" type="line"/>
      <point x="625" y="0" type="line"/>
      <point x="706" y="407" type="line" smooth="yes"/>
      <point x="743" y="593"/>
      <point x="657" y="703"/>
      <point x="477" y="703" type="curve" smooth="yes"/>
      <point x="302" y="703"/>
      <point x="197" y="608"/>
      <point x="157" y="408" type="curve" smooth="yes"/>
      <point x="76" y="0" type="line"/>
    </contour>
    <contour>
      <point x="662" y="231" type="line"/>
      <point x="666" y="250" type="line"/>
      <point x="140" y="250" type="line"/>
      <point x="136" y="231" type="line"/>
    </contour>
    <contour>
      <point x="625" y="0" type="move" name="ogonek"/>
    </contour>
    <contour>
      <point x="490" y="700" type="move" name="top"/>
    </contour>
    <contour>
      <point x="179" y="700" type="move" name="topleft"/>
    </contour>
    <contour>
      <point x="350" y="0" type="move" name="bottom"/>
    </contour>
  </outline>
</glyph>
<glyph name="Adieresis.alt" format="1">
  <advance width="688"/>
  <outline>
    <contour>
      <point x="-20" y="0" type="line"/>
      <point x="434" y="684" type="line"/>
      <point x="424" y="684" type="line"/>
      <point x="604" y="0" type="line"/>
      <point x="627" y="0" type="line"/>
      <point x="442" y="700" type="line"/>
      <point x="422" y="700" type="line"/>
      <point x="-43" y="0" type="line"/>
    </contour>
    <contour>
      <point x="566" y="187" type="line"/>
      <point x="560" y="206" type="line"/>
      <point x="105" y="206" type="line"/>
      <point x="91" y="187" type="line"/>
    </contour>
    <contour>
      <point x="309" y="651"/>
      <point x="321" y="664"/>
      <point x="321" y="679" type="curve" smooth="yes"/>
      <point x="321" y="692"/>
      <point x="309" y="703"/>
      <point x="296" y="703" type="curve" smooth="yes"/>
      <point x="281" y="703"/>
      <point x="269" y="690"/>
      <point x="269" y="675" type="curve" smooth="yes"/>
      <point x="269" y="662"/>
      <point x="281" y="651"/>
      <point x="294" y="651" type="curve" smooth="yes"/>
    </contour>
    <contour>
      <point x="573" y="651"/>
      <point x="585" y="664"/>
      <point x="585" y="679" type="curve" smooth="yes"/>
      <point x="585" y="692"/>
      <point x="573" y="703"/>
      <point x="560" y="703" type="curve" smooth="yes"/>
      <point x="545" y="703"/>
      <point x="533" y="690"/>
      <point x="533" y="675" type="curve" smooth="yes"/>
      <point x="533" y="662"/>
      <point x="545" y="651"/>
      <point x="558" y="651" type="curve" smooth="yes"/>
    </contour>
  </outline>
</glyph>
<glyph name="E.ss01" format="1">
  <advance width="614"/>
  <outline>
    <contour>
      <point x="398" y="-3"/>
      <point x="502" y="33"/>
      <point x="557" y="91" type="curve"/>
      <point x="543" y="106" type="line"/>
      <point x="490" y="50"/>
      <point x="393" y="16"/>
      <point x="284" y="16" type="curve" smooth="yes"/>
      <point x="145" y="16"/>
      <point x="68" y="68"/>
      <point x="68" y="161" type="curve" smooth="yes"/>
      <point x="68" y="274"/>
      <point x="166" y="346"/>
      <point x="323" y="346" type="curve" smooth="yes"/>
      <point x="486" y="346" type="line"/>
      <point x="490" y="365" type="line"/>
      <point x="326" y="365" type="line" smooth="yes"/>
      <point x="224" y="365"/>
      <point x="165" y="414"/>
      <point x="165" y="496" type="curve" smooth="yes"/>
      <point x="165" y="609"/>
      <point x="266" y="684"/>
      <point x="415" y="684" type="curve" smooth="yes"/>
      <point x="496" y="684"/>
      <point x="561" y="666"/>
      <point x="619" y="627" type="curve"/>
      <point x="631" y="644" type="line"/>
      <point x="575" y="683"/>
      <point x="500" y="703"/>
      <point x="416" y="703" type="curve" smooth="yes"/>
      <point x="255" y="703"/>
      <point x="146" y="621"/>
      <point x="146" y="494" type="curve" smooth="yes"/>
      <point x="146" y="405"/>
      <point x="211" y="349"/>
      <point x="316" y="349" type="curve"/>
      <point x="314" y="362" type="line"/>
      <point x="153" y="362"/>
      <point x="48" y="283"/>
      <point x="48" y="159" type="curve" smooth="yes"/>
      <point x="48" y="57"/>
      <point x="134" y="-3"/>
      <point x="281" y="-3" type="curve" smooth="yes"/>
    </contour>
    <contour>
      <point x="511" y="0" type="move" name="ogonek"/>
    </contour>
    <contour>
      <point x="424" y="700" type="move" name="top"/>
    </contour>
    <contour>
      <point x="156" y="700" type="move" name="topleft"/>
    </contour>
    <contour>
      <point x="284" y="0" type="move" name="bottom"/>
    </contour>
  </outline>
</glyph>
<glyph name="Eogonek.ss01" format="1">
  <advance width="614"/>
  <outline>
    <contour>
      <point x="441" y="-213"/>
      <point x="469" y="-204"/>
      <point x="492" y="-186" type="curve"/>
      <point x="484" y="-169" type="line"/>
      <point x="464" y="-185"/>
      <point x="438" y="-194"/>
      <point x="413" y="-194" type="curve" smooth="yes"/>
      <point x="377" y="-194"/>
      <point x="356" y="-173"/>
      <point x="356" y="-140" type="curve" smooth="yes"/>
      <point x="356" y="-66"/>
      <point x="432" y="-4"/>
      <point x="557" y="91" type="curve"/>
      <point x="543" y="106" type="line"/>
      <point x="486" y="53"/>
      <point x="393" y="16"/>
      <point x="284" y="16" type="curve" smooth="yes"/>
      <point x="145" y="16"/>
      <point x="68" y="68"/>
      <point x="68" y="161" type="curve" smooth="yes"/>
      <point x="68" y="274"/>
      <point x="166" y="346"/>
      <point x="323" y="346" type="curve" smooth="yes"/>
      <point x="486" y="346" type="line"/>
      <point x="490" y="365" type="line"/>
      <point x="326" y="365" type="line" smooth="yes"/>
      <point x="224" y="365"/>
      <point x="165" y="414"/>
      <point x="165" y="496" type="curve" smooth="yes"/>
      <point x="165" y="609"/>
      <point x="266" y="684"/>
      <point x="415" y="684" type="curve" smooth="yes"/>
      <point x="496" y="684"/>
      <point x="561" y="666"/>
      <point x="619" y="627" type="curve"/>
      <point x="631" y="644" type="line"/>
      <point x="575" y="683"/>
      <point x="500" y="703"/>
      <point x="416" y="703" type="curve" smooth="yes"/>
      <point x="255" y="703"/>
      <point x="146" y="621"/>
      <point x="146" y="494" type="curve" smooth="yes"/>
      <point x="146" y="405"/>
      <point x="211" y="349"/>
      <point x="316" y="349" type="curve"/>
      <point x="314" y="362" type="line"/>
      <point x="153" y="362"/>
      <point x="48" y="283"/>
      <point x="48" y="159" type="curve" smooth="yes"/>
      <point x="48" y="57"/>
      <point x="134" y="-3"/>
      <point x="281" y="-3" type="curve" smooth="yes"/>
      <point x="342" y="-3"/>
      <point x="404" y="7"/>
      <point x="454" y="26" type="curve"/>
      <point x="463" y="40" type="line"/>
      <point x="374" y="-32"/>
      <point x="336" y="-82"/>
      <point x="336" y="-142" type="curve" smooth="yes"/>
      <point x="336" y="-184"/>
      <point x="366" y="-213"/>
      <point x="411" y="-213" type="curve" smooth="yes"/>
    </contour>
  </outline>
</glyph>
<glyph name="F.ss01" format="1">
  <advance width="596"/>
  <outline>
    <contour>
      <point x="96" y="0" type="line"/>
      <point x="192" y="479" type="line" smooth="yes"/>
      <point x="218" y="611"/>
      <point x="302" y="684"/>
      <point x="459" y="684" type="curve" smooth="yes"/>
      <point x="535" y="684"/>
      <point x="595" y="667"/>
      <point x="641" y="628" type="curve"/>
      <point x="654" y="642" type="line"/>
      <point x="607" y="684"/>
      <point x="538" y="703"/>
      <point x="460" y="703" type="curve" smooth="yes"/>
      <point x="292" y="703"/>
      <point x="200" y="624"/>
      <point x="172" y="482" type="curve" smooth="yes"/>
      <point x="76" y="0" type="line"/>
    </contour>
    <contour>
      <point x="524" y="326" type="line"/>
      <point x="528" y="345" type="line"/>
      <point x="161" y="345" type="line"/>
      <point x="157" y="326" type="line"/>
    </contour>
  </outline>
</glyph>
<glyph name="G.ss01" format="1">
  <advance width="774"/>
  <outline>
    <contour>
      <point x="476" y="-3"/>
      <point x="560" y="24"/>
      <point x="615" y="72" type="curve"/>
      <point x="618" y="95" type="line"/>
      <point x="551" y="41"/>
      <point x="477" y="16"/>
      <point x="388" y="16" type="curve" smooth="yes"/>
      <point x="192" y="16"/>
      <point x="91" y="123"/>
      <point x="91" y="280" type="curve" smooth="yes"/>
      <point x="91" y="498"/>
      <point x="246" y="684"/>
      <point x="490" y="684" type="curve" smooth="yes"/>
      <point x="593" y="684"/>
      <point x="670" y="656"/>
      <point x="718" y="601" type="curve"/>
      <point x="732" y="614" type="line"/>
      <point x="685" y="670"/>
      <point x="599" y="703"/>
      <point x="492" y="703" type="curve" smooth="yes"/>
      <point x="229" y="703"/>
      <point x="71" y="504"/>
      <point x="71" y="280" type="curve" smooth="yes"/>
      <point x="71" y="111"/>
      <point x="182" y="-3"/>
      <point x="386" y="-3" type="curve" smooth="yes"/>
    </contour>
    <contour>
      <point x="610" y="0" type="line"/>
      <point x="679" y="343" type="line"/>
      <point x="660" y="343" type="line"/>
      <point x="607" y="80" type="line"/>
      <point x="606" y="75" type="line"/>
      <point x="591" y="0" type="line"/>
    </contour>
    <contour>
      <point x="490" y="700" type="move" name="top"/>
    </contour>
    <contour>
      <point x="350" y="0" type="move" name="bottom"/>
    </contour>
  </outline>
</glyph>
<glyph name="I.ss01" format="1">
  <advance width="422"/>
  <outline>
    <contour>
      <point x="171" y="10" type="line"/>
      <point x="307" y="690" type="line"/>
      <point x="287" y="690" type="line"/>
      <point x="151" y="10" type="line"/>
    </contour>
    <contour>
      <point x="323" y="0" type="line"/>
      <point x="327" y="19" type="line"/>
      <point x="-1" y="19" type="line"/>
      <point x="-5" y="0" type="line"/>
    </contour>
    <contour>
      <point x="459" y="681" type="line"/>
      <point x="463" y="700" type="line"/>
      <point x="135" y="700" type="line"/>
      <point x="131" y="681" type="line"/>
    </contour>
    <contour>
      <point x="169" y="0" type="move" name="ogonek"/>
    </contour>
    <contour>
      <point x="299" y="700" type="move" name="top"/>
    </contour>
    <contour>
      <point x="95" y="700" type="move" name="topleft"/>
    </contour>
    <contour>
      <point x="159" y="0" type="move" name="bottom"/>
    </contour>
  </outline>
</glyph>
<glyph name="IJ.ss01" format="1">
  <advance width="714"/>
  <outline>
    <contour>
      <point x="436" y="-103"/>
      <point x="533" y="-8"/>
      <point x="573" y="190" type="curve" smooth="yes"/>
      <point x="675" y="700" type="line"/>
      <point x="655" y="700" type="line"/>
      <point x="554" y="194" type="line" smooth="yes"/>
      <point x="516" y="4"/>
      <point x="425" y="-84"/>
      <point x="269" y="-84" type="curve" smooth="yes"/>
      <point x="190" y="-84"/>
      <point x="123" y="-60"/>
      <point x="74" y="-22" type="curve"/>
      <point x="61" y="-39" type="line"/>
      <point x="110" y="-76"/>
      <point x="181" y="-103"/>
      <point x="269" y="-103" type="curve" smooth="yes"/>
    </contour>
    <contour>
      <point x="133" y="190" type="line"/>
      <point x="235" y="700" type="line"/>
      <point x="215" y="700" type="line"/>
      <point x="113" y="190" type="line"/>
    </contour>
    <contour>
      <point x="255" y="700" type="move" name="top"/>
    </contour>
  </outline>
</glyph>
<glyph name="J.ss01" format="1">
  <advance width="477"/>
  <outline>
    <contour>
      <point x="223" y="-103"/>
      <point x="288" y="-52"/>
      <point x="316" y="90" type="curve" smooth="yes"/>
      <point x="438" y="700" type="line"/>
      <point x="156" y="700" type="line"/>
      <point x="152" y="681" type="line"/>
      <point x="414" y="681" type="line"/>
      <point x="297" y="96" type="line" smooth="yes"/>
      <point x="270" y="-37"/>
      <point x="213" y="-84"/>
      <point x="120" y="-84" type="curve" smooth="yes"/>
      <point x="47" y="-84"/>
      <point x="-7" y="-49"/>
      <point x="-32" y="6" type="curve"/>
      <point x="-50" y="-4" type="line"/>
      <point x="-25" y="-63"/>
      <point x="38" y="-103"/>
      <point x="117" y="-103" type="curve" smooth="yes"/>
    </contour>
    <contour>
      <point x="297" y="700" type="move" name="top"/>
    </contour>
  </outline>
</glyph>
<glyph name="M.ss01" format="1">
  <advance width="1120"/>
  <outline>
    <contour>
      <point x="101" y="0" type="line"/>
      <point x="190" y="445" type="line" smooth="yes"/>
      <point x="223" y="611"/>
      <point x="316" y="684"/>
      <point x="435" y="684" type="curve" smooth="yes"/>
      <point x="565" y="684"/>
      <point x="622" y="604"/>
      <point x="589" y="441" type="curve" smooth="yes"/>
      <point x="501" y="0" type="line"/>
      <point x="521" y="0" type="line"/>
      <point x="605" y="421" type="line" smooth="yes"/>
      <point x="641" y="603"/>
      <point x="730" y="684"/>
      <point x="853" y="684" type="curve" smooth="yes"/>
      <point x="984" y="684"/>
      <point x="1042" y="604"/>
      <point x="1009" y="441" type="curve" smooth="yes"/>
      <point x="921" y="0" type="line"/>
      <point x="941" y="0" type="line"/>
      <point x="1029" y="442" type="line" smooth="yes"/>
      <point x="1063" y="615"/>
      <point x="992" y="703"/>
      <point x="854" y="703" type="curve" smooth="yes"/>
      <point x="752" y="703"/>
      <point x="665" y="649"/>
      <point x="613" y="518" type="curve"/>
      <point x="617" y="518" type="line"/>
      <point x="619" y="641"/>
      <point x="552" y="703"/>
      <point x="437" y="703" type="curve" smooth="yes"/>
      <point x="340" y="703"/>
      <point x="254" y="655"/>
      <point x="206" y="549" type="curve"/>
      <point x="210" y="544" type="line"/>
      <point x="241" y="700" type="line"/>
      <point x="221" y="700" type="line"/>
      <point x="81" y="0" type="line"/>
    </contour>
    <contour>
      <point x="651" y="700" type="move" name="top"/>
    </contour>
    <contour>
      <point x="511" y="0" type="move" name="bottom"/>
    </contour>
  </outline>
</glyph>
<glyph name="N.ss01" format="1">
  <advance width="800"/>
  <outline>
    <contour>
      <point x="362" y="703"/>
      <point x="260" y="647"/>
      <point x="202" y="526" type="curve"/>
      <point x="206" y="524" type="line"/>
      <point x="241" y="700" type="line"/>
      <point x="221" y="700" type="line"/>
      <point x="81" y="0" type="line"/>
      <point x="101" y="0" type="line"/>
      <point x="186" y="423" type="line" smooth="yes"/>
      <point x="222" y="601"/>
      <point x="335" y="684"/>
      <point x="486" y="684" type="curve" smooth="yes"/>
      <point x="645" y="684"/>
      <point x="719" y="592"/>
      <point x="683" y="410" type="curve" smooth="yes"/>
      <point x="601" y="0" type="line"/>
      <point x="621" y="0" type="line"/>
      <point x="703" y="411" type="line" smooth="yes"/>
      <point x="741" y="603"/>
      <point x="654" y="703"/>
      <point x="488" y="703" type="curve" smooth="yes"/>
    </contour>
    <contour>
      <point x="491" y="700" type="move" name="top"/>
    </contour>
    <contour>
      <point x="349" y="0" type="move" name="bottom"/>
    </contour>
  </outline>
</glyph>
<glyph name="Q.ss01" format="1">
  <advance width="836"/>
  <outline>
    <contour>
      <point x="644" y="-3"/>
      <point x="802" y="196"/>
      <point x="802" y="420" type="curve" smooth="yes"/>
      <point x="802" y="589"/>
      <point x="691" y="703"/>
      <point x="487" y="703" type="curve" smooth="yes"/>
      <point x="229" y="703"/>
      <point x="71" y="504"/>
      <point x="71" y="280" type="curve" smooth="yes"/>
      <point x="71" y="111"/>
      <point x="182" y="-3"/>
      <point x="386" y="-3" type="curve" smooth="yes"/>
    </contour>
    <contour>
      <point x="349" y="-135" type="line"/>
      <point x="376" y="1" type="line"/>
      <point x="378" y="10" type="line"/>
      <point x="417" y="205" type="line"/>
      <point x="397" y="205" type="line"/>
      <point x="358" y="10" type="line"/>
      <point x="356" y="1" type="line"/>
      <point x="329" y="-135" type="line"/>
    </contour>
    <contour>
      <point x="192" y="16"/>
      <point x="91" y="123"/>
      <point x="91" y="280" type="curve" smooth="yes"/>
      <point x="91" y="499"/>
      <point x="246" y="684"/>
      <point x="485" y="684" type="curve" smooth="yes"/>
      <point x="681" y="684"/>
      <point x="782" y="577"/>
      <point x="782" y="420" type="curve" smooth="yes"/>
      <point x="782" y="201"/>
      <point x="627" y="16"/>
      <point x="388" y="16" type="curve" smooth="yes"/>
    </contour>
    <contour>
      <point x="506" y="700" type="move" name="top"/>
    </contour>
  </outline>
</glyph>
<glyph name="Schwa.ss01" format="1">
  <advance width="816"/>
  <outline>
    <contour>
      <point x="624" y="-3"/>
      <point x="782" y="196"/>
      <point x="782" y="420" type="curve" smooth="yes"/>
      <point x="782" y="589"/>
      <point x="671" y="703"/>
      <point x="477" y="703" type="curve" smooth="yes"/>
      <point x="372" y="703"/>
      <point x="277" y="668"/>
      <point x="222" y="616" type="curve"/>
      <point x="234" y="602" type="line"/>
      <point x="290" y="653"/>
      <point x="372" y="684"/>
      <point x="475" y="684" type="curve" smooth="yes"/>
      <point x="661" y="684"/>
      <point x="762" y="577"/>
      <point x="762" y="420" type="curve" smooth="yes"/>
      <point x="762" y="201"/>
      <point x="607" y="16"/>
      <point x="378" y="16" type="curve" smooth="yes"/>
      <point x="233" y="16"/>
      <point x="132" y="84"/>
      <point x="102" y="191" type="curve"/>
      <point x="95" y="184" type="line"/>
      <point x="769" y="444" type="line"/>
      <point x="765" y="461" type="line"/>
      <point x="78" y="196" type="line"/>
      <point x="108" y="76"/>
      <point x="221" y="-3"/>
      <point x="376" y="-3" type="curve" smooth="yes"/>
    </contour>
    <contour>
      <point x="496" y="700" type="move" name="top"/>
    </contour>
    <contour>
      <point x="356" y="0" type="move" name="bottom"/>
    </contour>
  </outline>
</glyph>
<glyph name="T.ss01" format="1">
  <advance width="548"/>
  <outline>
    <contour>
      <point x="158" y="659"/>
      <point x="253" y="684"/>
      <point x="350" y="684" type="curve" smooth="yes"/>
      <point x="452" y="684"/>
      <point x="541" y="660"/>
      <point x="606" y="615" type="curve"/>
      <point x="618" y="631" type="line"/>
      <point x="545" y="680"/>
      <point x="457" y="703"/>
      <point x="351" y="703" type="curve" smooth="yes"/>
      <point x="252" y="703"/>
      <point x="155" y="678"/>
      <point x="78" y="631" type="curve"/>
      <point x="88" y="615" type="line"/>
    </contour>
    <contour>
      <point x="232" y="0" type="line"/>
      <point x="370" y="690" type="line"/>
      <point x="350" y="690" type="line"/>
      <point x="212" y="0" type="line"/>
    </contour>
    <contour>
      <point x="292" y="350" type="move" name="center"/>
    </contour>
    <contour>
      <point x="222" y="0" type="move" name="bottom"/>
    </contour>
    <contour>
      <point x="362" y="699" type="move" name="top"/>
    </contour>
  </outline>
</glyph>
<glyph name="T_h" format="1">
  <advance width="1148"/>
  <outline>
    <contour>
      <point x="232" y="0" type="line"/>
      <point x="368" y="681" type="line"/>
      <point x="688" y="681" type="line"/>
      <point x="692" y="700" type="line"/>
      <point x="92" y="700" type="line"/>
      <point x="88" y="681" type="line"/>
      <point x="348" y="681" type="line"/>
      <point x="212" y="0" type="line"/>
    </contour>
    <contour>
      <point x="764" y="520"/>
      <point x="675" y="472"/>
      <point x="626" y="362" type="curve"/>
      <point x="636" y="367" type="line"/>
      <point x="703" y="700" type="line"/>
      <point x="683" y="700" type="line"/>
      <point x="543" y="0" type="line"/>
      <point x="563" y="0" type="line"/>
      <point x="620" y="287" type="line" smooth="yes"/>
      <point x="648" y="427"/>
      <point x="740" y="501"/>
      <point x="871" y="501" type="curve" smooth="yes"/>
      <point x="999" y="501"/>
      <point x="1052" y="426"/>
      <point x="1028" y="305" type="curve" smooth="yes"/>
      <point x="967" y="0" type="line"/>
      <point x="987" y="0" type="line"/>
      <point x="1048" y="305" type="line" smooth="yes"/>
      <point x="1073" y="431"/>
      <point x="1016" y="520"/>
      <point x="873" y="520" type="curve" smooth="yes"/>
    </contour>
  </outline>
</glyph>
<glyph name="U.ss01" format="1">
  <advance width="800"/>
  <outline>
    <contour>
      <point x="474" y="-3"/>
      <point x="576" y="53"/>
      <point x="634" y="174" type="curve"/>
      <point x="630" y="176" type="line"/>
      <point x="595" y="0" type="line"/>
      <point x="615" y="0" type="line"/>
      <point x="755" y="700" type="line"/>
      <point x="735" y="700" type="line"/>
      <point x="650" y="277" type="line" smooth="yes"/>
      <point x="614" y="99"/>
      <point x="501" y="16"/>
      <point x="350" y="16" type="curve" smooth="yes"/>
      <point x="191" y="16"/>
      <point x="117" y="108"/>
      <point x="153" y="290" type="curve" smooth="yes"/>
      <point x="235" y="700" type="line"/>
      <point x="215" y="700" type="line"/>
      <point x="133" y="289" type="line" smooth="yes"/>
      <point x="95" y="97"/>
      <point x="182" y="-3"/>
      <point x="348" y="-3" type="curve" smooth="yes"/>
    </contour>
    <contour>
      <point x="615" y="0" type="move" name="ogonek"/>
    </contour>
    <contour>
      <point x="485" y="700" type="move" name="top"/>
    </contour>
    <contour>
      <point x="748" y="700" type="move" name="topright"/>
    </contour>
    <contour>
      <point x="345" y="0" type="move" name="bottom"/>
    </contour>
  </outline>
</glyph>
<glyph name="Y.ss01" format="1">
  <advance width="789"/>
  <outline>
    <contour>
      <point x="682" y="461" type="line" smooth="yes"/>
      <point x="646" y="283"/>
      <point x="533" y="200"/>
      <point x="382" y="200" type="curve" smooth="yes"/>
      <point x="223" y="200"/>
      <point x="149" y="292"/>
      <point x="185" y="474" type="curve" smooth="yes"/>
      <point x="230" y="700" type="line"/>
      <point x="210" y="700" type="line"/>
      <point x="165" y="473" type="line" smooth="yes"/>
      <point x="127" y="281"/>
      <point x="214" y="181"/>
      <point x="380" y="181" type="curve" smooth="yes"/>
      <point x="506" y="181"/>
      <point x="608" y="237"/>
      <point x="666" y="358" type="curve"/>
      <point x="662" y="360" type="line"/>
      <point x="629" y="194" type="line" smooth="yes"/>
      <point x="592" y="7"/>
      <point x="483" y="-84"/>
      <point x="325" y="-84" type="curve" smooth="yes"/>
      <point x="219" y="-84"/>
      <point x="148" y="-48"/>
      <point x="105" y="27" type="curve"/>
      <point x="88" y="13" type="line"/>
      <point x="130" y="-61"/>
      <point x="208" y="-103"/>
      <point x="320" y="-103" type="curve" smooth="yes"/>
      <point x="487" y="-103"/>
      <point x="610" y="-5"/>
      <point x="649" y="193" type="curve" smooth="yes"/>
      <point x="750" y="700" type="line"/>
      <point x="730" y="700" type="line"/>
    </contour>
    <contour>
      <point x="481" y="700" type="move" name="top"/>
    </contour>
    <contour>
      <point x="601" y="0" type="move" name="bottom"/>
    </contour>
  </outline>
</glyph>
<glyph name="Z.ss01" format="1">
  <advance width="649"/>
  <outline>
    <contour>
      <point x="553" y="0" type="line"/>
      <point x="557" y="19" type="line"/>
      <point x="32" y="19" type="line"/>
      <point x="31" y="12" type="line"/>
      <point x="680" y="685" type="line"/>
      <point x="683" y="700" type="line"/>
      <point x="148" y="700" type="line"/>
      <point x="144" y="681" type="line"/>
      <point x="654" y="681" type="line"/>
      <point x="654" y="688" type="line"/>
      <point x="6" y="15" type="line"/>
      <point x="3" y="0" type="line"/>
    </contour>
    <contour>
      <point x="333" y="346" type="line"/>
      <point x="340" y="346" type="line"/>
      <point x="538" y="346" type="line"/>
      <point x="542" y="365" type="line"/>
      <point x="358" y="365" type="line"/>
      <point x="351" y="365" type="line"/>
      <point x="142" y="365" type="line"/>
      <point x="138" y="346" type="line"/>
    </contour>
    <contour>
      <point x="418" y="700" type="move" name="top"/>
    </contour>
    <contour>
      <point x="288" y="0" type="move" name="bottom"/>
    </contour>
  </outline>
</glyph>
<glyph name=".notdef" format="1">
  <advance width="587"/>
  <outline>
    <contour>
      <point x="495" y="0" type="line"/>
      <point x="635" y="700" type="line"/>
      <point x="128" y="700" type="line"/>
      <point x="-12" y="0" type="line"/>
    </contour>
    <contour>
      <point x="194" y="630" type="line"/>
      <point x="541" y="630" type="line"/>
      <point x="429" y="70" type="line"/>
      <point x="82" y="70" type="line"/>
    </contour>
  </outline>
</glyph>
<glyph name="a.sc" format="1">
  <advance width="563"/>
  <outline>
    <contour>
      <point x="-21" y="0" type="line"/>
      <point x="343" y="544" type="line"/>
      <point x="334" y="544" type="line"/>
      <point x="479" y="0" type="line"/>
      <point x="502" y="0" type="line"/>
      <point x="351" y="559" type="line"/>
      <point x="331" y="559" type="line"/>
      <point x="-43" y="0" type="line"/>
    </contour>
    <contour>
      <point x="444" y="169" type="line"/>
      <point x="439" y="188" type="line"/>
      <point x="95" y="188" type="line"/>
      <point x="82" y="169" type="line"/>
    </contour>
    <contour>
      <point x="502" y="0" type="move" name="ogonek"/>
    </contour>
    <contour>
      <point x="341" y="559" type="move" name="top"/>
    </contour>
    <contour>
      <point x="148" y="559" type="move" name="topleft"/>
    </contour>
    <contour>
      <point x="229" y="0" type="move" name="bottom"/>
    </contour>
  </outline>
</glyph>
<glyph name="a.sc.ss01" format="1">
  <advance width="680"/>
  <outline>
    <contour>
      <point x="84" y="0" type="line"/>
      <point x="149" y="326" type="line" smooth="yes"/>
      <point x="178" y="471"/>
      <point x="270" y="543"/>
      <point x="397" y="543" type="curve" smooth="yes"/>
      <point x="524" y="543"/>
      <point x="586" y="471"/>
      <point x="557" y="326" type="curve" smooth="yes"/>
      <point x="492" y="0" type="line"/>
      <point x="512" y="0" type="line"/>
      <point x="577" y="324" type="line" smooth="yes"/>
      <point x="609" y="483"/>
      <point x="536" y="562"/>
      <point x="400" y="562" type="curve" smooth="yes"/>
      <point x="264" y="562"/>
      <point x="161" y="483"/>
      <point x="129" y="324" type="curve" smooth="yes"/>
      <point x="64" y="0" type="line"/>
    </contour>
    <contour>
      <point x="536" y="182" type="line"/>
      <point x="540" y="201" type="line"/>
      <point x="118" y="201" type="line"/>
      <point x="114" y="182" type="line"/>
    </contour>
    <contour>
      <point x="512" y="0" type="move" name="ogonek"/>
    </contour>
    <contour>
      <point x="400" y="559" type="move" name="top"/>
    </contour>
    <contour>
      <point x="148" y="559" type="move" name="topleft"/>
    </contour>
    <contour>
      <point x="288" y="0" type="move" name="bottom"/>
    </contour>
  </outline>
</glyph>
<glyph name="a.ss01" format="1">
  <advance width="703"/>
  <outline>
    <contour>
      <point x="440" y="-3"/>
      <point x="558" y="133"/>
      <point x="557" y="312" type="curve" smooth="yes"/>
      <point x="556" y="442"/>
      <point x="479" y="520"/>
      <point x="341" y="520" type="curve" smooth="yes"/>
      <point x="171" y="520"/>
      <point x="49" y="386"/>
      <point x="49" y="207" type="curve" smooth="yes"/>
      <point x="49" y="78"/>
      <point x="134" y="-3"/>
      <point x="269" y="-3" type="curve" smooth="yes"/>
    </contour>
    <contour>
      <point x="144" y="16"/>
      <point x="69" y="86"/>
      <point x="69" y="208" type="curve" smooth="yes"/>
      <point x="69" y="376"/>
      <point x="183" y="501"/>
      <point x="338" y="501" type="curve" smooth="yes"/>
      <point x="466" y="501"/>
      <point x="541" y="431"/>
      <point x="541" y="309" type="curve" smooth="yes"/>
      <point x="541" y="140"/>
      <point x="427" y="16"/>
      <point x="272" y="16" type="curve" smooth="yes"/>
    </contour>
    <contour>
      <point x="621" y="-3"/>
      <point x="644" y="1"/>
      <point x="658" y="7" type="curve"/>
      <point x="659" y="26" type="line"/>
      <point x="646" y="20"/>
      <point x="627" y="16"/>
      <point x="605" y="16" type="curve" smooth="yes"/>
      <point x="540" y="16"/>
      <point x="516" y="58"/>
      <point x="531" y="132" type="curve" smooth="yes"/>
      <point x="608" y="517" type="line"/>
      <point x="588" y="517" type="line"/>
      <point x="550" y="327" type="line"/>
      <point x="547" y="250" type="line"/>
      <point x="521" y="180" type="line"/>
      <point x="510" y="126" type="line" smooth="yes"/>
      <point x="495" y="48"/>
      <point x="528" y="-3"/>
      <point x="604" y="-3" type="curve" smooth="yes"/>
    </contour>
    <contour>
      <point x="618" y="0" type="move" name="ogonek"/>
    </contour>
    <contour>
      <point x="265" y="0" type="move" name="bottom"/>
    </contour>
    <contour>
      <point x="368" y="517" type="move" name="top"/>
    </contour>
  </outline>
</glyph>
<glyph name="acutecomb.loclVIET" format="1">
  <advance width="600"/>
  <outline>
    <contour>
      <point x="355" y="607" type="line"/>
      <point x="504" y="707" type="line"/>
      <point x="462" y="707" type="line"/>
      <point x="323" y="607" type="line"/>
    </contour>
    <contour>
      <point x="374" y="630" type="move" name="top"/>
    </contour>
    <contour>
      <point x="351" y="517" type="move" name="_top"/>
    </contour>
  </outline>
</glyph>
<glyph name="adieresis.sc.alt" format="1">
  <advance width="563"/>
  <outline>
    <contour>
      <point x="-21" y="0" type="line"/>
      <point x="343" y="544" type="line"/>
      <point x="334" y="544" type="line"/>
      <point x="479" y="0" type="line"/>
      <point x="502" y="0" type="line"/>
      <point x="351" y="559" type="line"/>
      <point x="331" y="559" type="line"/>
      <point x="-43" y="0" type="line"/>
    </contour>
    <contour>
      <point x="449" y="147" type="line"/>
      <point x="444" y="166" type="line"/>
      <point x="79" y="166" type="line"/>
      <point x="66" y="147" type="line"/>
    </contour>
    <contour>
      <point x="214" y="510"/>
      <point x="228" y="522"/>
      <point x="231" y="536" type="curve" smooth="yes"/>
      <point x="234" y="550"/>
      <point x="224" y="562"/>
      <point x="210" y="562" type="curve" smooth="yes"/>
      <point x="196" y="562"/>
      <point x="182" y="550"/>
      <point x="179" y="536" type="curve" smooth="yes"/>
      <point x="176" y="522"/>
      <point x="186" y="510"/>
      <point x="200" y="510" type="curve" smooth="yes"/>
    </contour>
    <contour>
      <point x="477" y="510"/>
      <point x="491" y="522"/>
      <point x="494" y="536" type="curve" smooth="yes"/>
      <point x="497" y="550"/>
      <point x="487" y="562"/>
      <point x="473" y="562" type="curve" smooth="yes"/>
      <point x="459" y="562"/>
      <point x="445" y="550"/>
      <point x="442" y="536" type="curve" smooth="yes"/>
      <point x="439" y="522"/>
      <point x="449" y="510"/>
      <point x="463" y="510" type="curve" smooth="yes"/>
    </contour>
  </outline>
</glyph>
<glyph name="ae.sc" format="1">
  <advance width="820"/>
  <outline>
    <contour>
      <point x="-21" y="0" type="line"/>
      <point x="438" y="546" type="line"/>
      <point x="423" y="540" type="line"/>
      <point x="444" y="540" type="line"/>
      <point x="448" y="559" type="line"/>
      <point x="427" y="559" type="line"/>
      <point x="-43" y="0" type="line"/>
    </contour>
    <contour>
      <point x="370" y="169" type="line"/>
      <point x="374" y="188" type="line"/>
      <point x="123" y="188" type="line"/>
      <point x="111" y="169" type="line"/>
    </contour>
    <contour>
      <point x="710" y="0" type="line"/>
      <point x="714" y="19" type="line"/>
      <point x="355" y="19" type="line"/>
      <point x="406" y="274" type="line"/>
      <point x="716" y="274" type="line"/>
      <point x="720" y="293" type="line"/>
      <point x="410" y="293" type="line"/>
      <point x="459" y="540" type="line"/>
      <point x="806" y="540" type="line"/>
      <point x="810" y="559" type="line"/>
      <point x="443" y="559" type="line"/>
      <point x="331" y="0" type="line"/>
    </contour>
    <contour>
      <point x="453" y="559" type="move" name="top"/>
    </contour>
    <contour>
      <point x="341" y="0" type="move" name="bottom"/>
    </contour>
  </outline>
</glyph>
<glyph name="an" format="1">
  <advance width="574"/>
  <outline>
    <contour>
      <point x="413" y="0" type="line"/>
      <point x="481" y="339" type="line" smooth="yes"/>
      <point x="504" y="457"/>
      <point x="452" y="520"/>
      <point x="332" y="520" type="curve" smooth="yes"/>
      <point x="254" y="520"/>
      <point x="174" y="490"/>
      <point x="116" y="443" type="curve"/>
      <point x="127" y="429" type="line"/>
      <point x="180" y="472"/>
      <point x="252" y="501"/>
      <point x="329" y="501" type="curve" smooth="yes"/>
      <point x="436" y="501"/>
      <point x="482" y="446"/>
      <point x="461" y="338" type="curve" smooth="yes"/>
      <point x="421" y="140" type="line"/>
      <point x="418" y="123" type="line"/>
      <point x="393" y="0" type="line"/>
    </contour>
    <contour>
      <point x="303" y="-3"/>
      <point x="385" y="52"/>
      <point x="430" y="135" type="curve"/>
      <point x="423" y="148" type="line"/>
      <point x="372" y="64"/>
      <point x="299" y="16"/>
      <point x="199" y="16" type="curve" smooth="yes"/>
      <point x="96" y="16"/>
      <point x="46" y="65"/>
      <point x="62" y="143" type="curve" smooth="yes"/>
      <point x="75" y="212"/>
      <point x="131" y="262"/>
      <point x="248" y="262" type="curve" smooth="yes"/>
      <point x="456" y="262" type="line"/>
      <point x="460" y="281" type="line"/>
      <point x="253" y="281" type="line" smooth="yes"/>
      <point x="115" y="281"/>
      <point x="56" y="216"/>
      <point x="41" y="142" type="curve" smooth="yes"/>
      <point x="24" y="55"/>
      <point x="79" y="-3"/>
      <point x="195" y="-3" type="curve" smooth="yes"/>
    </contour>
    <contour>
      <point x="413" y="0" type="move" name="ogonek"/>
    </contour>
    <contour>
      <point x="231" y="0" type="move" name="bottom"/>
    </contour>
    <contour>
      <point x="324" y="517" type="move" name="top"/>
    </contour>
  </outline>
</glyph>
<glyph name="aogonek.ss01" format="1">
  <advance width="703"/>
  <outline>
    <contour>
      <point x="440" y="-3"/>
      <point x="558" y="133"/>
      <point x="557" y="312" type="curve" smooth="yes"/>
      <point x="556" y="442"/>
      <point x="479" y="520"/>
      <point x="341" y="520" type="curve" smooth="yes"/>
      <point x="171" y="520"/>
      <point x="49" y="386"/>
      <point x="49" y="207" type="curve" smooth="yes"/>
      <point x="49" y="78"/>
      <point x="134" y="-3"/>
      <point x="269" y="-3" type="curve" smooth="yes"/>
    </contour>
    <contour>
      <point x="144" y="16"/>
      <point x="69" y="86"/>
      <point x="69" y="208" type="curve" smooth="yes"/>
      <point x="69" y="376"/>
      <point x="183" y="501"/>
      <point x="338" y="501" type="curve" smooth="yes"/>
      <point x="466" y="501"/>
      <point x="541" y="431"/>
      <point x="541" y="309" type="curve" smooth="yes"/>
      <point x="541" y="140"/>
      <point x="427" y="16"/>
      <point x="272" y="16" type="curve" smooth="yes"/>
    </contour>
    <contour>
      <point x="548" y="-213"/>
      <point x="576" y="-204"/>
      <point x="599" y="-186" type="curve"/>
      <point x="591" y="-169" type="line"/>
      <point x="571" y="-185"/>
      <point x="545" y="-194"/>
      <point x="520" y="-194" type="curve" smooth="yes"/>
      <point x="484" y="-194"/>
      <point x="463" y="-176"/>
      <point x="463" y="-142" type="curve" smooth="yes"/>
      <point x="463" y="-88"/>
      <point x="516" y="-33"/>
      <point x="637" y="1" type="curve"/>
      <point x="645" y="2"/>
      <point x="652" y="4"/>
      <point x="658" y="7" type="curve"/>
      <point x="659" y="26" type="line"/>
      <point x="646" y="20"/>
      <point x="627" y="16"/>
      <point x="605" y="16" type="curve" smooth="yes"/>
      <point x="540" y="16"/>
      <point x="516" y="58"/>
      <point x="531" y="132" type="curve" smooth="yes"/>
      <point x="608" y="517" type="line"/>
      <point x="588" y="517" type="line"/>
      <point x="550" y="327" type="line"/>
      <point x="547" y="250" type="line"/>
      <point x="521" y="180" type="line"/>
      <point x="510" y="126" type="line" smooth="yes"/>
      <point x="495" y="54"/>
      <point x="523" y="7"/>
      <point x="585" y="-2" type="curve"/>
      <point x="588" y="2" type="line"/>
      <point x="482" y="-36"/>
      <point x="443" y="-91"/>
      <point x="443" y="-144" type="curve" smooth="yes"/>
      <point x="443" y="-187"/>
      <point x="473" y="-213"/>
      <point x="518" y="-213" type="curve" smooth="yes"/>
    </contour>
    <contour>
      <point x="368" y="517" type="move" name="top"/>
    </contour>
  </outline>
</glyph>
<glyph name="backslash.case" format="1">
  <advance width="300"/>
  <outline>
    <contour>
      <point x="105" y="842" type="line"/>
      <point x="86" y="842" type="line"/>
      <point x="229" y="-100" type="line"/>
      <point x="248" y="-100" type="line"/>
    </contour>
  </outline>
</glyph>
<glyph name="brevecomb.loclVIET" format="1">
  <advance width="600"/>
  <outline>
    <contour>
      <point x="450" y="604"/>
      <point x="503" y="634"/>
      <point x="517" y="687" type="curve"/>
      <point x="498" y="687" type="line"/>
      <point x="485" y="645"/>
      <point x="442" y="623"/>
      <point x="378" y="623" type="curve" smooth="yes"/>
      <point x="316" y="623"/>
      <point x="278" y="645"/>
      <point x="272" y="687" type="curve"/>
      <point x="253" y="687" type="line"/>
      <point x="258" y="636"/>
      <point x="306" y="604"/>
      <point x="377" y="604" type="curve" smooth="yes"/>
    </contour>
    <contour>
      <point x="370" y="611" type="move" name="top"/>
    </contour>
    <contour>
      <point x="351" y="517" type="move" name="_top"/>
    </contour>
  </outline>
</glyph>
<glyph name="brevecomb.narrow" format="1">
  <advance width="600"/>
  <outline>
    <contour>
      <point x="448" y="604"/>
      <point x="490" y="644"/>
      <point x="498" y="717" type="curve"/>
      <point x="478" y="717" type="line"/>
      <point x="471" y="655"/>
      <point x="438" y="623"/>
      <point x="380" y="623" type="curve" smooth="yes"/>
      <point x="325" y="623"/>
      <point x="296" y="657"/>
      <point x="302" y="717" type="curve"/>
      <point x="284" y="717" type="line"/>
      <point x="275" y="649"/>
      <point x="314" y="604"/>
      <point x="381" y="604" type="curve" smooth="yes"/>
    </contour>
    <contour>
      <point x="378" y="650" type="move" name="top"/>
    </contour>
    <contour>
      <point x="351" y="517" type="move" name="_top"/>
    </contour>
  </outline>
</glyph>
<glyph name="brevecomb_acutecomb" format="1">
  <advance width="600"/>
  <outline>
    <component base="brevecomb.loclVIET"/>
    <component base="acutecomb.loclVIET" xOffset="19" yOffset="94"/>
    <contour>
      <point x="351" y="517" type="move" name="_top"/>
    </contour>
  </outline>
</glyph>
<glyph name="breveinvertedcomb.narrow" format="1">
  <advance width="600"/>
  <outline>
    <contour>
      <point x="282" y="607" type="line"/>
      <point x="289" y="669"/>
      <point x="322" y="701"/>
      <point x="380" y="701" type="curve" smooth="yes"/>
      <point x="435" y="701"/>
      <point x="464" y="667"/>
      <point x="458" y="607" type="curve"/>
      <point x="476" y="607" type="line"/>
      <point x="485" y="675"/>
      <point x="446" y="720"/>
      <point x="379" y="720" type="curve" smooth="yes"/>
      <point x="312" y="720"/>
      <point x="270" y="680"/>
      <point x="262" y="607" type="curve"/>
    </contour>
    <contour>
      <point x="378" y="650" type="move" name="top"/>
    </contour>
    <contour>
      <point x="351" y="517" type="move" name="_top"/>
    </contour>
  </outline>
</glyph>
<glyph name="c.sc" format="1">
  <advance width="588"/>
  <outline>
    <contour>
      <point x="369" y="-3"/>
      <point x="444" y="22"/>
      <point x="503" y="70" type="curve"/>
      <point x="494" y="84" type="line"/>
      <point x="433" y="36"/>
      <point x="367" y="17"/>
      <point x="298" y="17" type="curve" smooth="yes"/>
      <point x="144" y="17"/>
      <point x="50" y="131"/>
      <point x="80" y="280" type="curve" smooth="yes"/>
      <point x="110" y="429"/>
      <point x="250" y="543"/>
      <point x="404" y="543" type="curve" smooth="yes"/>
      <point x="473" y="543"/>
      <point x="531" y="524"/>
      <point x="572" y="476" type="curve"/>
      <point x="587" y="490" type="line"/>
      <point x="548" y="538"/>
      <point x="482" y="562"/>
      <point x="407" y="562" type="curve" smooth="yes"/>
      <point x="241" y="562"/>
      <point x="92" y="441"/>
      <point x="60" y="280" type="curve" smooth="yes"/>
      <point x="28" y="118"/>
      <point x="128" y="-3"/>
      <point x="294" y="-3" type="curve" smooth="yes"/>
    </contour>
    <contour>
      <point x="399" y="559" type="move" name="top"/>
    </contour>
    <contour>
      <point x="287" y="0" type="move" name="bottom"/>
    </contour>
  </outline>
</glyph>
<glyph name="caroncomb.alt.short" format="1">
  <advance width="600"/>
  <outline>
    <contour>
      <point x="383" y="602" type="line"/>
      <point x="420" y="762" type="line"/>
      <point x="400" y="762" type="line"/>
      <point x="368" y="602" type="line"/>
    </contour>
    <contour>
      <point x="396" y="742" type="move" name="_topright"/>
    </contour>
  </outline>
</glyph>
<glyph name="caroncomb.loclVIET" format="1">
  <advance width="600"/>
  <outline>
    <contour>
      <point x="493" y="687" type="line"/>
      <point x="371" y="620" type="line"/>
      <point x="381" y="620" type="line"/>
      <point x="277" y="687" type="line"/>
      <point x="248" y="687" type="line"/>
      <point x="361" y="607" type="line"/>
      <point x="391" y="607" type="line"/>
      <point x="524" y="687" type="line"/>
    </contour>
    <contour>
      <point x="369" y="607" type="move" name="top"/>
    </contour>
    <contour>
      <point x="351" y="517" type="move" name="_top"/>
    </contour>
  </outline>
</glyph>
<glyph name="caroncomb_dotaccentcomb" format="1">
  <advance width="600"/>
  <outline>
    <component base="caroncomb.loclVIET"/>
    <component base="dotaccentcomb.loclVIET" xOffset="18" yOffset="90"/>
    <contour>
      <point x="351" y="517" type="move" name="_top"/>
    </contour>
  </outline>
</glyph>
<glyph name="circumflexcomb.loclVIET" format="1">
  <advance width="600"/>
  <outline>
    <contour>
      <point x="263" y="607" type="line"/>
      <point x="385" y="674" type="line"/>
      <point x="375" y="674" type="line"/>
      <point x="479" y="607" type="line"/>
      <point x="508" y="607" type="line"/>
      <point x="395" y="687" type="line"/>
      <point x="365" y="687" type="line"/>
      <point x="232" y="607" type="line"/>
    </contour>
    <contour>
      <point x="371" y="615" type="move" name="top"/>
    </contour>
    <contour>
      <point x="351" y="517" type="move" name="_top"/>
    </contour>
  </outline>
</glyph>
<glyph name="circumflexcomb.narrow" format="1">
  <advance width="600"/>
  <outline>
    <contour>
      <point x="284" y="607" type="line"/>
      <point x="382" y="703" type="line"/>
      <point x="378" y="703" type="line"/>
      <point x="456" y="607" type="line"/>
      <point x="482" y="607" type="line"/>
      <point x="396" y="717" type="line"/>
      <point x="366" y="717" type="line"/>
      <point x="256" y="607" type="line"/>
    </contour>
    <contour>
      <point x="378" y="650" type="move" name="top"/>
    </contour>
    <contour>
      <point x="351" y="517" type="move" name="_top"/>
    </contour>
  </outline>
</glyph>
<glyph name="circumflexcomb_hookabovecomb" format="1">
  <advance width="600"/>
  <outline>
    <component base="circumflexcomb.loclVIET"/>
    <component base="hookabovecomb.loclVIET" xOffset="100" yOffset="65"/>
    <contour>
      <point x="351" y="517" type="move" name="_top"/>
    </contour>
  </outline>
</glyph>
<glyph name="commaaccentcomb.alt" format="1">
  <advance width="600"/>
  <outline>
    <component base="commaaccentcomb" xOffset="600" yOffset="550" xScale="-1" yScale="-1"/>
    <contour>
      <point x="351" y="517" type="move" name="_top"/>
    </contour>
  </outline>
</glyph>
